<svg width="41" height="41" viewBox="0 0 41 41" fill="none" xmlns="http://www.w3.org/2000/svg">
<path d="M16.5778 33.391L5.04653 21.8598C4.86736 21.6812 4.7252 21.4691 4.62819 21.2355C4.53119 21.0019 4.48126 20.7514 4.48126 20.4985C4.48126 20.2455 4.53119 19.995 4.62819 19.7614C4.7252 19.5278 4.86736 19.3157 5.04653 19.1371L16.5778 7.60587C16.9388 7.24483 17.4285 7.04199 17.9391 7.04199C18.4497 7.04199 18.9394 7.24483 19.3004 7.60587C19.6615 7.96692 19.8643 8.4566 19.8643 8.9672C19.8643 9.4778 19.6615 9.96748 19.3004 10.3285L11.0508 18.5782H34.5938C35.1035 18.5782 35.5923 18.7807 35.9527 19.1411C36.3131 19.5015 36.5156 19.9903 36.5156 20.5001C36.5156 21.0098 36.3131 21.4986 35.9527 21.859C35.5923 22.2194 35.1035 22.4219 34.5938 22.4219H11.0508L19.302 30.6716C19.6631 31.0326 19.8659 31.5223 19.8659 32.0329C19.8659 32.5435 19.6631 33.0332 19.302 33.3942C18.941 33.7553 18.4513 33.9581 17.9407 33.9581C17.4301 33.9581 16.9404 33.7553 16.5794 33.3942L16.5778 33.391Z" fill="#212121"/>
</svg>
