<svg width="55" height="55" viewBox="0 0 55 55" fill="none" xmlns="http://www.w3.org/2000/svg">
<path d="M43.8 9H10.2C9.08609 9 8.0178 9.44484 7.23015 10.2367C6.4425 11.0285 6 12.1024 6 13.2222V17.4444C6.00442 18.1813 6.20059 18.9041 6.56899 19.5411C6.9374 20.1781 7.46522 20.7071 8.1 21.0756V42.7778C8.1 43.8976 8.5425 44.9715 9.33015 45.7633C10.1178 46.5552 11.1861 47 12.3 47H41.7C42.8139 47 43.8822 46.5552 44.6698 45.7633C45.4575 44.9715 45.9 43.8976 45.9 42.7778V21.0756C46.5348 20.7071 47.0626 20.1781 47.431 19.5411C47.7994 18.9041 47.9956 18.1813 48 17.4444V13.2222C48 12.1024 47.5575 11.0285 46.7698 10.2367C45.9822 9.44484 44.9139 9 43.8 9ZM10.2 13.2222H43.8V17.4444H10.2V13.2222ZM12.3 42.7778V21.6667H41.7V42.7778H12.3Z" fill="#27D3B3"/>
<path d="M18 26H35V30H18V26Z" fill="#27D3B3"/>
</svg>
