<svg width="55" height="55" viewBox="0 0 55 55" fill="none" xmlns="http://www.w3.org/2000/svg">
<path d="M19.717 37.9535L28.0189 29.6516L36.3208 37.9535L37.9535 36.3208L29.6516 28.0189L37.9535 19.717L36.3208 18.0843L28.0189 26.3862L19.717 18.0843L18.0843 19.717L26.3862 28.0189L18.0843 36.3208L19.717 37.9535ZM28.0258 48.7736C25.157 48.7736 22.4589 48.2294 19.9315 47.1409C17.4055 46.0509 15.2078 44.5719 13.3384 42.704C11.4689 40.8361 9.98918 38.6407 8.89917 36.1178C7.80916 33.595 7.26416 30.8976 7.26416 28.0258C7.26416 25.154 7.80916 22.4558 8.89917 19.9315C9.98764 17.4055 11.4643 15.2078 13.3291 13.3384C15.194 11.4689 17.3902 9.98918 19.9176 8.89917C22.4451 7.80916 25.1432 7.26416 28.012 7.26416C30.8807 7.26416 33.5788 7.80916 36.1063 8.89917C38.6322 9.98764 40.8299 11.4651 42.6994 13.3315C44.5688 15.1978 46.0486 17.394 47.1386 19.9199C48.2286 22.4458 48.7736 25.1432 48.7736 28.012C48.7736 30.8807 48.2294 33.5788 47.1409 36.1063C46.0524 38.6338 44.5735 40.8315 42.704 42.6994C40.8345 44.5673 38.6391 46.047 36.1178 47.1386C33.5965 48.2301 30.8992 48.7751 28.0258 48.7736ZM28.0189 46.4675C33.1691 46.4675 37.5315 44.6803 41.1059 41.1059C44.6803 37.5315 46.4675 33.1691 46.4675 28.0189C46.4675 22.8686 44.6803 18.5063 41.1059 14.9319C37.5315 11.3575 33.1691 9.57024 28.0189 9.57024C22.8686 9.57024 18.5063 11.3575 14.9319 14.9319C11.3575 18.5063 9.57024 22.8686 9.57024 28.0189C9.57024 33.1691 11.3575 37.5315 14.9319 41.1059C18.5063 44.6803 22.8686 46.4675 28.0189 46.4675Z" fill="#27D3B3"/>
</svg>
