<svg width="61" height="53" viewBox="0 0 61 53" fill="none" xmlns="http://www.w3.org/2000/svg">
<path d="M2.73132 36.4179C2.73132 31.268 2.73132 28.6923 4.33189 27.0931C5.93246 25.4939 8.50675 25.4926 13.6567 25.4926H19.1194C24.2693 25.4926 26.845 25.4926 28.4442 27.0931C30.0434 28.6937 30.0448 31.268 30.0448 36.4179C30.0448 41.5679 30.0448 44.1435 28.4442 45.7427C26.8436 47.3419 24.2693 47.3433 19.1194 47.3433H13.6567C8.50675 47.3433 5.93109 47.3433 4.33189 45.7427C2.73269 44.1422 2.73132 41.5679 2.73132 36.4179Z" stroke="#27D3B3" stroke-width="1.5"/>
<path d="M13.6567 41.8806H8.19401M19.1194 41.8806H17.0709M2.73132 33.6866H30.0448" stroke="#27D3B3" stroke-width="1.5" stroke-linecap="round"/>
<path d="M30.5449 40.8943C29.6886 40.8943 28.9742 40.608 28.4017 40.0355C27.8291 39.463 27.5423 38.7486 27.541 37.8923V6.71966C27.541 5.8646 27.8279 5.15081 28.4017 4.57829C28.9754 4.00577 29.6898 3.71889 30.5449 3.71765H46.845C47.7 3.71765 48.4138 4.00453 48.9863 4.57829C49.5589 5.15205 49.8457 5.86646 49.847 6.72152V37.8923C49.847 38.7473 49.5607 39.4617 48.9882 40.0355C48.4157 40.6092 47.7007 40.8955 46.8431 40.8943H30.5449ZM29.3998 32.6002V37.8904C29.3998 38.1767 29.5188 38.4394 29.7567 38.6785C29.9947 38.9177 30.2568 39.0367 30.543 39.0354H46.845C47.13 39.0354 47.3921 38.9165 47.6313 38.6785C47.8704 38.4406 47.9894 38.1779 47.9882 37.8904V32.6002H29.3998ZM38.694 37.2472C39.0782 37.2472 39.4127 37.1047 39.6978 36.8197C39.9828 36.5347 40.1253 36.2007 40.1253 35.8178C40.1253 35.4349 39.9828 35.1003 39.6978 34.814C39.4127 34.5278 39.0782 34.3859 38.694 34.3884C38.3098 34.3908 37.9753 34.5333 37.6902 34.8159C37.4052 35.0984 37.2627 35.433 37.2627 35.8197C37.2627 36.2063 37.4052 36.5403 37.6902 36.8216C37.9753 37.1029 38.3098 37.2435 38.694 37.2472ZM29.3998 30.7432H47.9882V10.2236H29.3998V30.7432ZM29.3998 8.36473H47.9882V6.71966C47.9882 6.43464 47.8692 6.17255 47.6313 5.93338C47.3933 5.69421 47.1306 5.57524 46.8431 5.57648H30.5449C30.2586 5.57648 29.9959 5.69545 29.7567 5.93338C29.5176 6.17131 29.3986 6.43402 29.3998 6.72152V8.36473Z" fill="#27D3B3"/>
</svg>
