<svg width="373" height="512" viewBox="0 0 373 512" fill="none" xmlns="http://www.w3.org/2000/svg">
<g filter="url(#filter0_d_93_124)">
<rect x="4" width="365" height="503.839" rx="8" fill="white" shape-rendering="crispEdges"/>
<mask id="path-2-inside-1_93_124" fill="white">
<path d="M13 20H360V64H13V20Z"/>
</mask>
<path d="M360 63H13V65H360V63Z" fill="#F3F3F3" mask="url(#path-2-inside-1_93_124)"/>
<path d="M16.4773 43H11.1009V28.4545H16.4702C17.9522 28.4545 19.2282 28.7457 20.2983 29.3281C21.3731 29.9058 22.2017 30.7391 22.7841 31.8281C23.3665 32.9124 23.6577 34.2098 23.6577 35.7202C23.6577 37.2353 23.3665 38.5374 22.7841 39.6264C22.2064 40.7154 21.3802 41.5511 20.3054 42.1335C19.2306 42.7112 17.9545 43 16.4773 43ZM14.6165 40.0028H16.3423C17.1567 40.0028 17.8456 39.8655 18.4091 39.5909C18.9773 39.3116 19.4058 38.8594 19.6946 38.2344C19.9882 37.6046 20.1349 36.7666 20.1349 35.7202C20.1349 34.6738 19.9882 33.8404 19.6946 33.2202C19.401 32.5952 18.9678 32.1454 18.3949 31.8707C17.8267 31.5914 17.1259 31.4517 16.2926 31.4517H14.6165V40.0028ZM25.7102 43V32.0909H29.1832V43H25.7102ZM27.4503 30.8196C26.9626 30.8196 26.5436 30.6586 26.1932 30.3366C25.8428 30.0099 25.6676 29.617 25.6676 29.1577C25.6676 28.7031 25.8428 28.3149 26.1932 27.9929C26.5436 27.6662 26.9626 27.5028 27.4503 27.5028C27.9427 27.5028 28.3617 27.6662 28.7074 27.9929C29.0578 28.3149 29.233 28.7031 29.233 29.1577C29.233 29.617 29.0578 30.0099 28.7074 30.3366C28.3617 30.6586 27.9427 30.8196 27.4503 30.8196ZM40.918 35.4219L37.729 35.5071C37.6959 35.2798 37.6059 35.0786 37.4592 34.9034C37.3124 34.7235 37.1206 34.5838 36.8839 34.4844C36.6519 34.3802 36.382 34.3281 36.0742 34.3281C35.6718 34.3281 35.3285 34.4086 35.0444 34.5696C34.765 34.7306 34.6277 34.9484 34.6325 35.223C34.6277 35.4361 34.7129 35.6207 34.8881 35.777C35.0681 35.9332 35.3877 36.0587 35.8469 36.1534L37.9492 36.5511C39.0382 36.7595 39.8479 37.1051 40.3782 37.5881C40.9132 38.071 41.1831 38.7102 41.1879 39.5057C41.1831 40.2538 40.9606 40.9048 40.5202 41.4588C40.0846 42.0128 39.488 42.4437 38.7305 42.7514C37.9729 43.0545 37.1064 43.206 36.131 43.206C34.5733 43.206 33.3446 42.8864 32.445 42.2472C31.5501 41.6032 31.0387 40.7415 30.9109 39.6619L34.3413 39.5767C34.417 39.9744 34.6135 40.2775 34.9308 40.4858C35.248 40.6941 35.6528 40.7983 36.1452 40.7983C36.5903 40.7983 36.9525 40.7154 37.2319 40.5497C37.5112 40.384 37.6533 40.1638 37.658 39.8892C37.6533 39.643 37.5444 39.4465 37.3313 39.2997C37.1183 39.1482 36.7844 39.0298 36.3299 38.9446L34.4265 38.5824C33.3327 38.3835 32.5183 38.0166 31.9833 37.4815C31.4483 36.9418 31.1831 36.2552 31.1879 35.4219C31.1831 34.6927 31.3772 34.0701 31.7702 33.554C32.1632 33.0331 32.7219 32.6354 33.4464 32.3608C34.1708 32.0862 35.0254 31.9489 36.0103 31.9489C37.4876 31.9489 38.6523 32.259 39.5046 32.8793C40.3569 33.4948 40.828 34.3423 40.918 35.4219ZM49.0554 32.0909V34.6477H42.1733V32.0909H49.0554ZM43.6151 29.4773H47.0881V39.5696C47.0881 39.7827 47.1212 39.9555 47.1875 40.0881C47.2585 40.2159 47.3603 40.3082 47.4929 40.3651C47.6255 40.4171 47.7841 40.4432 47.9688 40.4432C48.1013 40.4432 48.241 40.4313 48.3878 40.4077C48.5393 40.3793 48.6529 40.3556 48.7287 40.3366L49.2543 42.8438C49.0885 42.8911 48.8542 42.9503 48.5511 43.0213C48.2528 43.0923 47.8954 43.1373 47.4787 43.1562C46.6643 43.1941 45.9659 43.0994 45.3835 42.8722C44.8059 42.6402 44.3632 42.2803 44.0554 41.7926C43.7524 41.3049 43.6056 40.6918 43.6151 39.9531V29.4773ZM50.8274 43V32.0909H54.201V34.0795H54.3146C54.5135 33.3598 54.8378 32.8248 55.2876 32.4744C55.7375 32.1193 56.2607 31.9418 56.8572 31.9418C57.0182 31.9418 57.1839 31.9536 57.3544 31.9773C57.5249 31.9962 57.6835 32.027 57.8303 32.0696V35.0881C57.6645 35.0312 57.4467 34.9863 57.1768 34.9531C56.9117 34.92 56.675 34.9034 56.4666 34.9034C56.0547 34.9034 55.683 34.9957 55.3516 35.1804C55.0249 35.3603 54.7668 35.6136 54.5774 35.9403C54.3928 36.2623 54.3004 36.6411 54.3004 37.0767V43H50.8274ZM59.2454 43V32.0909H62.7184V43H59.2454ZM60.9854 30.8196C60.4978 30.8196 60.0787 30.6586 59.7283 30.3366C59.378 30.0099 59.2028 29.617 59.2028 29.1577C59.2028 28.7031 59.378 28.3149 59.7283 27.9929C60.0787 27.6662 60.4978 27.5028 60.9854 27.5028C61.4779 27.5028 61.8969 27.6662 62.2425 27.9929C62.5929 28.3149 62.7681 28.7031 62.7681 29.1577C62.7681 29.617 62.5929 30.0099 62.2425 30.3366C61.8969 30.6586 61.4779 30.8196 60.9854 30.8196ZM64.929 43V28.4545H68.402V33.9588H68.473C68.6151 33.6274 68.8163 33.3078 69.0767 33C69.3419 32.6922 69.678 32.4413 70.0852 32.2472C70.4972 32.0483 70.9896 31.9489 71.5625 31.9489C72.3201 31.9489 73.0279 32.1477 73.6861 32.5455C74.349 32.9432 74.884 33.5563 75.2912 34.3849C75.6984 35.2135 75.902 36.2694 75.902 37.5526C75.902 38.7884 75.7055 39.8229 75.3125 40.6562C74.9242 41.4896 74.3987 42.1146 73.7358 42.5312C73.0777 42.9479 72.3461 43.1562 71.5412 43.1562C70.992 43.1562 70.5161 43.0663 70.1136 42.8864C69.7112 42.7064 69.3726 42.4697 69.098 42.1761C68.8281 41.8826 68.6198 41.5677 68.473 41.2315H68.3665V43H64.929ZM68.331 37.5455C68.331 38.1326 68.4091 38.6439 68.5653 39.0795C68.7263 39.5152 68.956 39.8537 69.2543 40.0952C69.5573 40.3319 69.9195 40.4503 70.3409 40.4503C70.767 40.4503 71.1293 40.3319 71.4276 40.0952C71.7259 39.8537 71.9508 39.5152 72.1023 39.0795C72.2585 38.6439 72.3366 38.1326 72.3366 37.5455C72.3366 36.9583 72.2585 36.4493 72.1023 36.0185C71.9508 35.5876 71.7259 35.2538 71.4276 35.017C71.134 34.7803 70.7718 34.6619 70.3409 34.6619C69.9148 34.6619 69.5526 34.7779 69.2543 35.0099C68.956 35.242 68.7263 35.5734 68.5653 36.0043C68.4091 36.4351 68.331 36.9489 68.331 37.5455ZM84.7603 38.2912V32.0909H88.2262V43H84.9165V40.9688H84.8029C84.5614 41.6364 84.1495 42.1667 83.5671 42.5597C82.9895 42.9479 82.2911 43.142 81.4719 43.142C80.7286 43.142 80.0752 42.9716 79.5117 42.6307C78.9483 42.2898 78.5103 41.8139 78.1978 41.2031C77.8853 40.5876 77.7267 39.8679 77.7219 39.044V32.0909H81.195V38.3622C81.1997 38.9541 81.3559 39.4205 81.6637 39.7614C81.9715 40.1023 82.3905 40.2727 82.9208 40.2727C83.2665 40.2727 83.5766 40.197 83.8512 40.0455C84.1306 39.8892 84.3507 39.6643 84.5117 39.3707C84.6774 39.0724 84.7603 38.7126 84.7603 38.2912ZM90.4368 43V32.0909H93.9098V43H90.4368ZM92.1768 30.8196C91.6892 30.8196 91.2701 30.6586 90.9197 30.3366C90.5694 30.0099 90.3942 29.617 90.3942 29.1577C90.3942 28.7031 90.5694 28.3149 90.9197 27.9929C91.2701 27.6662 91.6892 27.5028 92.1768 27.5028C92.6693 27.5028 93.0883 27.6662 93.4339 27.9929C93.7843 28.3149 93.9595 28.7031 93.9595 29.1577C93.9595 29.617 93.7843 30.0099 93.4339 30.3366C93.0883 30.6586 92.6693 30.8196 92.1768 30.8196ZM101.213 43.206C100.062 43.206 99.0749 42.9692 98.2511 42.4957C97.4319 42.0223 96.8022 41.3641 96.3619 40.5213C95.9215 39.6738 95.7013 38.6937 95.7013 37.581C95.7013 36.4635 95.9215 35.4834 96.3619 34.6406C96.8069 33.7931 97.439 33.1326 98.2582 32.6591C99.082 32.1856 100.065 31.9489 101.206 31.9489C102.214 31.9489 103.092 32.1312 103.841 32.4957C104.593 32.8603 105.181 33.3764 105.602 34.044C106.028 34.7069 106.253 35.4858 106.277 36.3807H103.031C102.965 35.822 102.775 35.384 102.463 35.0668C102.155 34.7495 101.752 34.5909 101.255 34.5909C100.853 34.5909 100.5 34.7045 100.197 34.9318C99.8941 35.1544 99.6573 35.4858 99.4869 35.9261C99.3211 36.3617 99.2383 36.9015 99.2383 37.5455C99.2383 38.1894 99.3211 38.7339 99.4869 39.179C99.6573 39.6193 99.8941 39.9531 100.197 40.1804C100.5 40.4029 100.853 40.5142 101.255 40.5142C101.577 40.5142 101.861 40.4455 102.108 40.3082C102.359 40.1709 102.565 39.9697 102.725 39.7045C102.886 39.4347 102.988 39.108 103.031 38.7244H106.277C106.243 39.6241 106.019 40.41 105.602 41.0824C105.19 41.7547 104.61 42.2779 103.862 42.652C103.118 43.0213 102.235 43.206 101.213 43.206ZM100.531 42.9432H101.923L101.809 43.5824C102.33 43.6581 102.747 43.8452 103.059 44.1435C103.372 44.4465 103.53 44.8395 103.535 45.3224C103.54 46.0611 103.187 46.6435 102.477 47.0696C101.771 47.5005 100.789 47.7159 99.5295 47.7159L99.5153 46.2884C100.164 46.2884 100.666 46.215 101.021 46.0682C101.376 45.9214 101.561 45.6989 101.575 45.4006C101.589 45.1259 101.483 44.9058 101.255 44.7401C101.028 44.5791 100.675 44.4678 100.197 44.4062L100.531 42.9432ZM111.129 43.1847C110.433 43.1847 109.815 43.0687 109.276 42.8366C108.741 42.5999 108.317 42.2448 108.004 41.7713C107.696 41.2931 107.543 40.6941 107.543 39.9744C107.543 39.3684 107.649 38.857 107.862 38.4403C108.075 38.0237 108.369 37.6851 108.743 37.4247C109.117 37.1643 109.548 36.9678 110.036 36.8352C110.523 36.6979 111.044 36.6056 111.598 36.5582C112.218 36.5014 112.718 36.4422 113.097 36.3807C113.475 36.3144 113.75 36.2221 113.92 36.1037C114.096 35.9806 114.183 35.8078 114.183 35.5852V35.5497C114.183 35.1851 114.058 34.9034 113.807 34.7045C113.556 34.5057 113.217 34.4062 112.791 34.4062C112.332 34.4062 111.963 34.5057 111.683 34.7045C111.404 34.9034 111.226 35.178 111.151 35.5284L107.947 35.4148C108.042 34.7519 108.286 34.16 108.679 33.6392C109.077 33.1136 109.621 32.7017 110.312 32.4034C111.009 32.1004 111.844 31.9489 112.82 31.9489C113.516 31.9489 114.157 32.0317 114.744 32.1974C115.331 32.3584 115.843 32.5952 116.278 32.9077C116.714 33.2154 117.05 33.5942 117.287 34.044C117.528 34.4938 117.649 35.0076 117.649 35.5852V43H114.382V41.4801H114.297C114.103 41.8494 113.854 42.1619 113.551 42.4176C113.253 42.6733 112.9 42.8651 112.493 42.9929C112.09 43.1207 111.636 43.1847 111.129 43.1847ZM112.202 40.9119C112.576 40.9119 112.912 40.8362 113.21 40.6847C113.513 40.5331 113.755 40.3248 113.935 40.0597C114.115 39.7898 114.205 39.4773 114.205 39.1222V38.0852C114.105 38.1373 113.984 38.1847 113.842 38.2273C113.705 38.2699 113.554 38.3101 113.388 38.348C113.222 38.3859 113.052 38.419 112.876 38.4474C112.701 38.4759 112.533 38.5019 112.372 38.5256C112.045 38.5777 111.766 38.6581 111.534 38.767C111.307 38.8759 111.132 39.018 111.009 39.1932C110.89 39.3636 110.831 39.5672 110.831 39.804C110.831 40.1638 110.959 40.4384 111.214 40.6278C111.475 40.8172 111.804 40.9119 112.202 40.9119ZM110.952 30.7415L109.141 30.7273C109.141 29.7661 109.37 29.0393 109.83 28.5469C110.289 28.0545 110.848 27.8059 111.506 27.8011C111.856 27.8011 112.154 27.858 112.401 27.9716C112.652 28.0805 112.872 28.2107 113.061 28.3622C113.255 28.509 113.435 28.6392 113.601 28.7528C113.771 28.8617 113.951 28.9162 114.141 28.9162C114.411 28.9115 114.609 28.812 114.737 28.6179C114.87 28.419 114.938 28.1515 114.943 27.8153L116.726 27.8366C116.712 28.7884 116.477 29.5152 116.023 30.017C115.568 30.5142 115.014 30.7652 114.361 30.7699C114.001 30.7746 113.696 30.7202 113.445 30.6065C113.194 30.4929 112.976 30.3627 112.791 30.2159C112.611 30.0691 112.438 29.9413 112.273 29.8324C112.107 29.7187 111.925 29.6619 111.726 29.6619C111.494 29.6619 111.307 29.7566 111.165 29.946C111.023 30.1307 110.952 30.3958 110.952 30.7415ZM124.865 43.206C123.719 43.206 122.734 42.9716 121.911 42.5028C121.091 42.0294 120.459 41.3712 120.014 40.5284C119.574 39.6809 119.354 38.6984 119.354 37.581C119.354 36.4588 119.574 35.4763 120.014 34.6335C120.459 33.786 121.091 33.1278 121.911 32.6591C122.734 32.1856 123.719 31.9489 124.865 31.9489C126.011 31.9489 126.993 32.1856 127.812 32.6591C128.636 33.1278 129.268 33.786 129.709 34.6335C130.154 35.4763 130.376 36.4588 130.376 37.581C130.376 38.6984 130.154 39.6809 129.709 40.5284C129.268 41.3712 128.636 42.0294 127.812 42.5028C126.993 42.9716 126.011 43.206 124.865 43.206ZM124.886 40.5852C125.303 40.5852 125.656 40.4574 125.945 40.2017C126.233 39.946 126.454 39.5909 126.605 39.1364C126.761 38.6818 126.839 38.1562 126.839 37.5597C126.839 36.9536 126.761 36.4233 126.605 35.9688C126.454 35.5142 126.233 35.1591 125.945 34.9034C125.656 34.6477 125.303 34.5199 124.886 34.5199C124.455 34.5199 124.091 34.6477 123.793 34.9034C123.499 35.1591 123.274 35.5142 123.118 35.9688C122.966 36.4233 122.891 36.9536 122.891 37.5597C122.891 38.1562 122.966 38.6818 123.118 39.1364C123.274 39.5909 123.499 39.946 123.793 40.2017C124.091 40.4574 124.455 40.5852 124.886 40.5852ZM141.829 43H136.452V28.4545H141.822C143.304 28.4545 144.58 28.7457 145.65 29.3281C146.725 29.9058 147.553 30.7391 148.136 31.8281C148.718 32.9124 149.009 34.2098 149.009 35.7202C149.009 37.2353 148.718 38.5374 148.136 39.6264C147.558 40.7154 146.732 41.5511 145.657 42.1335C144.582 42.7112 143.306 43 141.829 43ZM139.968 40.0028H141.694C142.508 40.0028 143.197 39.8655 143.761 39.5909C144.329 39.3116 144.757 38.8594 145.046 38.2344C145.34 37.6046 145.487 36.7666 145.487 35.7202C145.487 34.6738 145.34 33.8404 145.046 33.2202C144.753 32.5952 144.319 32.1454 143.746 31.8707C143.178 31.5914 142.478 31.4517 141.644 31.4517H139.968V40.0028ZM156.161 43.206C155.02 43.206 154.035 42.9811 153.207 42.5312C152.383 42.0767 151.748 41.4304 151.303 40.5923C150.863 39.7495 150.643 38.7481 150.643 37.5881C150.643 36.4612 150.865 35.4763 151.31 34.6335C151.755 33.786 152.383 33.1278 153.192 32.6591C154.002 32.1856 154.956 31.9489 156.055 31.9489C156.831 31.9489 157.541 32.0696 158.185 32.3111C158.829 32.5526 159.386 32.91 159.854 33.3835C160.323 33.857 160.688 34.4418 160.948 35.1378C161.209 35.8291 161.339 36.6222 161.339 37.517V38.3835H151.857V36.3665H158.107C158.103 35.9972 158.015 35.6681 157.844 35.3793C157.674 35.0904 157.44 34.8655 157.141 34.7045C156.848 34.5388 156.509 34.456 156.126 34.456C155.737 34.456 155.389 34.5436 155.082 34.7188C154.774 34.8892 154.53 35.1236 154.35 35.4219C154.17 35.7154 154.076 36.0492 154.066 36.4233V38.4759C154.066 38.9209 154.154 39.3116 154.329 39.6477C154.504 39.9792 154.753 40.2372 155.075 40.4219C155.397 40.6065 155.78 40.6989 156.225 40.6989C156.533 40.6989 156.812 40.6562 157.063 40.571C157.314 40.4858 157.53 40.3603 157.71 40.1946C157.889 40.0289 158.024 39.8253 158.114 39.5838L161.303 39.6761C161.171 40.3911 160.879 41.0137 160.43 41.544C159.985 42.0696 159.4 42.4792 158.675 42.7727C157.951 43.0616 157.113 43.206 156.161 43.206ZM170.712 28.4545L173.965 39.108H174.086L177.338 28.4545H181.273L176.365 43H171.685L166.777 28.4545H170.712ZM186.63 43.206C185.489 43.206 184.504 42.9811 183.675 42.5312C182.852 42.0767 182.217 41.4304 181.772 40.5923C181.332 39.7495 181.112 38.7481 181.112 37.5881C181.112 36.4612 181.334 35.4763 181.779 34.6335C182.224 33.786 182.852 33.1278 183.661 32.6591C184.471 32.1856 185.425 31.9489 186.523 31.9489C187.3 31.9489 188.01 32.0696 188.654 32.3111C189.298 32.5526 189.854 32.91 190.323 33.3835C190.792 33.857 191.156 34.4418 191.417 35.1378C191.677 35.8291 191.808 36.6222 191.808 37.517V38.3835H182.326V36.3665H188.576C188.571 35.9972 188.484 35.6681 188.313 35.3793C188.143 35.0904 187.908 34.8655 187.61 34.7045C187.317 34.5388 186.978 34.456 186.594 34.456C186.206 34.456 185.858 34.5436 185.55 34.7188C185.243 34.8892 184.999 35.1236 184.819 35.4219C184.639 35.7154 184.544 36.0492 184.535 36.4233V38.4759C184.535 38.9209 184.622 39.3116 184.798 39.6477C184.973 39.9792 185.221 40.2372 185.543 40.4219C185.865 40.6065 186.249 40.6989 186.694 40.6989C187.002 40.6989 187.281 40.6562 187.532 40.571C187.783 40.4858 187.998 40.3603 188.178 40.1946C188.358 40.0289 188.493 39.8253 188.583 39.5838L191.772 39.6761C191.639 40.3911 191.348 41.0137 190.898 41.544C190.453 42.0696 189.869 42.4792 189.144 42.7727C188.42 43.0616 187.582 43.206 186.63 43.206ZM197.054 36.7784V43H193.581V32.0909H196.884V34.0938H197.005C197.246 33.4261 197.658 32.9029 198.24 32.5241C198.823 32.1406 199.516 31.9489 200.321 31.9489C201.088 31.9489 201.754 32.1217 202.317 32.4673C202.885 32.8082 203.326 33.2865 203.638 33.902C203.955 34.5128 204.112 35.2277 204.107 36.0469V43H200.634V36.7287C200.639 36.1226 200.485 35.6491 200.172 35.3082C199.864 34.9673 199.436 34.7969 198.887 34.7969C198.522 34.7969 198.2 34.8774 197.921 35.0384C197.646 35.1946 197.433 35.4195 197.282 35.7131C197.135 36.0066 197.059 36.3617 197.054 36.7784ZM210.241 43.1562C209.437 43.1562 208.705 42.9479 208.047 42.5312C207.389 42.1146 206.863 41.4896 206.47 40.6562C206.077 39.8229 205.881 38.7884 205.881 37.5526C205.881 36.2694 206.084 35.2135 206.491 34.3849C206.899 33.5563 207.431 32.9432 208.089 32.5455C208.752 32.1477 209.465 31.9489 210.227 31.9489C210.8 31.9489 211.29 32.0483 211.697 32.2472C212.105 32.4413 212.441 32.6922 212.706 33C212.971 33.3078 213.172 33.6274 213.31 33.9588H213.381V28.4545H216.854V43H213.416V41.2315H213.31C213.163 41.5677 212.955 41.8826 212.685 42.1761C212.415 42.4697 212.076 42.7064 211.669 42.8864C211.267 43.0663 210.791 43.1562 210.241 43.1562ZM211.449 40.4503C211.87 40.4503 212.23 40.3319 212.528 40.0952C212.827 39.8537 213.056 39.5152 213.217 39.0795C213.378 38.6439 213.459 38.1326 213.459 37.5455C213.459 36.9489 213.378 36.4351 213.217 36.0043C213.061 35.5734 212.831 35.242 212.528 35.0099C212.23 34.7779 211.87 34.6619 211.449 34.6619C211.018 34.6619 210.653 34.7803 210.355 35.017C210.057 35.2538 209.83 35.5876 209.673 36.0185C209.522 36.4493 209.446 36.9583 209.446 37.5455C209.446 38.1326 209.524 38.6439 209.68 39.0795C209.837 39.5152 210.062 39.8537 210.355 40.0952C210.653 40.3319 211.018 40.4503 211.449 40.4503ZM222.125 43.1847C221.429 43.1847 220.811 43.0687 220.272 42.8366C219.737 42.5999 219.313 42.2448 219 41.7713C218.693 41.2931 218.539 40.6941 218.539 39.9744C218.539 39.3684 218.645 38.857 218.858 38.4403C219.071 38.0237 219.365 37.6851 219.739 37.4247C220.113 37.1643 220.544 36.9678 221.032 36.8352C221.519 36.6979 222.04 36.6056 222.594 36.5582C223.214 36.5014 223.714 36.4422 224.093 36.3807C224.471 36.3144 224.746 36.2221 224.917 36.1037C225.092 35.9806 225.179 35.8078 225.179 35.5852V35.5497C225.179 35.1851 225.054 34.9034 224.803 34.7045C224.552 34.5057 224.213 34.4062 223.787 34.4062C223.328 34.4062 222.959 34.5057 222.679 34.7045C222.4 34.9034 222.222 35.178 222.147 35.5284L218.944 35.4148C219.038 34.7519 219.282 34.16 219.675 33.6392C220.073 33.1136 220.617 32.7017 221.309 32.4034C222.005 32.1004 222.84 31.9489 223.816 31.9489C224.512 31.9489 225.153 32.0317 225.74 32.1974C226.328 32.3584 226.839 32.5952 227.275 32.9077C227.71 33.2154 228.046 33.5942 228.283 34.044C228.525 34.4938 228.645 35.0076 228.645 35.5852V43H225.378V41.4801H225.293C225.099 41.8494 224.85 42.1619 224.547 42.4176C224.249 42.6733 223.896 42.8651 223.489 42.9929C223.087 43.1207 222.632 43.1847 222.125 43.1847ZM223.198 40.9119C223.572 40.9119 223.908 40.8362 224.206 40.6847C224.509 40.5331 224.751 40.3248 224.931 40.0597C225.111 39.7898 225.201 39.4773 225.201 39.1222V38.0852C225.101 38.1373 224.98 38.1847 224.838 38.2273C224.701 38.2699 224.55 38.3101 224.384 38.348C224.218 38.3859 224.048 38.419 223.873 38.4474C223.697 38.4759 223.529 38.5019 223.368 38.5256C223.042 38.5777 222.762 38.6581 222.53 38.767C222.303 38.8759 222.128 39.018 222.005 39.1932C221.886 39.3636 221.827 39.5672 221.827 39.804C221.827 40.1638 221.955 40.4384 222.211 40.6278C222.471 40.8172 222.8 40.9119 223.198 40.9119ZM240.293 35.4219L237.104 35.5071C237.071 35.2798 236.981 35.0786 236.834 34.9034C236.687 34.7235 236.496 34.5838 236.259 34.4844C236.027 34.3802 235.757 34.3281 235.449 34.3281C235.047 34.3281 234.703 34.4086 234.419 34.5696C234.14 34.7306 234.003 34.9484 234.007 35.223C234.003 35.4361 234.088 35.6207 234.263 35.777C234.443 35.9332 234.763 36.0587 235.222 36.1534L237.324 36.5511C238.413 36.7595 239.223 37.1051 239.753 37.5881C240.288 38.071 240.558 38.7102 240.563 39.5057C240.558 40.2538 240.336 40.9048 239.895 41.4588C239.46 42.0128 238.863 42.4437 238.105 42.7514C237.348 43.0545 236.481 43.206 235.506 43.206C233.948 43.206 232.72 42.8864 231.82 42.2472C230.925 41.6032 230.414 40.7415 230.286 39.6619L233.716 39.5767C233.792 39.9744 233.989 40.2775 234.306 40.4858C234.623 40.6941 235.028 40.7983 235.52 40.7983C235.965 40.7983 236.328 40.7154 236.607 40.5497C236.886 40.384 237.028 40.1638 237.033 39.8892C237.028 39.643 236.919 39.4465 236.706 39.2997C236.493 39.1482 236.159 39.0298 235.705 38.9446L233.801 38.5824C232.708 38.3835 231.893 38.0166 231.358 37.4815C230.823 36.9418 230.558 36.2552 230.563 35.4219C230.558 34.6927 230.752 34.0701 231.145 33.554C231.538 33.0331 232.097 32.6354 232.821 32.3608C233.546 32.0862 234.4 31.9489 235.385 31.9489C236.863 31.9489 238.027 32.259 238.88 32.8793C239.732 33.4948 240.203 34.3423 240.293 35.4219ZM246.57 43V28.4545H252.578C253.667 28.4545 254.607 28.6676 255.398 29.0938C256.193 29.5152 256.806 30.1046 257.237 30.8622C257.668 31.6151 257.884 32.491 257.884 33.4901C257.884 34.4938 257.663 35.3722 257.223 36.125C256.787 36.8731 256.165 37.4531 255.355 37.8651C254.545 38.277 253.584 38.483 252.472 38.483H248.764V35.7131H251.818C252.348 35.7131 252.791 35.6207 253.146 35.4361C253.506 35.2514 253.778 34.9934 253.963 34.6619C254.148 34.3258 254.24 33.9351 254.24 33.4901C254.24 33.0402 254.148 32.652 253.963 32.3253C253.778 31.9938 253.506 31.7382 253.146 31.5582C252.786 31.3783 252.344 31.2884 251.818 31.2884H250.085V43H246.57ZM264.494 43.206C263.348 43.206 262.363 42.9716 261.539 42.5028C260.72 42.0294 260.088 41.3712 259.643 40.5284C259.203 39.6809 258.983 38.6984 258.983 37.581C258.983 36.4588 259.203 35.4763 259.643 34.6335C260.088 33.786 260.72 33.1278 261.539 32.6591C262.363 32.1856 263.348 31.9489 264.494 31.9489C265.64 31.9489 266.622 32.1856 267.441 32.6591C268.265 33.1278 268.897 33.786 269.338 34.6335C269.783 35.4763 270.005 36.4588 270.005 37.581C270.005 38.6984 269.783 39.6809 269.338 40.5284C268.897 41.3712 268.265 42.0294 267.441 42.5028C266.622 42.9716 265.64 43.206 264.494 43.206ZM264.515 40.5852C264.932 40.5852 265.285 40.4574 265.574 40.2017C265.862 39.946 266.083 39.5909 266.234 39.1364C266.39 38.6818 266.468 38.1562 266.468 37.5597C266.468 36.9536 266.39 36.4233 266.234 35.9688C266.083 35.5142 265.862 35.1591 265.574 34.9034C265.285 34.6477 264.932 34.5199 264.515 34.5199C264.084 34.5199 263.72 34.6477 263.422 34.9034C263.128 35.1591 262.903 35.5142 262.747 35.9688C262.595 36.4233 262.52 36.9536 262.52 37.5597C262.52 38.1562 262.595 38.6818 262.747 39.1364C262.903 39.5909 263.128 39.946 263.422 40.2017C263.72 40.4574 264.084 40.5852 264.515 40.5852ZM271.784 43V32.0909H275.158V34.0795H275.272C275.471 33.3598 275.795 32.8248 276.245 32.4744C276.694 32.1193 277.218 31.9418 277.814 31.9418C277.975 31.9418 278.141 31.9536 278.311 31.9773C278.482 31.9962 278.641 32.027 278.787 32.0696V35.0881C278.622 35.0312 278.404 34.9863 278.134 34.9531C277.869 34.92 277.632 34.9034 277.424 34.9034C277.012 34.9034 276.64 34.9957 276.309 35.1804C275.982 35.3603 275.724 35.6136 275.534 35.9403C275.35 36.2623 275.257 36.6411 275.257 37.0767V43H271.784ZM284.499 43V28.4545H290.508C291.597 28.4545 292.537 28.6676 293.327 29.0938C294.123 29.5152 294.736 30.1046 295.167 30.8622C295.598 31.6151 295.813 32.491 295.813 33.4901C295.813 34.4938 295.593 35.3722 295.153 36.125C294.717 36.8731 294.094 37.4531 293.285 37.8651C292.475 38.277 291.514 38.483 290.401 38.483H286.694V35.7131H289.748C290.278 35.7131 290.721 35.6207 291.076 35.4361C291.436 35.2514 291.708 34.9934 291.893 34.6619C292.077 34.3258 292.17 33.9351 292.17 33.4901C292.17 33.0402 292.077 32.652 291.893 32.3253C291.708 31.9938 291.436 31.7382 291.076 31.5582C290.716 31.3783 290.273 31.2884 289.748 31.2884H288.015V43H284.499ZM297.546 43V32.0909H300.92V34.0795H301.033C301.232 33.3598 301.557 32.8248 302.006 32.4744C302.456 32.1193 302.979 31.9418 303.576 31.9418C303.737 31.9418 303.903 31.9536 304.073 31.9773C304.244 31.9962 304.402 32.027 304.549 32.0696V35.0881C304.383 35.0312 304.165 34.9863 303.896 34.9531C303.63 34.92 303.394 34.9034 303.185 34.9034C302.773 34.9034 302.402 34.9957 302.07 35.1804C301.744 35.3603 301.486 35.6136 301.296 35.9403C301.112 36.2623 301.019 36.6411 301.019 37.0767V43H297.546ZM310.49 43.206C309.344 43.206 308.359 42.9716 307.536 42.5028C306.716 42.0294 306.084 41.3712 305.639 40.5284C305.199 39.6809 304.979 38.6984 304.979 37.581C304.979 36.4588 305.199 35.4763 305.639 34.6335C306.084 33.786 306.716 33.1278 307.536 32.6591C308.359 32.1856 309.344 31.9489 310.49 31.9489C311.636 31.9489 312.618 32.1856 313.438 32.6591C314.261 33.1278 314.893 33.786 315.334 34.6335C315.779 35.4763 316.001 36.4588 316.001 37.581C316.001 38.6984 315.779 39.6809 315.334 40.5284C314.893 41.3712 314.261 42.0294 313.438 42.5028C312.618 42.9716 311.636 43.206 310.49 43.206ZM310.511 40.5852C310.928 40.5852 311.281 40.4574 311.57 40.2017C311.858 39.946 312.079 39.5909 312.23 39.1364C312.386 38.6818 312.464 38.1562 312.464 37.5597C312.464 36.9536 312.386 36.4233 312.23 35.9688C312.079 35.5142 311.858 35.1591 311.57 34.9034C311.281 34.6477 310.928 34.5199 310.511 34.5199C310.08 34.5199 309.716 34.6477 309.418 34.9034C309.124 35.1591 308.899 35.5142 308.743 35.9688C308.591 36.4233 308.516 36.9536 308.516 37.5597C308.516 38.1562 308.591 38.6818 308.743 39.1364C308.899 39.5909 309.124 39.946 309.418 40.2017C309.716 40.4574 310.08 40.5852 310.511 40.5852ZM321.765 43.1562C320.96 43.1562 320.228 42.9479 319.57 42.5312C318.912 42.1146 318.387 41.4896 317.994 40.6562C317.601 39.8229 317.404 38.7884 317.404 37.5526C317.404 36.2694 317.608 35.2135 318.015 34.3849C318.422 33.5563 318.955 32.9432 319.613 32.5455C320.276 32.1477 320.988 31.9489 321.751 31.9489C322.324 31.9489 322.814 32.0483 323.221 32.2472C323.628 32.4413 323.964 32.6922 324.229 33C324.495 33.3078 324.696 33.6274 324.833 33.9588H324.904V28.4545H328.377V43H324.94V41.2315H324.833C324.686 41.5677 324.478 41.8826 324.208 42.1761C323.938 42.4697 323.6 42.7064 323.192 42.8864C322.79 43.0663 322.314 43.1562 321.765 43.1562ZM322.972 40.4503C323.394 40.4503 323.754 40.3319 324.052 40.0952C324.35 39.8537 324.58 39.5152 324.741 39.0795C324.902 38.6439 324.982 38.1326 324.982 37.5455C324.982 36.9489 324.902 36.4351 324.741 36.0043C324.585 35.5734 324.355 35.242 324.052 35.0099C323.754 34.7779 323.394 34.6619 322.972 34.6619C322.541 34.6619 322.177 34.7803 321.879 35.017C321.58 35.2538 321.353 35.5876 321.197 36.0185C321.045 36.4493 320.969 36.9583 320.969 37.5455C320.969 38.1326 321.048 38.6439 321.204 39.0795C321.36 39.5152 321.585 39.8537 321.879 40.0952C322.177 40.3319 322.541 40.4503 322.972 40.4503ZM337.612 38.2912V32.0909H341.078V43H337.768V40.9688H337.654C337.413 41.6364 337.001 42.1667 336.419 42.5597C335.841 42.9479 335.143 43.142 334.324 43.142C333.58 43.142 332.927 42.9716 332.363 42.6307C331.8 42.2898 331.362 41.8139 331.049 41.2031C330.737 40.5876 330.578 39.8679 330.574 39.044V32.0909H334.047V38.3622C334.051 38.9541 334.208 39.4205 334.515 39.7614C334.823 40.1023 335.242 40.2727 335.772 40.2727C336.118 40.2727 336.428 40.197 336.703 40.0455C336.982 39.8892 337.202 39.6643 337.363 39.3707C337.529 39.0724 337.612 38.7126 337.612 38.2912ZM349.446 32.0909V34.6477H342.564V32.0909H349.446ZM344.006 29.4773H347.479V39.5696C347.479 39.7827 347.512 39.9555 347.578 40.0881C347.649 40.2159 347.751 40.3082 347.884 40.3651C348.016 40.4171 348.175 40.4432 348.359 40.4432C348.492 40.4432 348.632 40.4313 348.778 40.4077C348.93 40.3793 349.044 40.3556 349.119 40.3366L349.645 42.8438C349.479 42.8911 349.245 42.9503 348.942 43.0213C348.643 43.0923 348.286 43.1373 347.869 43.1562C347.055 43.1941 346.357 43.0994 345.774 42.8722C345.196 42.6402 344.754 42.2803 344.446 41.7926C344.143 41.3049 343.996 40.6918 344.006 39.9531V29.4773ZM356.193 43.206C355.047 43.206 354.063 42.9716 353.239 42.5028C352.42 42.0294 351.787 41.3712 351.342 40.5284C350.902 39.6809 350.682 38.6984 350.682 37.581C350.682 36.4588 350.902 35.4763 351.342 34.6335C351.787 33.786 352.42 33.1278 353.239 32.6591C354.063 32.1856 355.047 31.9489 356.193 31.9489C357.339 31.9489 358.321 32.1856 359.141 32.6591C359.964 33.1278 360.597 33.786 361.037 34.6335C361.482 35.4763 361.705 36.4588 361.705 37.581C361.705 38.6984 361.482 39.6809 361.037 40.5284C360.597 41.3712 359.964 42.0294 359.141 42.5028C358.321 42.9716 357.339 43.206 356.193 43.206ZM356.214 40.5852C356.631 40.5852 356.984 40.4574 357.273 40.2017C357.562 39.946 357.782 39.5909 357.933 39.1364C358.089 38.6818 358.168 38.1562 358.168 37.5597C358.168 36.9536 358.089 36.4233 357.933 35.9688C357.782 35.5142 357.562 35.1591 357.273 34.9034C356.984 34.6477 356.631 34.5199 356.214 34.5199C355.784 34.5199 355.419 34.6477 355.121 34.9034C354.827 35.1591 354.602 35.5142 354.446 35.9688C354.295 36.4233 354.219 36.9536 354.219 37.5597C354.219 38.1562 354.295 38.6818 354.446 39.1364C354.602 39.5909 354.827 39.946 355.121 40.2017C355.419 40.4574 355.784 40.5852 356.214 40.5852Z" fill="#191919"/>
<path d="M315 210.419C315 177.156 301.462 145.255 277.363 121.735C253.265 98.2138 220.58 85 186.5 85C152.42 85 119.735 98.2138 95.6368 121.735C71.5384 145.255 58 177.156 58 210.419L101.331 210.419C101.331 188.373 110.304 167.229 126.276 151.639C142.248 136.05 163.912 127.292 186.5 127.292C209.088 127.292 230.751 136.05 246.724 151.639C262.696 167.229 271.669 188.373 271.669 210.419H315Z" fill="#00826A"/>
<path d="M223.683 90.3656C204.517 84.7105 184.261 83.5053 164.533 86.8462C144.804 90.1872 126.149 97.9818 110.054 109.608C93.9595 121.235 80.8714 136.371 71.8338 153.811C62.7962 171.25 58.0591 190.509 58.0006 210.053L101.69 210.177C101.729 197.279 104.855 184.568 110.82 173.058C116.785 161.548 125.423 151.558 136.046 143.884C146.668 136.211 158.981 131.066 172.002 128.861C185.022 126.656 198.391 127.452 211.041 131.184L223.683 90.3656Z" fill="#51CBB4"/>
<path d="M307.308 167.677C298.518 144.01 282.634 123.473 261.723 108.736C240.812 93.9991 215.841 85.7453 190.059 85.0481L188.849 127.674C205.865 128.135 222.346 133.582 236.147 143.308C249.949 153.035 260.432 166.589 266.233 182.21L307.308 167.677Z" fill="#A0D7CA"/>
<path d="M58.0001 210C58.0001 243.263 71.5384 275.164 95.6368 298.685C119.735 322.206 152.42 335.419 186.5 335.419C220.58 335.419 253.265 322.206 277.363 298.685C301.462 275.164 315 243.263 315 210L271.669 210C271.669 232.047 262.696 253.191 246.724 268.78C230.752 284.37 209.088 293.128 186.5 293.128C163.912 293.128 142.249 284.37 126.276 268.78C110.304 253.191 101.331 232.047 101.331 210H58.0001Z" fill="#1D5E52"/>
<path d="M149.317 329.473C168.483 335.129 188.739 336.334 208.467 332.993C228.196 329.652 246.851 321.857 262.946 310.231C279.04 298.604 292.129 283.468 301.166 266.028C310.204 248.589 314.941 229.33 314.999 209.786L271.31 209.662C271.271 222.56 268.145 235.271 262.18 246.781C256.215 258.291 247.577 268.281 236.954 275.955C226.332 283.628 214.019 288.773 200.998 290.978C187.978 293.183 174.609 292.387 161.959 288.655L149.317 329.473Z" fill="#27D3B3"/>
<path d="M65.6923 252.162C74.4821 275.829 90.3657 296.366 111.277 311.103C132.188 325.84 157.159 334.094 182.941 334.791L184.151 292.165C167.135 291.704 150.654 286.257 136.853 276.531C123.051 266.804 112.568 253.25 106.767 237.629L65.6923 252.162Z" fill="#3BA48B"/>
<path d="M146.597 196.909V226H139.58V203.472H139.409L132.903 207.449V201.369L140.077 196.909H146.597ZM165.059 226.71C162.521 226.71 160.334 226.109 158.496 224.906C156.659 223.694 155.244 221.956 154.249 219.693C153.255 217.42 152.763 214.688 152.772 211.497C152.781 208.306 153.279 205.598 154.263 203.372C155.258 201.137 156.669 199.437 158.496 198.273C160.334 197.098 162.521 196.511 165.059 196.511C167.597 196.511 169.784 197.098 171.621 198.273C173.468 199.437 174.888 201.137 175.883 203.372C176.877 205.607 177.37 208.315 177.36 211.497C177.36 214.698 176.863 217.435 175.869 219.707C174.874 221.98 173.459 223.718 171.621 224.92C169.794 226.114 167.606 226.71 165.059 226.71ZM165.059 220.957C166.574 220.957 167.8 220.186 168.738 218.642C169.675 217.089 170.139 214.707 170.13 211.497C170.13 209.395 169.917 207.662 169.491 206.298C169.065 204.925 168.473 203.902 167.715 203.23C166.958 202.558 166.072 202.222 165.059 202.222C163.553 202.222 162.336 202.984 161.408 204.509C160.48 206.024 160.012 208.353 160.002 211.497C159.993 213.628 160.196 215.394 160.613 216.795C161.039 218.197 161.636 219.243 162.403 219.935C163.17 220.616 164.055 220.957 165.059 220.957ZM193.418 226.71C190.88 226.71 188.693 226.109 186.856 224.906C185.019 223.694 183.603 221.956 182.609 219.693C181.614 217.42 181.122 214.688 181.131 211.497C181.141 208.306 181.638 205.598 182.623 203.372C183.617 201.137 185.028 199.437 186.856 198.273C188.693 197.098 190.88 196.511 193.418 196.511C195.956 196.511 198.144 197.098 199.981 198.273C201.827 199.437 203.248 201.137 204.242 203.372C205.237 205.607 205.729 208.315 205.719 211.497C205.719 214.698 205.222 217.435 204.228 219.707C203.234 221.98 201.818 223.718 199.981 224.92C198.153 226.114 195.966 226.71 193.418 226.71ZM193.418 220.957C194.933 220.957 196.16 220.186 197.097 218.642C198.035 217.089 198.499 214.707 198.489 211.497C198.489 209.395 198.276 207.662 197.85 206.298C197.424 204.925 196.832 203.902 196.075 203.23C195.317 202.558 194.432 202.222 193.418 202.222C191.913 202.222 190.696 202.984 189.768 204.509C188.84 206.024 188.371 208.353 188.362 211.497C188.352 213.628 188.556 215.394 188.972 216.795C189.398 218.197 189.995 219.243 190.762 219.935C191.529 220.616 192.415 220.957 193.418 220.957ZM226.039 220.545V219.011C226.039 217.818 226.295 216.715 226.806 215.702C227.327 214.688 228.08 213.874 229.065 213.259C230.049 212.643 231.252 212.335 232.673 212.335C234.121 212.335 235.338 212.643 236.323 213.259C237.317 213.865 238.066 214.674 238.567 215.688C239.079 216.691 239.335 217.799 239.335 219.011V220.545C239.335 221.739 239.079 222.842 238.567 223.855C238.056 224.868 237.303 225.683 236.309 226.298C235.315 226.914 234.103 227.222 232.673 227.222C231.233 227.222 230.021 226.914 229.036 226.298C228.051 225.683 227.303 224.868 226.792 223.855C226.29 222.842 226.039 221.739 226.039 220.545ZM230.57 219.011V220.545C230.57 221.152 230.717 221.734 231.011 222.293C231.314 222.851 231.868 223.131 232.673 223.131C233.496 223.131 234.05 222.861 234.335 222.321C234.619 221.772 234.761 221.18 234.761 220.545V219.011C234.761 218.377 234.623 217.78 234.349 217.222C234.084 216.653 233.525 216.369 232.673 216.369C231.877 216.369 231.328 216.653 231.025 217.222C230.722 217.78 230.57 218.377 230.57 219.011ZM210.954 203.898V202.364C210.954 201.152 211.214 200.044 211.735 199.04C212.265 198.027 213.023 197.217 214.008 196.611C214.993 195.995 216.186 195.688 217.587 195.688C219.036 195.688 220.253 195.995 221.238 196.611C222.232 197.217 222.985 198.027 223.496 199.04C224.008 200.044 224.263 201.152 224.263 202.364V203.898C224.263 205.11 224.003 206.218 223.482 207.222C222.971 208.225 222.218 209.026 221.224 209.622C220.229 210.219 219.017 210.517 217.587 210.517C216.157 210.517 214.945 210.214 213.951 209.608C212.966 209.002 212.218 208.197 211.707 207.193C211.205 206.189 210.954 205.091 210.954 203.898ZM215.528 202.364V203.898C215.528 204.532 215.674 205.124 215.968 205.673C216.271 206.213 216.811 206.483 217.587 206.483C218.421 206.483 218.975 206.213 219.249 205.673C219.533 205.124 219.675 204.532 219.675 203.898V202.364C219.675 201.729 219.543 201.133 219.278 200.574C219.013 200.006 218.449 199.722 217.587 199.722C216.792 199.722 216.247 200.01 215.954 200.588C215.67 201.166 215.528 201.758 215.528 202.364ZM213.099 226L233.099 196.909H236.977L216.977 226H213.099Z" fill="#191919"/>
<path d="M79 386.839C79 390.153 76.3137 392.839 73 392.839C69.6863 392.839 67 390.153 67 386.839C67 383.525 69.6863 380.839 73 380.839C76.3137 380.839 79 383.525 79 386.839Z" fill="#51CBB4"/>
<path d="M98.3143 390.839V382.112H101.425C102.104 382.112 102.667 382.235 103.113 382.482C103.559 382.73 103.892 383.068 104.114 383.497C104.336 383.923 104.446 384.403 104.446 384.937C104.446 385.474 104.334 385.957 104.11 386.386C103.888 386.812 103.553 387.15 103.104 387.4C102.658 387.647 102.097 387.771 101.421 387.771H99.2816V386.654H101.301C101.73 386.654 102.078 386.58 102.346 386.433C102.613 386.282 102.809 386.078 102.934 385.819C103.059 385.561 103.121 385.267 103.121 384.937C103.121 384.607 103.059 384.315 102.934 384.059C102.809 383.803 102.611 383.603 102.341 383.458C102.074 383.313 101.722 383.241 101.284 383.241H99.631V390.839H98.3143ZM107.734 390.984C107.319 390.984 106.944 390.907 106.609 390.754C106.274 390.598 106.008 390.372 105.812 390.076C105.619 389.781 105.522 389.419 105.522 388.99C105.522 388.62 105.593 388.316 105.735 388.078C105.877 387.839 106.069 387.65 106.311 387.511C106.552 387.372 106.822 387.267 107.12 387.196C107.419 387.125 107.723 387.071 108.032 387.034C108.424 386.988 108.743 386.951 108.987 386.923C109.231 386.892 109.409 386.842 109.52 386.774C109.63 386.705 109.686 386.595 109.686 386.441V386.411C109.686 386.039 109.581 385.751 109.37 385.546C109.163 385.342 108.853 385.24 108.441 385.24C108.012 385.24 107.674 385.335 107.427 385.525C107.183 385.713 107.014 385.921 106.92 386.151L105.723 385.879C105.865 385.481 106.072 385.16 106.345 384.916C106.62 384.669 106.937 384.49 107.295 384.379C107.653 384.265 108.029 384.208 108.424 384.208C108.686 384.208 108.963 384.24 109.255 384.302C109.551 384.362 109.826 384.473 110.082 384.634C110.341 384.796 110.552 385.028 110.717 385.329C110.882 385.627 110.964 386.015 110.964 386.492V390.839H109.72V389.944H109.669C109.586 390.109 109.463 390.271 109.298 390.43C109.133 390.589 108.922 390.721 108.663 390.826C108.404 390.931 108.095 390.984 107.734 390.984ZM108.011 389.961C108.363 389.961 108.664 389.892 108.914 389.752C109.167 389.613 109.359 389.431 109.49 389.207C109.623 388.98 109.69 388.737 109.69 388.478V387.634C109.645 387.68 109.556 387.723 109.426 387.762C109.298 387.799 109.152 387.832 108.987 387.86C108.822 387.886 108.662 387.91 108.505 387.933C108.349 387.953 108.218 387.97 108.113 387.984C107.866 388.015 107.64 388.068 107.436 388.142C107.234 388.215 107.072 388.322 106.95 388.461C106.831 388.598 106.771 388.779 106.771 389.007C106.771 389.322 106.887 389.561 107.12 389.723C107.353 389.882 107.65 389.961 108.011 389.961ZM107.21 383.501L106.353 383.475C106.353 383.004 106.48 382.627 106.733 382.346C106.988 382.065 107.304 381.924 107.679 381.924C107.852 381.924 108.004 381.954 108.135 382.014C108.265 382.071 108.387 382.137 108.501 382.214C108.618 382.288 108.733 382.355 108.846 382.414C108.963 382.471 109.092 382.5 109.234 382.5C109.399 382.5 109.532 382.437 109.635 382.312C109.74 382.187 109.792 382.032 109.792 381.848L110.632 381.903C110.632 382.377 110.504 382.751 110.248 383.024C109.993 383.294 109.679 383.43 109.306 383.433C109.105 383.433 108.937 383.404 108.804 383.348C108.673 383.288 108.556 383.221 108.454 383.147C108.352 383.071 108.247 383.002 108.139 382.943C108.031 382.883 107.902 382.853 107.751 382.853C107.592 382.853 107.461 382.916 107.359 383.041C107.26 383.163 107.21 383.316 107.21 383.501ZM115.418 390.971C114.805 390.971 114.269 390.83 113.812 390.549C113.354 390.268 112.999 389.875 112.746 389.369C112.494 388.863 112.367 388.272 112.367 387.596C112.367 386.917 112.494 386.323 112.746 385.815C112.999 385.306 113.354 384.911 113.812 384.63C114.269 384.349 114.805 384.208 115.418 384.208C116.032 384.208 116.567 384.349 117.025 384.63C117.482 384.911 117.837 385.306 118.09 385.815C118.343 386.323 118.469 386.917 118.469 387.596C118.469 388.272 118.343 388.863 118.09 389.369C117.837 389.875 117.482 390.268 117.025 390.549C116.567 390.83 116.032 390.971 115.418 390.971ZM115.423 389.901C115.82 389.901 116.15 389.796 116.411 389.586C116.673 389.376 116.866 389.096 116.991 388.747C117.119 388.397 117.183 388.012 117.183 387.592C117.183 387.174 117.119 386.791 116.991 386.441C116.866 386.089 116.673 385.806 116.411 385.593C116.15 385.38 115.82 385.274 115.423 385.274C115.022 385.274 114.69 385.38 114.425 385.593C114.164 385.806 113.969 386.089 113.842 386.441C113.717 386.791 113.654 387.174 113.654 387.592C113.654 388.012 113.717 388.397 113.842 388.747C113.969 389.096 114.164 389.376 114.425 389.586C114.69 389.796 115.022 389.901 115.423 389.901ZM86.2615 406.839V398.112H91.6735V399.245H87.5783V401.904H91.2857V403.034H87.5783V406.839H86.2615ZM93.1085 406.839V400.294H94.34V401.333H94.4082C94.5275 400.981 94.7377 400.704 95.0389 400.502C95.3429 400.298 95.6866 400.196 96.0701 400.196C96.1497 400.196 96.2434 400.198 96.3514 400.204C96.4622 400.21 96.5488 400.217 96.6113 400.225V401.444C96.5602 401.43 96.4693 401.414 96.3386 401.397C96.2079 401.377 96.0772 401.367 95.9466 401.367C95.6454 401.367 95.377 401.431 95.1412 401.559C94.9082 401.684 94.7235 401.859 94.5872 402.083C94.4508 402.305 94.3826 402.558 94.3826 402.842V406.839H93.1085ZM99.5602 406.984C99.1454 406.984 98.7704 406.907 98.4352 406.754C98.1 406.598 97.8343 406.372 97.6383 406.076C97.4451 405.781 97.3485 405.419 97.3485 404.99C97.3485 404.62 97.4196 404.316 97.5616 404.078C97.7037 403.839 97.8954 403.65 98.1369 403.511C98.3784 403.372 98.6483 403.267 98.9466 403.196C99.2449 403.125 99.5488 403.071 99.8585 403.034C100.251 402.988 100.569 402.951 100.813 402.923C101.057 402.892 101.235 402.842 101.346 402.774C101.456 402.705 101.512 402.595 101.512 402.441V402.411C101.512 402.039 101.407 401.751 101.197 401.546C100.989 401.342 100.68 401.24 100.268 401.24C99.8386 401.24 99.5005 401.335 99.2534 401.525C99.0091 401.713 98.84 401.921 98.7463 402.151L97.5488 401.879C97.6909 401.481 97.8983 401.16 98.171 400.916C98.4466 400.669 98.7633 400.49 99.1213 400.379C99.4792 400.265 99.8556 400.208 100.251 400.208C100.512 400.208 100.789 400.24 101.081 400.302C101.377 400.362 101.653 400.473 101.908 400.634C102.167 400.796 102.378 401.028 102.543 401.329C102.708 401.627 102.79 402.015 102.79 402.492V406.839H101.546V405.944H101.495C101.412 406.109 101.289 406.271 101.124 406.43C100.959 406.589 100.748 406.721 100.489 406.826C100.231 406.931 99.921 406.984 99.5602 406.984ZM99.8372 405.961C100.189 405.961 100.491 405.892 100.741 405.752C100.993 405.613 101.185 405.431 101.316 405.207C101.449 404.98 101.516 404.737 101.516 404.478V403.634C101.471 403.68 101.383 403.723 101.252 403.762C101.124 403.799 100.978 403.832 100.813 403.86C100.648 403.886 100.488 403.91 100.331 403.933C100.175 403.953 100.045 403.97 99.9395 403.984C99.6923 404.015 99.4664 404.068 99.2619 404.142C99.0602 404.215 98.8983 404.322 98.7761 404.461C98.6568 404.598 98.5971 404.779 98.5971 405.007C98.5971 405.322 98.7136 405.561 98.9466 405.723C99.1795 405.882 99.4764 405.961 99.8372 405.961ZM105.762 402.953V406.839H104.487V400.294H105.71V401.359H105.791C105.942 401.012 106.178 400.734 106.499 400.524C106.823 400.313 107.23 400.208 107.722 400.208C108.168 400.208 108.558 400.302 108.894 400.49C109.229 400.674 109.489 400.95 109.673 401.316C109.858 401.683 109.95 402.136 109.95 402.676V406.839H108.676V402.829C108.676 402.355 108.553 401.984 108.306 401.717C108.058 401.447 107.719 401.312 107.287 401.312C106.992 401.312 106.729 401.376 106.499 401.504C106.271 401.632 106.091 401.819 105.958 402.066C105.827 402.311 105.762 402.606 105.762 402.953ZM114.416 406.971C113.783 406.971 113.237 406.828 112.78 406.541C112.325 406.251 111.976 405.852 111.732 405.343C111.487 404.835 111.365 404.252 111.365 403.596C111.365 402.931 111.49 402.345 111.74 401.836C111.99 401.325 112.343 400.926 112.797 400.639C113.252 400.352 113.787 400.208 114.404 400.208C114.901 400.208 115.344 400.301 115.733 400.485C116.122 400.667 116.436 400.923 116.675 401.252C116.916 401.582 117.06 401.967 117.105 402.407H115.865C115.797 402.1 115.641 401.836 115.396 401.615C115.155 401.393 114.831 401.282 114.425 401.282C114.07 401.282 113.759 401.376 113.492 401.563C113.227 401.748 113.021 402.012 112.874 402.356C112.726 402.697 112.652 403.1 112.652 403.566C112.652 404.044 112.725 404.455 112.869 404.802C113.014 405.149 113.219 405.417 113.483 405.607C113.75 405.798 114.064 405.893 114.425 405.893C114.666 405.893 114.885 405.849 115.081 405.761C115.28 405.67 115.446 405.541 115.58 405.373C115.716 405.205 115.811 405.004 115.865 404.768H117.105C117.06 405.191 116.922 405.569 116.692 405.901C116.462 406.234 116.154 406.495 115.767 406.686C115.384 406.876 114.933 406.971 114.416 406.971ZM121.289 406.971C120.644 406.971 120.089 406.833 119.623 406.558C119.16 406.279 118.802 405.889 118.549 405.386C118.299 404.88 118.174 404.288 118.174 403.609C118.174 402.938 118.299 402.348 118.549 401.836C118.802 401.325 119.154 400.926 119.606 400.639C120.06 400.352 120.591 400.208 121.199 400.208C121.569 400.208 121.927 400.269 122.273 400.392C122.62 400.514 122.931 400.705 123.206 400.967C123.482 401.228 123.699 401.568 123.858 401.985C124.018 402.4 124.097 402.904 124.097 403.498V403.95H118.894V402.995H122.849C122.849 402.66 122.78 402.363 122.644 402.105C122.508 401.843 122.316 401.637 122.069 401.487C121.824 401.336 121.537 401.261 121.208 401.261C120.85 401.261 120.537 401.349 120.27 401.525C120.006 401.698 119.802 401.926 119.657 402.207C119.515 402.485 119.444 402.788 119.444 403.115V403.86C119.444 404.298 119.52 404.67 119.674 404.977C119.83 405.284 120.047 405.518 120.326 405.68C120.604 405.839 120.93 405.919 121.302 405.919C121.543 405.919 121.763 405.884 121.962 405.816C122.161 405.745 122.333 405.64 122.478 405.501C122.623 405.362 122.733 405.19 122.81 404.985L124.016 405.203C123.92 405.558 123.746 405.869 123.496 406.136C123.249 406.4 122.938 406.606 122.563 406.754C122.191 406.899 121.766 406.971 121.289 406.971ZM122.026 399.509L121.153 398.367L120.275 399.509H119.124V399.446L120.62 397.639H121.681L123.181 399.446V399.509H122.026ZM130.416 401.892L129.261 402.096C129.213 401.948 129.136 401.808 129.031 401.674C128.928 401.541 128.789 401.431 128.613 401.346C128.437 401.261 128.217 401.218 127.953 401.218C127.592 401.218 127.291 401.299 127.049 401.461C126.808 401.62 126.687 401.826 126.687 402.079C126.687 402.298 126.768 402.474 126.93 402.607C127.092 402.741 127.353 402.85 127.714 402.936L128.754 403.174C129.356 403.313 129.805 403.528 130.1 403.818C130.396 404.107 130.544 404.484 130.544 404.947C130.544 405.339 130.43 405.688 130.203 405.995C129.978 406.299 129.664 406.538 129.261 406.711C128.86 406.884 128.396 406.971 127.867 406.971C127.134 406.971 126.536 406.815 126.073 406.502C125.61 406.187 125.326 405.74 125.221 405.16L126.453 404.973C126.529 405.294 126.687 405.536 126.926 405.701C127.164 405.863 127.475 405.944 127.859 405.944C128.276 405.944 128.61 405.857 128.86 405.684C129.11 405.508 129.235 405.294 129.235 405.041C129.235 404.836 129.159 404.664 129.005 404.525C128.855 404.386 128.623 404.281 128.311 404.21L127.203 403.967C126.592 403.828 126.14 403.606 125.847 403.302C125.558 402.998 125.413 402.613 125.413 402.147C125.413 401.761 125.521 401.423 125.737 401.133C125.953 400.843 126.251 400.617 126.632 400.455C127.012 400.291 127.448 400.208 127.94 400.208C128.647 400.208 129.204 400.362 129.61 400.669C130.017 400.973 130.285 401.38 130.416 401.892Z" fill="#191919"/>
<path d="M165.695 386.839C165.695 390.153 163.009 392.839 159.695 392.839C156.382 392.839 153.695 390.153 153.695 386.839C153.695 383.525 156.382 380.839 159.695 380.839C163.009 380.839 165.695 383.525 165.695 386.839Z" fill="#A0D7CA"/>
<path d="M179.789 384.95H178.46C178.409 384.666 178.314 384.416 178.174 384.2C178.035 383.984 177.865 383.801 177.663 383.65C177.461 383.5 177.235 383.386 176.985 383.309C176.738 383.232 176.475 383.194 176.197 383.194C175.694 383.194 175.244 383.321 174.846 383.573C174.451 383.826 174.139 384.197 173.909 384.686C173.681 385.174 173.568 385.771 173.568 386.475C173.568 387.186 173.681 387.785 173.909 388.274C174.139 388.762 174.453 389.132 174.85 389.382C175.248 389.632 175.696 389.757 176.193 389.757C176.468 389.757 176.73 389.72 176.977 389.646C177.227 389.569 177.453 389.457 177.654 389.309C177.856 389.161 178.027 388.981 178.166 388.768C178.308 388.552 178.406 388.305 178.46 388.026L179.789 388.031C179.718 388.46 179.581 388.855 179.376 389.215C179.174 389.573 178.914 389.883 178.596 390.144C178.281 390.403 177.92 390.603 177.514 390.745C177.108 390.887 176.664 390.958 176.184 390.958C175.429 390.958 174.755 390.779 174.164 390.421C173.574 390.061 173.108 389.545 172.767 388.875C172.429 388.204 172.26 387.404 172.26 386.475C172.26 385.544 172.43 384.744 172.771 384.076C173.112 383.406 173.578 382.892 174.169 382.534C174.76 382.173 175.431 381.992 176.184 381.992C176.647 381.992 177.079 382.059 177.48 382.193C177.883 382.323 178.245 382.517 178.566 382.772C178.887 383.025 179.153 383.335 179.363 383.701C179.574 384.065 179.716 384.481 179.789 384.95ZM184.02 390.971C183.406 390.971 182.871 390.83 182.413 390.549C181.956 390.268 181.601 389.875 181.348 389.369C181.095 388.863 180.969 388.272 180.969 387.596C180.969 386.917 181.095 386.323 181.348 385.815C181.601 385.306 181.956 384.911 182.413 384.63C182.871 384.349 183.406 384.208 184.02 384.208C184.634 384.208 185.169 384.349 185.626 384.63C186.084 384.911 186.439 385.306 186.692 385.815C186.945 386.323 187.071 386.917 187.071 387.596C187.071 388.272 186.945 388.863 186.692 389.369C186.439 389.875 186.084 390.268 185.626 390.549C185.169 390.83 184.634 390.971 184.02 390.971ZM184.024 389.901C184.422 389.901 184.751 389.796 185.013 389.586C185.274 389.376 185.467 389.096 185.592 388.747C185.72 388.397 185.784 388.012 185.784 387.592C185.784 387.174 185.72 386.791 185.592 386.441C185.467 386.089 185.274 385.806 185.013 385.593C184.751 385.38 184.422 385.274 184.024 385.274C183.624 385.274 183.291 385.38 183.027 385.593C182.766 385.806 182.571 386.089 182.443 386.441C182.318 386.791 182.256 387.174 182.256 387.592C182.256 388.012 182.318 388.397 182.443 388.747C182.571 389.096 182.766 389.376 183.027 389.586C183.291 389.796 183.624 389.901 184.024 389.901ZM189.241 384.294L190.686 386.842L192.143 384.294H193.537L191.495 387.566L193.554 390.839H192.16L190.686 388.393L189.216 390.839H187.818L189.855 387.566L187.843 384.294H189.241ZM194.845 390.839V384.294H196.119V390.839H194.845ZM195.488 383.284C195.267 383.284 195.076 383.21 194.917 383.062C194.761 382.911 194.683 382.732 194.683 382.525C194.683 382.315 194.761 382.136 194.917 381.988C195.076 381.838 195.267 381.762 195.488 381.762C195.71 381.762 195.899 381.838 196.055 381.988C196.214 382.136 196.294 382.315 196.294 382.525C196.294 382.732 196.214 382.911 196.055 383.062C195.899 383.21 195.71 383.284 195.488 383.284ZM199.107 386.953V390.839H197.833V384.294H199.056V385.359H199.137C199.288 385.012 199.523 384.734 199.844 384.524C200.168 384.313 200.576 384.208 201.067 384.208C201.513 384.208 201.904 384.302 202.239 384.49C202.575 384.674 202.835 384.95 203.019 385.316C203.204 385.683 203.296 386.136 203.296 386.676V390.839H202.022V386.829C202.022 386.355 201.898 385.984 201.651 385.717C201.404 385.447 201.065 385.312 200.633 385.312C200.337 385.312 200.075 385.376 199.844 385.504C199.617 385.632 199.437 385.819 199.303 386.066C199.173 386.311 199.107 386.606 199.107 386.953ZM206.279 386.953V390.839H205.005V382.112H206.262V385.359H206.343C206.496 385.007 206.731 384.727 207.046 384.519C207.362 384.312 207.773 384.208 208.282 384.208C208.731 384.208 209.123 384.301 209.458 384.485C209.796 384.67 210.058 384.946 210.242 385.312C210.43 385.676 210.523 386.13 210.523 386.676V390.839H209.249V386.829C209.249 386.349 209.126 385.977 208.879 385.713C208.631 385.446 208.288 385.312 207.847 385.312C207.546 385.312 207.276 385.376 207.038 385.504C206.802 385.632 206.616 385.819 206.479 386.066C206.346 386.311 206.279 386.606 206.279 386.953ZM214.129 390.984C213.714 390.984 213.339 390.907 213.004 390.754C212.668 390.598 212.403 390.372 212.207 390.076C212.013 389.781 211.917 389.419 211.917 388.99C211.917 388.62 211.988 388.316 212.13 388.078C212.272 387.839 212.464 387.65 212.705 387.511C212.947 387.372 213.217 387.267 213.515 387.196C213.813 387.125 214.117 387.071 214.427 387.034C214.819 386.988 215.137 386.951 215.381 386.923C215.626 386.892 215.803 386.842 215.914 386.774C216.025 386.705 216.08 386.595 216.08 386.441V386.411C216.08 386.039 215.975 385.751 215.765 385.546C215.558 385.342 215.248 385.24 214.836 385.24C214.407 385.24 214.069 385.335 213.822 385.525C213.577 385.713 213.408 385.921 213.315 386.151L212.117 385.879C212.259 385.481 212.467 385.16 212.739 384.916C213.015 384.669 213.332 384.49 213.69 384.379C214.048 384.265 214.424 384.208 214.819 384.208C215.08 384.208 215.357 384.24 215.65 384.302C215.945 384.362 216.221 384.473 216.477 384.634C216.735 384.796 216.947 385.028 217.112 385.329C217.276 385.627 217.359 386.015 217.359 386.492V390.839H216.114V389.944H216.063C215.981 390.109 215.857 390.271 215.692 390.43C215.528 390.589 215.316 390.721 215.058 390.826C214.799 390.931 214.489 390.984 214.129 390.984ZM214.406 389.961C214.758 389.961 215.059 389.892 215.309 389.752C215.562 389.613 215.754 389.431 215.884 389.207C216.018 388.98 216.085 388.737 216.085 388.478V387.634C216.039 387.68 215.951 387.723 215.82 387.762C215.692 387.799 215.546 387.832 215.381 387.86C215.217 387.886 215.056 387.91 214.9 387.933C214.744 387.953 214.613 387.97 214.508 387.984C214.261 388.015 214.035 388.068 213.83 388.142C213.629 388.215 213.467 388.322 213.344 388.461C213.225 388.598 213.165 388.779 213.165 389.007C213.165 389.322 213.282 389.561 213.515 389.723C213.748 389.882 214.045 389.961 214.406 389.961Z" fill="#191919"/>
<path d="M252.391 386.839C252.391 390.153 249.704 392.839 246.391 392.839C243.077 392.839 240.391 390.153 240.391 386.839C240.391 383.525 243.077 380.839 246.391 380.839C249.704 380.839 252.391 383.525 252.391 386.839Z" fill="#00826A"/>
<path d="M258.056 383.245V382.112H264.81V383.245H262.087V390.839H260.775V383.245H258.056ZM268.008 390.971C267.395 390.971 266.859 390.83 266.402 390.549C265.944 390.268 265.589 389.875 265.336 389.369C265.083 388.863 264.957 388.272 264.957 387.596C264.957 386.917 265.083 386.323 265.336 385.815C265.589 385.306 265.944 384.911 266.402 384.63C266.859 384.349 267.395 384.208 268.008 384.208C268.622 384.208 269.157 384.349 269.615 384.63C270.072 384.911 270.427 385.306 270.68 385.815C270.933 386.323 271.059 386.917 271.059 387.596C271.059 388.272 270.933 388.863 270.68 389.369C270.427 389.875 270.072 390.268 269.615 390.549C269.157 390.83 268.622 390.971 268.008 390.971ZM268.012 389.901C268.41 389.901 268.74 389.796 269.001 389.586C269.262 389.376 269.456 389.096 269.581 388.747C269.708 388.397 269.772 388.012 269.772 387.592C269.772 387.174 269.708 386.791 269.581 386.441C269.456 386.089 269.262 385.806 269.001 385.593C268.74 385.38 268.41 385.274 268.012 385.274C267.612 385.274 267.279 385.38 267.015 385.593C266.754 385.806 266.559 386.089 266.431 386.441C266.306 386.791 266.244 387.174 266.244 387.592C266.244 388.012 266.306 388.397 266.431 388.747C266.559 389.096 266.754 389.376 267.015 389.586C267.279 389.796 267.612 389.901 268.012 389.901ZM272.482 390.839V384.294H273.713V385.333H273.781C273.901 384.981 274.111 384.704 274.412 384.502C274.716 384.298 275.06 384.196 275.443 384.196C275.523 384.196 275.616 384.198 275.724 384.204C275.835 384.21 275.922 384.217 275.984 384.225V385.444C275.933 385.43 275.842 385.414 275.712 385.397C275.581 385.377 275.45 385.367 275.32 385.367C275.018 385.367 274.75 385.431 274.514 385.559C274.281 385.684 274.097 385.859 273.96 386.083C273.824 386.305 273.756 386.558 273.756 386.842V390.839H272.482ZM280.529 384.294V385.316H276.954V384.294H280.529ZM277.913 382.725H279.187V388.917C279.187 389.164 279.224 389.35 279.298 389.475C279.371 389.598 279.467 389.681 279.583 389.727C279.702 389.769 279.832 389.791 279.971 389.791C280.073 389.791 280.163 389.784 280.239 389.769C280.316 389.755 280.376 389.744 280.418 389.735L280.648 390.788C280.575 390.816 280.469 390.845 280.333 390.873C280.197 390.904 280.026 390.921 279.822 390.924C279.487 390.93 279.174 390.87 278.884 390.745C278.594 390.62 278.36 390.427 278.181 390.166C278.002 389.904 277.913 389.576 277.913 389.181V382.725ZM283.843 390.984C283.429 390.984 283.054 390.907 282.718 390.754C282.383 390.598 282.118 390.372 281.922 390.076C281.728 389.781 281.632 389.419 281.632 388.99C281.632 388.62 281.703 388.316 281.845 388.078C281.987 387.839 282.179 387.65 282.42 387.511C282.662 387.372 282.931 387.267 283.23 387.196C283.528 387.125 283.832 387.071 284.142 387.034C284.534 386.988 284.852 386.951 285.096 386.923C285.341 386.892 285.518 386.842 285.629 386.774C285.74 386.705 285.795 386.595 285.795 386.441V386.411C285.795 386.039 285.69 385.751 285.48 385.546C285.272 385.342 284.963 385.24 284.551 385.24C284.122 385.24 283.784 385.335 283.537 385.525C283.292 385.713 283.123 385.921 283.029 386.151L281.832 385.879C281.974 385.481 282.181 385.16 282.454 384.916C282.73 384.669 283.047 384.49 283.404 384.379C283.762 384.265 284.139 384.208 284.534 384.208C284.795 384.208 285.072 384.24 285.365 384.302C285.66 384.362 285.936 384.473 286.191 384.634C286.45 384.796 286.662 385.028 286.826 385.329C286.991 385.627 287.074 386.015 287.074 386.492V390.839H285.829V389.944H285.778C285.696 390.109 285.572 390.271 285.407 390.43C285.243 390.589 285.031 390.721 284.772 390.826C284.514 390.931 284.204 390.984 283.843 390.984ZM284.12 389.961C284.473 389.961 284.774 389.892 285.024 389.752C285.277 389.613 285.468 389.431 285.599 389.207C285.733 388.98 285.799 388.737 285.799 388.478V387.634C285.754 387.68 285.666 387.723 285.535 387.762C285.407 387.799 285.261 387.832 285.096 387.86C284.931 387.886 284.771 387.91 284.615 387.933C284.458 387.953 284.328 387.97 284.223 387.984C283.975 388.015 283.75 388.068 283.545 388.142C283.343 388.215 283.181 388.322 283.059 388.461C282.94 388.598 282.88 388.779 282.88 389.007C282.88 389.322 282.997 389.561 283.23 389.723C283.463 389.882 283.76 389.961 284.12 389.961ZM294.397 390.967C293.868 390.967 293.397 390.832 292.982 390.562C292.57 390.289 292.246 389.901 292.01 389.399C291.777 388.893 291.661 388.286 291.661 387.579C291.661 386.872 291.779 386.267 292.015 385.764C292.253 385.261 292.58 384.876 292.995 384.609C293.409 384.342 293.88 384.208 294.405 384.208C294.811 384.208 295.138 384.276 295.385 384.413C295.635 384.546 295.828 384.703 295.965 384.882C296.104 385.061 296.212 385.218 296.289 385.355H296.365V382.112H297.64V390.839H296.395V389.821H296.289C296.212 389.96 296.101 390.119 295.956 390.298C295.814 390.477 295.618 390.633 295.368 390.767C295.118 390.9 294.794 390.967 294.397 390.967ZM294.678 389.88C295.044 389.88 295.354 389.784 295.607 389.59C295.863 389.394 296.056 389.123 296.186 388.776C296.32 388.43 296.387 388.026 296.387 387.566C296.387 387.112 296.321 386.714 296.191 386.373C296.06 386.032 295.868 385.767 295.615 385.576C295.363 385.386 295.05 385.291 294.678 385.291C294.294 385.291 293.975 385.39 293.719 385.589C293.463 385.788 293.27 386.059 293.14 386.403C293.012 386.747 292.948 387.134 292.948 387.566C292.948 388.004 293.013 388.397 293.144 388.747C293.275 389.096 293.468 389.373 293.723 389.578C293.982 389.779 294.3 389.88 294.678 389.88ZM302.279 390.971C301.634 390.971 301.079 390.833 300.613 390.558C300.15 390.279 299.792 389.889 299.539 389.386C299.289 388.88 299.164 388.288 299.164 387.609C299.164 386.938 299.289 386.348 299.539 385.836C299.792 385.325 300.144 384.926 300.596 384.639C301.05 384.352 301.582 384.208 302.19 384.208C302.559 384.208 302.917 384.269 303.263 384.392C303.61 384.514 303.921 384.705 304.197 384.967C304.472 385.228 304.69 385.568 304.849 385.985C305.008 386.4 305.087 386.904 305.087 387.498V387.95H299.884V386.995H303.839C303.839 386.66 303.771 386.363 303.634 386.105C303.498 385.843 303.306 385.637 303.059 385.487C302.815 385.336 302.528 385.261 302.198 385.261C301.84 385.261 301.528 385.349 301.261 385.525C300.996 385.698 300.792 385.926 300.647 386.207C300.505 386.485 300.434 386.788 300.434 387.115V387.86C300.434 388.298 300.511 388.67 300.664 388.977C300.82 389.284 301.038 389.518 301.316 389.68C301.594 389.839 301.92 389.919 302.292 389.919C302.533 389.919 302.754 389.884 302.952 389.816C303.151 389.745 303.323 389.64 303.468 389.501C303.613 389.362 303.724 389.19 303.8 388.985L305.006 389.203C304.91 389.558 304.737 389.869 304.487 390.136C304.239 390.4 303.928 390.606 303.553 390.754C303.181 390.899 302.756 390.971 302.279 390.971ZM256.951 398.112H258.549L261.327 404.896H261.43L264.208 398.112H265.806V406.839H264.553V400.524H264.472L261.898 406.826H260.859L258.285 400.519H258.204V406.839H256.951V398.112ZM270.375 406.971C269.762 406.971 269.226 406.83 268.769 406.549C268.311 406.268 267.956 405.875 267.703 405.369C267.451 404.863 267.324 404.272 267.324 403.596C267.324 402.917 267.451 402.323 267.703 401.815C267.956 401.306 268.311 400.911 268.769 400.63C269.226 400.349 269.762 400.208 270.375 400.208C270.989 400.208 271.525 400.349 271.982 400.63C272.439 400.911 272.794 401.306 273.047 401.815C273.3 402.323 273.426 402.917 273.426 403.596C273.426 404.272 273.3 404.863 273.047 405.369C272.794 405.875 272.439 406.268 271.982 406.549C271.525 406.83 270.989 406.971 270.375 406.971ZM270.38 405.901C270.777 405.901 271.107 405.796 271.368 405.586C271.63 405.376 271.823 405.096 271.948 404.747C272.076 404.397 272.14 404.012 272.14 403.592C272.14 403.174 272.076 402.791 271.948 402.441C271.823 402.089 271.63 401.806 271.368 401.593C271.107 401.38 270.777 401.274 270.38 401.274C269.979 401.274 269.647 401.38 269.382 401.593C269.121 401.806 268.926 402.089 268.799 402.441C268.674 402.791 268.611 403.174 268.611 403.592C268.611 404.012 268.674 404.397 268.799 404.747C268.926 405.096 269.121 405.376 269.382 405.586C269.647 405.796 269.979 405.901 270.38 405.901ZM274.849 406.839V400.294H276.08V401.333H276.148C276.268 400.981 276.478 400.704 276.779 400.502C277.083 400.298 277.427 400.196 277.81 400.196C277.89 400.196 277.984 400.198 278.092 400.204C278.202 400.21 278.289 400.217 278.352 400.225V401.444C278.3 401.43 278.21 401.414 278.079 401.397C277.948 401.377 277.817 401.367 277.687 401.367C277.386 401.367 277.117 401.431 276.881 401.559C276.648 401.684 276.464 401.859 276.327 402.083C276.191 402.305 276.123 402.558 276.123 402.842V406.839H274.849ZM281.3 406.984C280.886 406.984 280.511 406.907 280.175 406.754C279.84 406.598 279.575 406.372 279.379 406.076C279.185 405.781 279.089 405.419 279.089 404.99C279.089 404.62 279.16 404.316 279.302 404.078C279.444 403.839 279.636 403.65 279.877 403.511C280.119 403.372 280.388 403.267 280.687 403.196C280.985 403.125 281.289 403.071 281.599 403.034C281.991 402.988 282.309 402.951 282.553 402.923C282.798 402.892 282.975 402.842 283.086 402.774C283.197 402.705 283.252 402.595 283.252 402.441V402.411C283.252 402.039 283.147 401.751 282.937 401.546C282.729 401.342 282.42 401.24 282.008 401.24C281.579 401.24 281.241 401.335 280.994 401.525C280.749 401.713 280.58 401.921 280.487 402.151L279.289 401.879C279.431 401.481 279.638 401.16 279.911 400.916C280.187 400.669 280.504 400.49 280.862 400.379C281.219 400.265 281.596 400.208 281.991 400.208C282.252 400.208 282.529 400.24 282.822 400.302C283.117 400.362 283.393 400.473 283.648 400.634C283.907 400.796 284.119 401.028 284.283 401.329C284.448 401.627 284.531 402.015 284.531 402.492V406.839H283.286V405.944H283.235C283.153 406.109 283.029 406.271 282.864 406.43C282.7 406.589 282.488 406.721 282.229 406.826C281.971 406.931 281.661 406.984 281.3 406.984ZM281.577 405.961C281.93 405.961 282.231 405.892 282.481 405.752C282.734 405.613 282.925 405.431 283.056 405.207C283.19 404.98 283.256 404.737 283.256 404.478V403.634C283.211 403.68 283.123 403.723 282.992 403.762C282.864 403.799 282.718 403.832 282.553 403.86C282.388 403.886 282.228 403.91 282.072 403.933C281.915 403.953 281.785 403.97 281.68 403.984C281.433 404.015 281.207 404.068 281.002 404.142C280.8 404.215 280.638 404.322 280.516 404.461C280.397 404.598 280.337 404.779 280.337 405.007C280.337 405.322 280.454 405.561 280.687 405.723C280.92 405.882 281.217 405.961 281.577 405.961ZM287.502 402.953V406.839H286.228V400.294H287.451V401.359H287.532C287.682 401.012 287.918 400.734 288.239 400.524C288.563 400.313 288.971 400.208 289.462 400.208C289.908 400.208 290.299 400.302 290.634 400.49C290.969 400.674 291.229 400.95 291.414 401.316C291.598 401.683 291.691 402.136 291.691 402.676V406.839H290.417V402.829C290.417 402.355 290.293 401.984 290.046 401.717C289.799 401.447 289.459 401.312 289.027 401.312C288.732 401.312 288.469 401.376 288.239 401.504C288.012 401.632 287.831 401.819 287.698 402.066C287.567 402.311 287.502 402.606 287.502 402.953ZM296.144 409.43C295.624 409.43 295.176 409.362 294.801 409.225C294.429 409.089 294.125 408.909 293.89 408.684C293.654 408.46 293.478 408.214 293.361 407.947L294.456 407.495C294.533 407.62 294.635 407.752 294.763 407.892C294.894 408.034 295.07 408.154 295.292 408.254C295.516 408.353 295.804 408.403 296.157 408.403C296.64 408.403 297.039 408.285 297.354 408.049C297.669 407.816 297.827 407.444 297.827 406.933V405.646H297.746C297.669 405.785 297.559 405.94 297.414 406.11C297.272 406.281 297.076 406.428 296.826 406.553C296.576 406.678 296.25 406.741 295.85 406.741C295.333 406.741 294.867 406.62 294.452 406.379C294.04 406.134 293.713 405.775 293.472 405.301C293.233 404.823 293.114 404.237 293.114 403.541C293.114 402.845 293.232 402.248 293.468 401.751C293.706 401.254 294.033 400.873 294.448 400.609C294.863 400.342 295.333 400.208 295.858 400.208C296.265 400.208 296.593 400.276 296.843 400.413C297.093 400.546 297.287 400.703 297.426 400.882C297.569 401.061 297.678 401.218 297.755 401.355H297.848V400.294H299.097V406.984C299.097 407.546 298.966 408.008 298.705 408.369C298.444 408.73 298.09 408.997 297.644 409.17C297.201 409.343 296.701 409.43 296.144 409.43ZM296.131 405.684C296.498 405.684 296.807 405.599 297.06 405.428C297.316 405.255 297.509 405.008 297.64 404.687C297.773 404.363 297.84 403.975 297.84 403.524C297.84 403.083 297.775 402.696 297.644 402.36C297.513 402.025 297.321 401.764 297.069 401.576C296.816 401.386 296.503 401.291 296.131 401.291C295.748 401.291 295.428 401.39 295.172 401.589C294.917 401.785 294.723 402.052 294.593 402.39C294.465 402.728 294.401 403.106 294.401 403.524C294.401 403.953 294.466 404.329 294.597 404.653C294.728 404.977 294.921 405.23 295.176 405.411C295.435 405.593 295.753 405.684 296.131 405.684ZM303.563 406.971C302.949 406.971 302.414 406.83 301.956 406.549C301.499 406.268 301.144 405.875 300.891 405.369C300.638 404.863 300.512 404.272 300.512 403.596C300.512 402.917 300.638 402.323 300.891 401.815C301.144 401.306 301.499 400.911 301.956 400.63C302.414 400.349 302.949 400.208 303.563 400.208C304.176 400.208 304.712 400.349 305.169 400.63C305.627 400.911 305.982 401.306 306.235 401.815C306.488 402.323 306.614 402.917 306.614 403.596C306.614 404.272 306.488 404.863 306.235 405.369C305.982 405.875 305.627 406.268 305.169 406.549C304.712 406.83 304.176 406.971 303.563 406.971ZM303.567 405.901C303.965 405.901 304.294 405.796 304.556 405.586C304.817 405.376 305.01 405.096 305.135 404.747C305.263 404.397 305.327 404.012 305.327 403.592C305.327 403.174 305.263 402.791 305.135 402.441C305.01 402.089 304.817 401.806 304.556 401.593C304.294 401.38 303.965 401.274 303.567 401.274C303.167 401.274 302.834 401.38 302.57 401.593C302.309 401.806 302.114 402.089 301.986 402.441C301.861 402.791 301.799 403.174 301.799 403.592C301.799 404.012 301.861 404.397 301.986 404.747C302.114 405.096 302.309 405.376 302.57 405.586C302.834 405.796 303.167 405.901 303.567 405.901Z" fill="#191919"/>
<path d="M79 436.839C79 440.153 76.3137 442.839 73 442.839C69.6863 442.839 67 440.153 67 436.839C67 433.525 69.6863 430.839 73 430.839C76.3137 430.839 79 433.525 79 436.839Z" fill="#27D3B3"/>
<path d="M98.3143 440.839V432.112H101.425C102.104 432.112 102.667 432.235 103.113 432.482C103.559 432.73 103.892 433.068 104.114 433.497C104.336 433.923 104.446 434.403 104.446 434.937C104.446 435.474 104.334 435.957 104.11 436.386C103.888 436.812 103.553 437.15 103.104 437.4C102.658 437.647 102.097 437.771 101.421 437.771H99.2816V436.654H101.301C101.73 436.654 102.078 436.58 102.346 436.433C102.613 436.282 102.809 436.078 102.934 435.819C103.059 435.561 103.121 435.267 103.121 434.937C103.121 434.607 103.059 434.315 102.934 434.059C102.809 433.803 102.611 433.603 102.341 433.458C102.074 433.313 101.722 433.241 101.284 433.241H99.631V440.839H98.3143ZM107.734 440.984C107.319 440.984 106.944 440.907 106.609 440.754C106.274 440.598 106.008 440.372 105.812 440.076C105.619 439.781 105.522 439.419 105.522 438.99C105.522 438.62 105.593 438.316 105.735 438.078C105.877 437.839 106.069 437.65 106.311 437.511C106.552 437.372 106.822 437.267 107.12 437.196C107.419 437.125 107.723 437.071 108.032 437.034C108.424 436.988 108.743 436.951 108.987 436.923C109.231 436.892 109.409 436.842 109.52 436.774C109.63 436.705 109.686 436.595 109.686 436.441V436.411C109.686 436.039 109.581 435.751 109.37 435.546C109.163 435.342 108.853 435.24 108.441 435.24C108.012 435.24 107.674 435.335 107.427 435.525C107.183 435.713 107.014 435.921 106.92 436.151L105.723 435.879C105.865 435.481 106.072 435.16 106.345 434.916C106.62 434.669 106.937 434.49 107.295 434.379C107.653 434.265 108.029 434.208 108.424 434.208C108.686 434.208 108.963 434.24 109.255 434.302C109.551 434.362 109.826 434.473 110.082 434.634C110.341 434.796 110.552 435.028 110.717 435.329C110.882 435.627 110.964 436.015 110.964 436.492V440.839H109.72V439.944H109.669C109.586 440.109 109.463 440.271 109.298 440.43C109.133 440.589 108.922 440.721 108.663 440.826C108.404 440.931 108.095 440.984 107.734 440.984ZM108.011 439.961C108.363 439.961 108.664 439.892 108.914 439.752C109.167 439.613 109.359 439.431 109.49 439.207C109.623 438.98 109.69 438.737 109.69 438.478V437.634C109.645 437.68 109.556 437.723 109.426 437.762C109.298 437.799 109.152 437.832 108.987 437.86C108.822 437.886 108.662 437.91 108.505 437.933C108.349 437.953 108.218 437.97 108.113 437.984C107.866 438.015 107.64 438.068 107.436 438.142C107.234 438.215 107.072 438.322 106.95 438.461C106.831 438.598 106.771 438.779 106.771 439.007C106.771 439.322 106.887 439.561 107.12 439.723C107.353 439.882 107.65 439.961 108.011 439.961ZM107.21 433.501L106.353 433.475C106.353 433.004 106.48 432.627 106.733 432.346C106.988 432.065 107.304 431.924 107.679 431.924C107.852 431.924 108.004 431.954 108.135 432.014C108.265 432.071 108.387 432.137 108.501 432.214C108.618 432.288 108.733 432.355 108.846 432.414C108.963 432.471 109.092 432.5 109.234 432.5C109.399 432.5 109.532 432.437 109.635 432.312C109.74 432.187 109.792 432.032 109.792 431.848L110.632 431.903C110.632 432.377 110.504 432.751 110.248 433.024C109.993 433.294 109.679 433.43 109.306 433.433C109.105 433.433 108.937 433.404 108.804 433.348C108.673 433.288 108.556 433.221 108.454 433.147C108.352 433.071 108.247 433.002 108.139 432.943C108.031 432.883 107.902 432.853 107.751 432.853C107.592 432.853 107.461 432.916 107.359 433.041C107.26 433.163 107.21 433.316 107.21 433.501ZM115.418 440.971C114.805 440.971 114.269 440.83 113.812 440.549C113.354 440.268 112.999 439.875 112.746 439.369C112.494 438.863 112.367 438.272 112.367 437.596C112.367 436.917 112.494 436.323 112.746 435.815C112.999 435.306 113.354 434.911 113.812 434.63C114.269 434.349 114.805 434.208 115.418 434.208C116.032 434.208 116.567 434.349 117.025 434.63C117.482 434.911 117.837 435.306 118.09 435.815C118.343 436.323 118.469 436.917 118.469 437.596C118.469 438.272 118.343 438.863 118.09 439.369C117.837 439.875 117.482 440.268 117.025 440.549C116.567 440.83 116.032 440.971 115.418 440.971ZM115.423 439.901C115.82 439.901 116.15 439.796 116.411 439.586C116.673 439.376 116.866 439.096 116.991 438.747C117.119 438.397 117.183 438.012 117.183 437.592C117.183 437.174 117.119 436.791 116.991 436.441C116.866 436.089 116.673 435.806 116.411 435.593C116.15 435.38 115.82 435.274 115.423 435.274C115.022 435.274 114.69 435.38 114.425 435.593C114.164 435.806 113.969 436.089 113.842 436.441C113.717 436.791 113.654 437.174 113.654 437.592C113.654 438.012 113.717 438.397 113.842 438.747C113.969 439.096 114.164 439.376 114.425 439.586C114.69 439.796 115.022 439.901 115.423 439.901ZM88.6623 448.112V456.839H87.3455V448.112H88.6623ZM91.7518 452.953V456.839H90.4776V450.294H91.7006V451.359H91.7816C91.9322 451.012 92.168 450.734 92.489 450.524C92.8129 450.313 93.2205 450.208 93.712 450.208C94.158 450.208 94.5487 450.302 94.8839 450.49C95.2191 450.674 95.479 450.95 95.6637 451.316C95.8484 451.683 95.9407 452.136 95.9407 452.676V456.839H94.6665V452.829C94.6665 452.355 94.543 451.984 94.2958 451.717C94.0487 451.447 93.7092 451.312 93.2773 451.312C92.9819 451.312 92.7191 451.376 92.489 451.504C92.2617 451.632 92.0813 451.819 91.9478 452.066C91.8171 452.311 91.7518 452.606 91.7518 452.953ZM100.705 450.294V451.316H97.1296V450.294H100.705ZM98.0884 448.725H99.3626V454.917C99.3626 455.164 99.3995 455.35 99.4734 455.475C99.5472 455.598 99.6424 455.681 99.7589 455.727C99.8782 455.769 100.007 455.791 100.147 455.791C100.249 455.791 100.338 455.784 100.415 455.769C100.492 455.755 100.551 455.744 100.594 455.735L100.824 456.788C100.75 456.816 100.645 456.845 100.509 456.873C100.373 456.904 100.202 456.921 99.9975 456.924C99.6623 456.93 99.3498 456.87 99.06 456.745C98.7702 456.62 98.5359 456.427 98.3569 456.166C98.1779 455.904 98.0884 455.576 98.0884 455.181V448.725ZM104.865 456.971C104.22 456.971 103.665 456.833 103.199 456.558C102.736 456.279 102.378 455.889 102.125 455.386C101.875 454.88 101.75 454.288 101.75 453.609C101.75 452.938 101.875 452.348 102.125 451.836C102.378 451.325 102.73 450.926 103.182 450.639C103.636 450.352 104.168 450.208 104.776 450.208C105.145 450.208 105.503 450.269 105.849 450.392C106.196 450.514 106.507 450.705 106.783 450.967C107.058 451.228 107.276 451.568 107.435 451.985C107.594 452.4 107.673 452.904 107.673 453.498V453.95H102.47V452.995H106.425C106.425 452.66 106.357 452.363 106.22 452.105C106.084 451.843 105.892 451.637 105.645 451.487C105.401 451.336 105.114 451.261 104.784 451.261C104.426 451.261 104.114 451.349 103.847 451.525C103.582 451.698 103.378 451.926 103.233 452.207C103.091 452.485 103.02 452.788 103.02 453.115V453.86C103.02 454.298 103.097 454.67 103.25 454.977C103.406 455.284 103.624 455.518 103.902 455.68C104.18 455.839 104.506 455.919 104.878 455.919C105.119 455.919 105.339 455.884 105.538 455.816C105.737 455.745 105.909 455.64 106.054 455.501C106.199 455.362 106.31 455.19 106.386 454.985L107.592 455.203C107.496 455.558 107.322 455.869 107.072 456.136C106.825 456.4 106.514 456.606 106.139 456.754C105.767 456.899 105.342 456.971 104.865 456.971ZM111.831 459.43C111.311 459.43 110.864 459.362 110.489 459.225C110.117 459.089 109.813 458.909 109.577 458.684C109.341 458.46 109.165 458.214 109.049 457.947L110.144 457.495C110.221 457.62 110.323 457.752 110.451 457.892C110.581 458.034 110.757 458.154 110.979 458.254C111.203 458.353 111.492 458.403 111.844 458.403C112.327 458.403 112.726 458.285 113.042 458.049C113.357 457.816 113.515 457.444 113.515 456.933V455.646H113.434C113.357 455.785 113.246 455.94 113.101 456.11C112.959 456.281 112.763 456.428 112.513 456.553C112.263 456.678 111.938 456.741 111.537 456.741C111.02 456.741 110.554 456.62 110.14 456.379C109.728 456.134 109.401 455.775 109.159 455.301C108.921 454.823 108.801 454.237 108.801 453.541C108.801 452.845 108.919 452.248 109.155 451.751C109.394 451.254 109.721 450.873 110.135 450.609C110.55 450.342 111.02 450.208 111.546 450.208C111.952 450.208 112.28 450.276 112.53 450.413C112.78 450.546 112.975 450.703 113.114 450.882C113.256 451.061 113.365 451.218 113.442 451.355H113.536V450.294H114.784V456.984C114.784 457.546 114.654 458.008 114.392 458.369C114.131 458.73 113.777 458.997 113.331 459.17C112.888 459.343 112.388 459.43 111.831 459.43ZM111.819 455.684C112.185 455.684 112.495 455.599 112.748 455.428C113.003 455.255 113.196 455.008 113.327 454.687C113.461 454.363 113.527 453.975 113.527 453.524C113.527 453.083 113.462 452.696 113.331 452.36C113.201 452.025 113.009 451.764 112.756 451.576C112.503 451.386 112.191 451.291 111.819 451.291C111.435 451.291 111.115 451.39 110.86 451.589C110.604 451.785 110.411 452.052 110.28 452.39C110.152 452.728 110.088 453.106 110.088 453.524C110.088 453.953 110.154 454.329 110.284 454.653C110.415 454.977 110.608 455.23 110.864 455.411C111.123 455.593 111.441 455.684 111.819 455.684ZM116.493 456.839V450.294H117.725V451.333H117.793C117.912 450.981 118.123 450.704 118.424 450.502C118.728 450.298 119.071 450.196 119.455 450.196C119.534 450.196 119.628 450.198 119.736 450.204C119.847 450.21 119.934 450.217 119.996 450.225V451.444C119.945 451.43 119.854 451.414 119.723 451.397C119.593 451.377 119.462 451.367 119.331 451.367C119.03 451.367 118.762 451.431 118.526 451.559C118.293 451.684 118.108 451.859 117.972 452.083C117.836 452.305 117.767 452.558 117.767 452.842V456.839H116.493ZM122.945 456.984C122.53 456.984 122.155 456.907 121.82 456.754C121.485 456.598 121.219 456.372 121.023 456.076C120.83 455.781 120.733 455.419 120.733 454.99C120.733 454.62 120.804 454.316 120.946 454.078C121.088 453.839 121.28 453.65 121.522 453.511C121.763 453.372 122.033 453.267 122.331 453.196C122.63 453.125 122.934 453.071 123.243 453.034C123.635 452.988 123.953 452.951 124.198 452.923C124.442 452.892 124.62 452.842 124.73 452.774C124.841 452.705 124.897 452.595 124.897 452.441V452.411C124.897 452.039 124.792 451.751 124.581 451.546C124.374 451.342 124.064 451.24 123.652 451.24C123.223 451.24 122.885 451.335 122.638 451.525C122.394 451.713 122.225 451.921 122.131 452.151L120.934 451.879C121.076 451.481 121.283 451.16 121.556 450.916C121.831 450.669 122.148 450.49 122.506 450.379C122.864 450.265 123.24 450.208 123.635 450.208C123.897 450.208 124.174 450.24 124.466 450.302C124.762 450.362 125.037 450.473 125.293 450.634C125.551 450.796 125.763 451.028 125.928 451.329C126.093 451.627 126.175 452.015 126.175 452.492V456.839H124.931V455.944H124.88C124.797 456.109 124.674 456.271 124.509 456.43C124.344 456.589 124.132 456.721 123.874 456.826C123.615 456.931 123.306 456.984 122.945 456.984ZM123.222 455.961C123.574 455.961 123.875 455.892 124.125 455.752C124.378 455.613 124.57 455.431 124.701 455.207C124.834 454.98 124.901 454.737 124.901 454.478V453.634C124.855 453.68 124.767 453.723 124.637 453.762C124.509 453.799 124.363 453.832 124.198 453.86C124.033 453.886 123.873 453.91 123.716 453.933C123.56 453.953 123.429 453.97 123.324 453.984C123.077 454.015 122.851 454.068 122.647 454.142C122.445 454.215 122.283 454.322 122.161 454.461C122.042 454.598 121.982 454.779 121.982 455.007C121.982 455.322 122.098 455.561 122.331 455.723C122.564 455.882 122.861 455.961 123.222 455.961ZM129.146 448.112V456.839H127.872V448.112H129.146Z" fill="#191919"/>
<path d="M165.695 436.839C165.695 440.153 163.009 442.839 159.695 442.839C156.382 442.839 153.695 440.153 153.695 436.839C153.695 433.525 156.382 430.839 159.695 430.839C163.009 430.839 165.695 433.525 165.695 436.839Z" fill="#3BA48B"/>
<path d="M189.662 434.95H188.333C188.282 434.666 188.187 434.416 188.047 434.2C187.908 433.984 187.738 433.801 187.536 433.65C187.334 433.5 187.108 433.386 186.858 433.309C186.611 433.232 186.349 433.194 186.07 433.194C185.567 433.194 185.117 433.321 184.719 433.573C184.324 433.826 184.012 434.197 183.782 434.686C183.555 435.174 183.441 435.771 183.441 436.475C183.441 437.186 183.555 437.785 183.782 438.274C184.012 438.762 184.326 439.132 184.724 439.382C185.121 439.632 185.569 439.757 186.066 439.757C186.341 439.757 186.603 439.72 186.85 439.646C187.1 439.569 187.326 439.457 187.528 439.309C187.729 439.161 187.9 438.981 188.039 438.768C188.181 438.552 188.279 438.305 188.333 438.026L189.662 438.031C189.591 438.46 189.454 438.855 189.249 439.215C189.047 439.573 188.787 439.883 188.469 440.144C188.154 440.403 187.793 440.603 187.387 440.745C186.981 440.887 186.537 440.958 186.057 440.958C185.302 440.958 184.628 440.779 184.037 440.421C183.447 440.061 182.981 439.545 182.64 438.875C182.302 438.204 182.133 437.404 182.133 436.475C182.133 435.544 182.303 434.744 182.644 434.076C182.985 433.406 183.451 432.892 184.042 432.534C184.633 432.173 185.305 431.992 186.057 431.992C186.52 431.992 186.952 432.059 187.353 432.193C187.756 432.323 188.118 432.517 188.439 432.772C188.76 433.025 189.026 433.335 189.236 433.701C189.447 434.065 189.589 434.481 189.662 434.95ZM193.041 440.984C192.626 440.984 192.251 440.907 191.916 440.754C191.58 440.598 191.315 440.372 191.119 440.076C190.926 439.781 190.829 439.419 190.829 438.99C190.829 438.62 190.9 438.316 191.042 438.078C191.184 437.839 191.376 437.65 191.617 437.511C191.859 437.372 192.129 437.267 192.427 437.196C192.725 437.125 193.029 437.071 193.339 437.034C193.731 436.988 194.049 436.951 194.294 436.923C194.538 436.892 194.715 436.842 194.826 436.774C194.937 436.705 194.992 436.595 194.992 436.441V436.411C194.992 436.039 194.887 435.751 194.677 435.546C194.47 435.342 194.16 435.24 193.748 435.24C193.319 435.24 192.981 435.335 192.734 435.525C192.49 435.713 192.32 435.921 192.227 436.151L191.029 435.879C191.171 435.481 191.379 435.16 191.651 434.916C191.927 434.669 192.244 434.49 192.602 434.379C192.96 434.265 193.336 434.208 193.731 434.208C193.992 434.208 194.269 434.24 194.562 434.302C194.857 434.362 195.133 434.473 195.389 434.634C195.647 434.796 195.859 435.028 196.024 435.329C196.188 435.627 196.271 436.015 196.271 436.492V440.839H195.026V439.944H194.975C194.893 440.109 194.769 440.271 194.605 440.43C194.44 440.589 194.228 440.721 193.97 440.826C193.711 440.931 193.401 440.984 193.041 440.984ZM193.318 439.961C193.67 439.961 193.971 439.892 194.221 439.752C194.474 439.613 194.666 439.431 194.796 439.207C194.93 438.98 194.997 438.737 194.997 438.478V437.634C194.951 437.68 194.863 437.723 194.732 437.762C194.605 437.799 194.458 437.832 194.294 437.86C194.129 437.886 193.968 437.91 193.812 437.933C193.656 437.953 193.525 437.97 193.42 437.984C193.173 438.015 192.947 438.068 192.742 438.142C192.541 438.215 192.379 438.322 192.257 438.461C192.137 438.598 192.078 438.779 192.078 439.007C192.078 439.322 192.194 439.561 192.427 439.723C192.66 439.882 192.957 439.961 193.318 439.961ZM201.083 434.294V435.316H197.384V434.294H201.083ZM198.398 440.839V433.535C198.398 433.126 198.488 432.786 198.667 432.517C198.846 432.244 199.083 432.041 199.378 431.907C199.674 431.771 199.995 431.703 200.341 431.703C200.597 431.703 200.816 431.724 200.998 431.767C201.18 431.806 201.314 431.843 201.403 431.877L201.104 432.909C201.045 432.892 200.968 432.872 200.874 432.849C200.78 432.823 200.667 432.811 200.533 432.811C200.224 432.811 200.002 432.887 199.868 433.041C199.738 433.194 199.672 433.416 199.672 433.705V440.839H198.398ZM204.961 440.971C204.316 440.971 203.76 440.833 203.295 440.558C202.831 440.279 202.474 439.889 202.221 439.386C201.971 438.88 201.846 438.288 201.846 437.609C201.846 436.938 201.971 436.348 202.221 435.836C202.474 435.325 202.826 434.926 203.278 434.639C203.732 434.352 204.263 434.208 204.871 434.208C205.241 434.208 205.599 434.269 205.945 434.392C206.292 434.514 206.603 434.705 206.878 434.967C207.154 435.228 207.371 435.568 207.53 435.985C207.689 436.4 207.769 436.904 207.769 437.498V437.95H202.566V436.995H206.52C206.52 436.66 206.452 436.363 206.316 436.105C206.18 435.843 205.988 435.637 205.741 435.487C205.496 435.336 205.209 435.261 204.88 435.261C204.522 435.261 204.209 435.349 203.942 435.525C203.678 435.698 203.474 435.926 203.329 436.207C203.187 436.485 203.116 436.788 203.116 437.115V437.86C203.116 438.298 203.192 438.67 203.346 438.977C203.502 439.284 203.719 439.518 203.998 439.68C204.276 439.839 204.601 439.919 204.974 439.919C205.215 439.919 205.435 439.884 205.634 439.816C205.833 439.745 206.005 439.64 206.15 439.501C206.295 439.362 206.405 439.19 206.482 438.985L207.688 439.203C207.591 439.558 207.418 439.869 207.168 440.136C206.921 440.4 206.61 440.606 206.235 440.754C205.863 440.899 205.438 440.971 204.961 440.971ZM204.296 433.42L205.293 431.455H206.635L205.314 433.42H204.296ZM169.471 456.839V448.112H174.942V449.245H170.787V451.904H174.657V453.034H170.787V455.705H174.993V456.839H169.471ZM177.604 450.294L179.049 452.842L180.506 450.294H181.9L179.859 453.566L181.917 456.839H180.523L179.049 454.393L177.579 456.839H176.181L178.218 453.566L176.207 450.294H177.604ZM183.208 459.294V450.294H184.452V451.355H184.559C184.633 451.218 184.739 451.061 184.879 450.882C185.018 450.703 185.211 450.546 185.458 450.413C185.705 450.276 186.032 450.208 186.438 450.208C186.967 450.208 187.438 450.342 187.853 450.609C188.268 450.876 188.593 451.261 188.829 451.764C189.067 452.267 189.187 452.872 189.187 453.579C189.187 454.286 189.069 454.893 188.833 455.399C188.597 455.901 188.273 456.289 187.862 456.562C187.45 456.832 186.979 456.967 186.451 456.967C186.053 456.967 185.728 456.9 185.475 456.767C185.225 456.633 185.029 456.477 184.887 456.298C184.745 456.119 184.636 455.96 184.559 455.821H184.482V459.294H183.208ZM184.457 453.566C184.457 454.026 184.523 454.43 184.657 454.776C184.79 455.123 184.984 455.394 185.237 455.59C185.489 455.784 185.799 455.88 186.165 455.88C186.546 455.88 186.864 455.779 187.12 455.578C187.376 455.373 187.569 455.096 187.7 454.747C187.833 454.397 187.9 454.004 187.9 453.566C187.9 453.134 187.835 452.747 187.704 452.403C187.576 452.059 187.383 451.788 187.124 451.589C186.869 451.39 186.549 451.291 186.165 451.291C185.796 451.291 185.484 451.386 185.228 451.576C184.975 451.767 184.783 452.032 184.653 452.373C184.522 452.714 184.457 453.112 184.457 453.566ZM190.614 456.839V450.294H191.846V451.333H191.914C192.033 450.981 192.244 450.704 192.545 450.502C192.849 450.298 193.192 450.196 193.576 450.196C193.656 450.196 193.749 450.198 193.857 450.204C193.968 450.21 194.055 450.217 194.117 450.225V451.444C194.066 451.43 193.975 451.414 193.844 451.397C193.714 451.377 193.583 451.367 193.452 451.367C193.151 451.367 192.883 451.431 192.647 451.559C192.414 451.684 192.229 451.859 192.093 452.083C191.957 452.305 191.888 452.558 191.888 452.842V456.839H190.614ZM197.806 456.971C197.162 456.971 196.606 456.833 196.14 456.558C195.677 456.279 195.319 455.889 195.066 455.386C194.816 454.88 194.691 454.288 194.691 453.609C194.691 452.938 194.816 452.348 195.066 451.836C195.319 451.325 195.672 450.926 196.123 450.639C196.578 450.352 197.109 450.208 197.717 450.208C198.086 450.208 198.444 450.269 198.791 450.392C199.137 450.514 199.449 450.705 199.724 450.967C200 451.228 200.217 451.568 200.376 451.985C200.535 452.4 200.615 452.904 200.615 453.498V453.95H195.412V452.995H199.366C199.366 452.66 199.298 452.363 199.162 452.105C199.025 451.843 198.833 451.637 198.586 451.487C198.342 451.336 198.055 451.261 197.725 451.261C197.368 451.261 197.055 451.349 196.788 451.525C196.524 451.698 196.319 451.926 196.174 452.207C196.032 452.485 195.961 452.788 195.961 453.115V453.86C195.961 454.298 196.038 454.67 196.191 454.977C196.348 455.284 196.565 455.518 196.843 455.68C197.122 455.839 197.447 455.919 197.819 455.919C198.061 455.919 198.281 455.884 198.48 455.816C198.679 455.745 198.85 455.64 198.995 455.501C199.14 455.362 199.251 455.19 199.328 454.985L200.534 455.203C200.437 455.558 200.264 455.869 200.014 456.136C199.767 456.4 199.456 456.606 199.081 456.754C198.708 456.899 198.284 456.971 197.806 456.971ZM206.933 451.892L205.778 452.096C205.73 451.948 205.653 451.808 205.548 451.674C205.446 451.541 205.307 451.431 205.131 451.346C204.955 451.261 204.734 451.218 204.47 451.218C204.109 451.218 203.808 451.299 203.567 451.461C203.325 451.62 203.205 451.826 203.205 452.079C203.205 452.298 203.286 452.474 203.447 452.607C203.609 452.741 203.871 452.85 204.232 452.936L205.271 453.174C205.874 453.313 206.322 453.528 206.618 453.818C206.913 454.107 207.061 454.484 207.061 454.947C207.061 455.339 206.947 455.688 206.72 455.995C206.496 456.299 206.182 456.538 205.778 456.711C205.378 456.884 204.913 456.971 204.385 456.971C203.652 456.971 203.054 456.815 202.591 456.502C202.128 456.187 201.844 455.74 201.739 455.16L202.97 454.973C203.047 455.294 203.205 455.536 203.443 455.701C203.682 455.863 203.993 455.944 204.376 455.944C204.794 455.944 205.128 455.857 205.378 455.684C205.628 455.508 205.753 455.294 205.753 455.041C205.753 454.836 205.676 454.664 205.523 454.525C205.372 454.386 205.141 454.281 204.828 454.21L203.72 453.967C203.109 453.828 202.658 453.606 202.365 453.302C202.075 452.998 201.93 452.613 201.93 452.147C201.93 451.761 202.038 451.423 202.254 451.133C202.47 450.843 202.768 450.617 203.149 450.455C203.53 450.291 203.966 450.208 204.457 450.208C205.165 450.208 205.722 450.362 206.128 450.669C206.534 450.973 206.803 451.38 206.933 451.892ZM213.367 451.892L212.212 452.096C212.164 451.948 212.087 451.808 211.982 451.674C211.88 451.541 211.74 451.431 211.564 451.346C211.388 451.261 211.168 451.218 210.904 451.218C210.543 451.218 210.242 451.299 210 451.461C209.759 451.62 209.638 451.826 209.638 452.079C209.638 452.298 209.719 452.474 209.881 452.607C210.043 452.741 210.304 452.85 210.665 452.936L211.705 453.174C212.307 453.313 212.756 453.528 213.051 453.818C213.347 454.107 213.495 454.484 213.495 454.947C213.495 455.339 213.381 455.688 213.154 455.995C212.929 456.299 212.615 456.538 212.212 456.711C211.811 456.884 211.347 456.971 210.819 456.971C210.086 456.971 209.488 456.815 209.025 456.502C208.561 456.187 208.277 455.74 208.172 455.16L209.404 454.973C209.48 455.294 209.638 455.536 209.877 455.701C210.115 455.863 210.426 455.944 210.81 455.944C211.228 455.944 211.561 455.857 211.811 455.684C212.061 455.508 212.186 455.294 212.186 455.041C212.186 454.836 212.11 454.664 211.956 454.525C211.806 454.386 211.574 454.281 211.262 454.21L210.154 453.967C209.543 453.828 209.091 453.606 208.799 453.302C208.509 452.998 208.364 452.613 208.364 452.147C208.364 451.761 208.472 451.423 208.688 451.133C208.904 450.843 209.202 450.617 209.583 450.455C209.963 450.291 210.4 450.208 210.891 450.208C211.598 450.208 212.155 450.362 212.561 450.669C212.968 450.973 213.236 451.38 213.367 451.892ZM217.653 456.971C217.039 456.971 216.504 456.83 216.046 456.549C215.589 456.268 215.234 455.875 214.981 455.369C214.728 454.863 214.602 454.272 214.602 453.596C214.602 452.917 214.728 452.323 214.981 451.815C215.234 451.306 215.589 450.911 216.046 450.63C216.504 450.349 217.039 450.208 217.653 450.208C218.266 450.208 218.802 450.349 219.259 450.63C219.717 450.911 220.072 451.306 220.325 451.815C220.577 452.323 220.704 452.917 220.704 453.596C220.704 454.272 220.577 454.863 220.325 455.369C220.072 455.875 219.717 456.268 219.259 456.549C218.802 456.83 218.266 456.971 217.653 456.971ZM217.657 455.901C218.055 455.901 218.384 455.796 218.646 455.586C218.907 455.376 219.1 455.096 219.225 454.747C219.353 454.397 219.417 454.012 219.417 453.592C219.417 453.174 219.353 452.791 219.225 452.441C219.1 452.089 218.907 451.806 218.646 451.593C218.384 451.38 218.055 451.274 217.657 451.274C217.256 451.274 216.924 451.38 216.66 451.593C216.398 451.806 216.204 452.089 216.076 452.441C215.951 452.791 215.888 453.174 215.888 453.592C215.888 454.012 215.951 454.397 216.076 454.747C216.204 455.096 216.398 455.376 216.66 455.586C216.924 455.796 217.256 455.901 217.657 455.901Z" fill="#191919"/>
<path d="M252.391 436.839C252.391 440.153 249.704 442.839 246.391 442.839C243.077 442.839 240.391 440.153 240.391 436.839C240.391 433.525 243.077 430.839 246.391 430.839C249.704 430.839 252.391 433.525 252.391 436.839Z" fill="#1D5E52"/>
<path d="M270.586 432.112H272.184L274.962 438.896H275.064L277.843 432.112H279.441V440.839H278.188V434.524H278.107L275.533 440.826H274.493L271.92 434.519H271.839V440.839H270.586V432.112ZM281.253 440.839V434.294H282.527V440.839H281.253ZM281.896 433.284C281.675 433.284 281.485 433.21 281.325 433.062C281.169 432.911 281.091 432.732 281.091 432.525C281.091 432.315 281.169 432.136 281.325 431.988C281.485 431.838 281.675 431.762 281.896 431.762C282.118 431.762 282.307 431.838 282.463 431.988C282.622 432.136 282.702 432.315 282.702 432.525C282.702 432.732 282.622 432.911 282.463 433.062C282.307 433.21 282.118 433.284 281.896 433.284ZM285.515 436.953V440.839H284.241V434.294H285.464V435.359H285.545C285.696 435.012 285.932 434.734 286.253 434.524C286.577 434.313 286.984 434.208 287.476 434.208C287.922 434.208 288.312 434.302 288.648 434.49C288.983 434.674 289.243 434.95 289.427 435.316C289.612 435.683 289.704 436.136 289.704 436.676V440.839H288.43V436.829C288.43 436.355 288.307 435.984 288.059 435.717C287.812 435.447 287.473 435.312 287.041 435.312C286.746 435.312 286.483 435.376 286.253 435.504C286.025 435.632 285.845 435.819 285.711 436.066C285.581 436.311 285.515 436.606 285.515 436.953ZM291.413 440.839V434.294H292.687V440.839H291.413ZM292.057 433.284C291.835 433.284 291.645 433.21 291.486 433.062C291.329 432.911 291.251 432.732 291.251 432.525C291.251 432.315 291.329 432.136 291.486 431.988C291.645 431.838 291.835 431.762 292.057 431.762C292.278 431.762 292.467 431.838 292.623 431.988C292.782 432.136 292.862 432.315 292.862 432.525C292.862 432.732 292.782 432.911 292.623 433.062C292.467 433.21 292.278 433.284 292.057 433.284ZM266.883 450.95H265.554C265.502 450.666 265.407 450.416 265.268 450.2C265.129 449.984 264.958 449.801 264.757 449.65C264.555 449.5 264.329 449.386 264.079 449.309C263.832 449.232 263.569 449.194 263.291 449.194C262.788 449.194 262.338 449.321 261.94 449.573C261.545 449.826 261.233 450.197 261.002 450.686C260.775 451.174 260.662 451.771 260.662 452.475C260.662 453.186 260.775 453.785 261.002 454.274C261.233 454.762 261.547 455.132 261.944 455.382C262.342 455.632 262.789 455.757 263.287 455.757C263.562 455.757 263.824 455.72 264.071 455.646C264.321 455.569 264.547 455.457 264.748 455.309C264.95 455.161 265.12 454.981 265.26 454.768C265.402 454.552 265.5 454.305 265.554 454.026L266.883 454.031C266.812 454.46 266.674 454.855 266.47 455.215C266.268 455.573 266.008 455.883 265.69 456.144C265.375 456.403 265.014 456.603 264.608 456.745C264.201 456.887 263.758 456.958 263.278 456.958C262.522 456.958 261.849 456.779 261.258 456.421C260.667 456.061 260.201 455.545 259.86 454.875C259.522 454.204 259.353 453.404 259.353 452.475C259.353 451.544 259.524 450.744 259.865 450.076C260.206 449.406 260.672 448.892 261.262 448.534C261.853 448.173 262.525 447.992 263.278 447.992C263.741 447.992 264.173 448.059 264.574 448.193C264.977 448.323 265.339 448.517 265.66 448.772C265.981 449.025 266.247 449.335 266.457 449.701C266.667 450.065 266.809 450.481 266.883 450.95ZM269.631 452.953V456.839H268.357V448.112H269.614V451.359H269.695C269.848 451.007 270.082 450.727 270.398 450.519C270.713 450.312 271.125 450.208 271.634 450.208C272.082 450.208 272.474 450.301 272.81 450.485C273.148 450.67 273.409 450.946 273.594 451.312C273.781 451.676 273.875 452.13 273.875 452.676V456.839H272.601V452.829C272.601 452.349 272.477 451.977 272.23 451.713C271.983 451.446 271.639 451.312 271.199 451.312C270.898 451.312 270.628 451.376 270.389 451.504C270.153 451.632 269.967 451.819 269.831 452.066C269.697 452.311 269.631 452.606 269.631 452.953ZM279.722 454.125V450.294H281V456.839H279.747V455.705H279.679C279.528 456.055 279.287 456.346 278.955 456.579C278.625 456.809 278.214 456.924 277.723 456.924C277.303 456.924 276.93 456.832 276.607 456.647C276.286 456.46 276.033 456.183 275.848 455.816C275.666 455.45 275.575 454.997 275.575 454.457V450.294H276.849V454.303C276.849 454.75 276.973 455.105 277.22 455.369C277.467 455.633 277.788 455.765 278.183 455.765C278.422 455.765 278.659 455.705 278.895 455.586C279.134 455.467 279.331 455.286 279.487 455.045C279.646 454.803 279.724 454.497 279.722 454.125ZM282.712 456.839V450.294H283.944V451.333H284.012C284.131 450.981 284.341 450.704 284.642 450.502C284.946 450.298 285.29 450.196 285.674 450.196C285.753 450.196 285.847 450.198 285.955 450.204C286.066 450.21 286.152 450.217 286.215 450.225V451.444C286.164 451.43 286.073 451.414 285.942 451.397C285.811 451.377 285.681 451.367 285.55 451.367C285.249 451.367 284.98 451.431 284.745 451.559C284.512 451.684 284.327 451.859 284.191 452.083C284.054 452.305 283.986 452.558 283.986 452.842V456.839H282.712ZM287.317 456.839V450.294H288.549V451.333H288.617C288.737 450.981 288.947 450.704 289.248 450.502C289.552 450.298 289.896 450.196 290.279 450.196C290.359 450.196 290.452 450.198 290.56 450.204C290.671 450.21 290.758 450.217 290.82 450.225V451.444C290.769 451.43 290.678 451.414 290.548 451.397C290.417 451.377 290.286 451.367 290.156 451.367C289.854 451.367 289.586 451.431 289.35 451.559C289.117 451.684 288.933 451.859 288.796 452.083C288.66 452.305 288.592 452.558 288.592 452.842V456.839H287.317ZM294.446 456.971C293.832 456.971 293.297 456.83 292.839 456.549C292.382 456.268 292.027 455.875 291.774 455.369C291.521 454.863 291.395 454.272 291.395 453.596C291.395 452.917 291.521 452.323 291.774 451.815C292.027 451.306 292.382 450.911 292.839 450.63C293.297 450.349 293.832 450.208 294.446 450.208C295.059 450.208 295.595 450.349 296.052 450.63C296.51 450.911 296.865 451.306 297.118 451.815C297.37 452.323 297.497 452.917 297.497 453.596C297.497 454.272 297.37 454.863 297.118 455.369C296.865 455.875 296.51 456.268 296.052 456.549C295.595 456.83 295.059 456.971 294.446 456.971ZM294.45 455.901C294.848 455.901 295.177 455.796 295.439 455.586C295.7 455.376 295.893 455.096 296.018 454.747C296.146 454.397 296.21 454.012 296.21 453.592C296.21 453.174 296.146 452.791 296.018 452.441C295.893 452.089 295.7 451.806 295.439 451.593C295.177 451.38 294.848 451.274 294.45 451.274C294.049 451.274 293.717 451.38 293.453 451.593C293.191 451.806 292.997 452.089 292.869 452.441C292.744 452.791 292.681 453.174 292.681 453.592C292.681 454.012 292.744 454.397 292.869 454.747C292.997 455.096 293.191 455.376 293.453 455.586C293.717 455.796 294.049 455.901 294.45 455.901ZM303.824 451.892L302.669 452.096C302.621 451.948 302.544 451.808 302.439 451.674C302.337 451.541 302.197 451.431 302.021 451.346C301.845 451.261 301.625 451.218 301.361 451.218C301 451.218 300.699 451.299 300.457 451.461C300.216 451.62 300.095 451.826 300.095 452.079C300.095 452.298 300.176 452.474 300.338 452.607C300.5 452.741 300.761 452.85 301.122 452.936L302.162 453.174C302.764 453.313 303.213 453.528 303.509 453.818C303.804 454.107 303.952 454.484 303.952 454.947C303.952 455.339 303.838 455.688 303.611 455.995C303.386 456.299 303.072 456.538 302.669 456.711C302.268 456.884 301.804 456.971 301.276 456.971C300.543 456.971 299.945 456.815 299.482 456.502C299.018 456.187 298.734 455.74 298.629 455.16L299.861 454.973C299.938 455.294 300.095 455.536 300.334 455.701C300.572 455.863 300.884 455.944 301.267 455.944C301.685 455.944 302.018 455.857 302.268 455.684C302.518 455.508 302.643 455.294 302.643 455.041C302.643 454.836 302.567 454.664 302.413 454.525C302.263 454.386 302.031 454.281 301.719 454.21L300.611 453.967C300 453.828 299.548 453.606 299.256 453.302C298.966 452.998 298.821 452.613 298.821 452.147C298.821 451.761 298.929 451.423 299.145 451.133C299.361 450.843 299.659 450.617 300.04 450.455C300.42 450.291 300.857 450.208 301.348 450.208C302.055 450.208 302.612 450.362 303.018 450.669C303.425 450.973 303.693 451.38 303.824 451.892Z" fill="#191919"/>
</g>
<defs>
<filter id="filter0_d_93_124" x="0" y="0" width="373" height="511.839" filterUnits="userSpaceOnUse" color-interpolation-filters="sRGB">
<feFlood flood-opacity="0" result="BackgroundImageFix"/>
<feColorMatrix in="SourceAlpha" type="matrix" values="0 0 0 0 0 0 0 0 0 0 0 0 0 0 0 0 0 0 127 0" result="hardAlpha"/>
<feOffset dy="4"/>
<feGaussianBlur stdDeviation="2"/>
<feComposite in2="hardAlpha" operator="out"/>
<feColorMatrix type="matrix" values="0 0 0 0 0 0 0 0 0 0 0 0 0 0 0 0 0 0 0.25 0"/>
<feBlend mode="normal" in2="BackgroundImageFix" result="effect1_dropShadow_93_124"/>
<feBlend mode="normal" in="SourceGraphic" in2="effect1_dropShadow_93_124" result="shape"/>
</filter>
</defs>
</svg>
