<svg width="50" height="50" viewBox="0 0 50 50" fill="none" xmlns="http://www.w3.org/2000/svg">
<path d="M42.1875 8.20312H7.8125C7.0873 8.20313 6.3918 8.49121 5.87901 9.00401C5.36621 9.5168 5.07813 10.2123 5.07813 10.9375V42.1875C5.07807 42.3872 5.12905 42.5836 5.22624 42.7581C5.32344 42.9326 5.46361 43.0793 5.63345 43.1844C5.8033 43.2895 5.99719 43.3494 6.1967 43.3585C6.39622 43.3676 6.59475 43.3255 6.77344 43.2363L12.5 40.373L18.2266 43.2363C18.3891 43.3175 18.5683 43.3597 18.75 43.3597C18.9317 43.3597 19.1109 43.3175 19.2734 43.2363L25 40.373L30.7266 43.2363C30.8891 43.3175 31.0683 43.3597 31.25 43.3597C31.4317 43.3597 31.6109 43.3175 31.7734 43.2363L37.5 40.373L43.2266 43.2363C43.3891 43.3174 43.5683 43.3595 43.75 43.3594C43.9675 43.3597 44.1807 43.2988 44.3652 43.1836C44.5352 43.0788 44.6756 42.9322 44.773 42.7579C44.8704 42.5835 44.9217 42.3872 44.9219 42.1875V10.9375C44.9219 10.2123 44.6338 9.5168 44.121 9.00401C43.6082 8.49121 42.9127 8.20313 42.1875 8.20312ZM42.5781 40.291L38.0234 38.0137C37.8609 37.9325 37.6817 37.8903 37.5 37.8903C37.3183 37.8903 37.1391 37.9325 36.9766 38.0137L31.25 40.877L25.5234 38.0137C25.3609 37.9325 25.1817 37.8903 25 37.8903C24.8183 37.8903 24.6391 37.9325 24.4766 38.0137L18.75 40.877L13.0234 38.0137C12.8609 37.9325 12.6817 37.8903 12.5 37.8903C12.3183 37.8903 12.1391 37.9325 11.9766 38.0137L7.42188 40.291V10.9375C7.42188 10.8339 7.46303 10.7345 7.53629 10.6613C7.60954 10.588 7.7089 10.5469 7.8125 10.5469H42.1875C42.2911 10.5469 42.3905 10.588 42.4637 10.6613C42.537 10.7345 42.5781 10.8339 42.5781 10.9375V40.291ZM38.6719 21.875C38.6719 22.1858 38.5484 22.4839 38.3286 22.7036C38.1089 22.9234 37.8108 23.0469 37.5 23.0469H28.125C27.8142 23.0469 27.5161 22.9234 27.2964 22.7036C27.0766 22.4839 26.9531 22.1858 26.9531 21.875C26.9531 21.5642 27.0766 21.2661 27.2964 21.0464C27.5161 20.8266 27.8142 20.7031 28.125 20.7031H37.5C37.8108 20.7031 38.1089 20.8266 38.3286 21.0464C38.5484 21.2661 38.6719 21.5642 38.6719 21.875ZM38.6719 28.125C38.6719 28.4358 38.5484 28.7339 38.3286 28.9536C38.1089 29.1734 37.8108 29.2969 37.5 29.2969H28.125C27.8142 29.2969 27.5161 29.1734 27.2964 28.9536C27.0766 28.7339 26.9531 28.4358 26.9531 28.125C26.9531 27.8142 27.0766 27.5161 27.2964 27.2964C27.5161 27.0766 27.8142 26.9531 28.125 26.9531H37.5C37.8108 26.9531 38.1089 27.0766 38.3286 27.2964C38.5484 27.5161 38.6719 27.8142 38.6719 28.125ZM21.875 17.5781H12.5C12.1892 17.5781 11.8911 17.7016 11.6714 17.9214C11.4516 18.1411 11.3281 18.4392 11.3281 18.75V31.25C11.3281 31.5608 11.4516 31.8589 11.6714 32.0786C11.8911 32.2984 12.1892 32.4219 12.5 32.4219H21.875C22.1858 32.4219 22.4839 32.2984 22.7036 32.0786C22.9234 31.8589 23.0469 31.5608 23.0469 31.25V18.75C23.0469 18.4392 22.9234 18.1411 22.7036 17.9214C22.4839 17.7016 22.1858 17.5781 21.875 17.5781ZM20.7031 30.0781H13.6719V19.9219H20.7031V30.0781Z" fill="#27D3B3"/>
</svg>
