<svg width="50" height="50" viewBox="0 0 50 50" fill="none" xmlns="http://www.w3.org/2000/svg">
<path d="M45.9649 27.2031L42.1446 31.0215C42.0003 31.1656 41.8055 31.2476 41.6016 31.25H33.461L27.211 25L33.461 18.75H41.6016C41.8082 18.7504 42.0062 18.8325 42.1524 18.9785L45.9727 22.7969C46.5537 23.3834 46.879 24.176 46.8775 25.0016C46.876 25.8272 46.548 26.6187 45.9649 27.2031ZM13.0957 15.625H17.1875C17.6014 15.6252 17.9983 15.7896 18.2911 16.082L25 22.7891L31.709 16.082C32.0018 15.7896 32.3987 15.6252 32.8125 15.625H36.9141C37.0687 15.6251 37.2199 15.5794 37.3485 15.4935C37.477 15.4077 37.5773 15.2856 37.6365 15.1428C37.6956 15 37.7111 14.8428 37.6809 14.6912C37.6507 14.5395 37.5762 14.4003 37.4668 14.291L27.2129 4.03516C26.6274 3.45313 25.8354 3.12643 25.0098 3.12643C24.1842 3.12643 23.3922 3.45313 22.8067 4.03516L12.543 14.291C12.4336 14.4003 12.3591 14.5395 12.3289 14.6912C12.2987 14.8428 12.3142 15 12.3734 15.1428C12.4326 15.2856 12.5328 15.4077 12.6614 15.4935C12.79 15.5794 12.9411 15.6251 13.0957 15.625ZM36.9141 34.375H32.8125C32.3987 34.3748 32.0018 34.2104 31.709 33.918L25 27.209L18.2911 33.918C17.9983 34.2104 17.6014 34.3748 17.1875 34.375H13.086C12.9314 34.3749 12.7802 34.4206 12.6516 34.5065C12.523 34.5923 12.4228 34.7144 12.3636 34.8572C12.3044 35 12.289 35.1572 12.3192 35.3088C12.3493 35.4605 12.4239 35.5997 12.5332 35.709L22.7871 45.9648C23.3727 46.5469 24.1647 46.8736 24.9903 46.8736C25.8158 46.8736 26.6079 46.5469 27.1934 45.9648L37.4473 35.709C37.5556 35.6009 37.6298 35.4634 37.6606 35.3136C37.6915 35.1637 37.6776 35.0081 37.6209 34.8661C37.5641 34.724 37.4668 34.6017 37.3412 34.5144C37.2155 34.4272 37.067 34.3787 36.9141 34.375ZM22.8008 25L16.5508 18.75H8.39847C8.19189 18.7504 7.99385 18.8325 7.84769 18.9785L4.03519 22.7969C3.45316 23.3824 3.12646 24.1744 3.12646 25C3.12646 25.8256 3.45316 26.6176 4.03519 27.2031L7.8555 31.0215C7.99974 31.1656 8.1946 31.2476 8.39847 31.25H16.5391L22.8008 25Z" fill="#27D3B3"/>
</svg>
