<svg width="88" height="88" viewBox="0 0 88 88" fill="none" xmlns="http://www.w3.org/2000/svg">
<path d="M77 13.75V27.5C77 28.2293 76.7103 28.9288 76.1945 29.4445C75.6788 29.9603 74.9793 30.25 74.25 30.25C73.5207 30.25 72.8212 29.9603 72.3055 29.4445C71.7897 28.9288 71.5 28.2293 71.5 27.5V16.5H60.5C59.7707 16.5 59.0712 16.2103 58.5555 15.6945C58.0397 15.1788 57.75 14.4793 57.75 13.75C57.75 13.0207 58.0397 12.3212 58.5555 11.8055C59.0712 11.2897 59.7707 11 60.5 11H74.25C74.9793 11 75.6788 11.2897 76.1945 11.8055C76.7103 12.3212 77 13.0207 77 13.75ZM27.5 71.5H16.5V60.5C16.5 59.7707 16.2103 59.0712 15.6945 58.5555C15.1788 58.0397 14.4793 57.75 13.75 57.75C13.0207 57.75 12.3212 58.0397 11.8055 58.5555C11.2897 59.0712 11 59.7707 11 60.5V74.25C11 74.9793 11.2897 75.6788 11.8055 76.1945C12.3212 76.7103 13.0207 77 13.75 77H27.5C28.2293 77 28.9288 76.7103 29.4445 76.1945C29.9603 75.6788 30.25 74.9793 30.25 74.25C30.25 73.5207 29.9603 72.8212 29.4445 72.3055C28.9288 71.7897 28.2293 71.5 27.5 71.5ZM74.25 57.75C73.5207 57.75 72.8212 58.0397 72.3055 58.5555C71.7897 59.0712 71.5 59.7707 71.5 60.5V71.5H60.5C59.7707 71.5 59.0712 71.7897 58.5555 72.3055C58.0397 72.8212 57.75 73.5207 57.75 74.25C57.75 74.9793 58.0397 75.6788 58.5555 76.1945C59.0712 76.7103 59.7707 77 60.5 77H74.25C74.9793 77 75.6788 76.7103 76.1945 76.1945C76.7103 75.6788 77 74.9793 77 74.25V60.5C77 59.7707 76.7103 59.0712 76.1945 58.5555C75.6788 58.0397 74.9793 57.75 74.25 57.75ZM13.75 30.25C14.4793 30.25 15.1788 29.9603 15.6945 29.4445C16.2103 28.9288 16.5 28.2293 16.5 27.5V16.5H27.5C28.2293 16.5 28.9288 16.2103 29.4445 15.6945C29.9603 15.1788 30.25 14.4793 30.25 13.75C30.25 13.0207 29.9603 12.3212 29.4445 11.8055C28.9288 11.2897 28.2293 11 27.5 11H13.75C13.0207 11 12.3212 11.2897 11.8055 11.8055C11.2897 12.3212 11 13.0207 11 13.75V27.5C11 28.2293 11.2897 28.9288 11.8055 29.4445C12.3212 29.9603 13.0207 30.25 13.75 30.25ZM24.75 27.5V60.5C24.75 61.2293 25.0397 61.9288 25.5555 62.4445C26.0712 62.9603 26.7707 63.25 27.5 63.25H60.5C61.2293 63.25 61.9288 62.9603 62.4445 62.4445C62.9603 61.9288 63.25 61.2293 63.25 60.5V27.5C63.25 26.7707 62.9603 26.0712 62.4445 25.5555C61.9288 25.0397 61.2293 24.75 60.5 24.75H27.5C26.7707 24.75 26.0712 25.0397 25.5555 25.5555C25.0397 26.0712 24.75 26.7707 24.75 27.5Z" fill="#27D3B3"/>
</svg>
