<svg width="415" height="799" viewBox="0 0 415 799" fill="none" xmlns="http://www.w3.org/2000/svg">
<g filter="url(#filter0_d_16_159)">
<rect x="25" y="5" width="365" height="749" rx="8" fill="white"/>
<mask id="path-2-inside-1_16_159" fill="white">
<path d="M58.5 99.1341H356.5V187.134H58.5V99.1341Z"/>
</mask>
<path d="M356.5 186.134H58.5V188.134H356.5V186.134Z" fill="#F3F3F3" mask="url(#path-2-inside-1_16_159)"/>
<rect x="58.5" y="123.134" width="40" height="40" rx="8" fill="#D2D2D2" fill-opacity="0.25"/>
<path d="M72.5 153.134C71.95 153.134 71.479 152.938 71.087 152.546C70.695 152.154 70.4993 151.683 70.5 151.134V139.134C70.5 138.584 70.696 138.113 71.088 137.721C71.48 137.329 71.9507 137.133 72.5 137.134H74.5C74.5 136.034 74.8917 135.092 75.675 134.309C76.4583 133.526 77.4 133.134 78.5 133.134C79.6 133.134 80.5417 133.526 81.325 134.309C82.1083 135.092 82.5 136.034 82.5 137.134H84.5C85.05 137.134 85.521 137.33 85.913 137.722C86.305 138.114 86.5007 138.585 86.5 139.134V151.134C86.5 151.684 86.304 152.155 85.912 152.547C85.52 152.939 85.0493 153.135 84.5 153.134H72.5ZM72.5 151.134H84.5V139.134H82.5V141.134C82.5 141.417 82.404 141.655 82.212 141.847C82.02 142.039 81.7827 142.135 81.5 142.134C81.2167 142.134 80.979 142.038 80.787 141.846C80.595 141.654 80.4993 141.417 80.5 141.134V139.134H76.5V141.134C76.5 141.417 76.404 141.655 76.212 141.847C76.02 142.039 75.7827 142.135 75.5 142.134C75.2167 142.134 74.979 142.038 74.787 141.846C74.595 141.654 74.4993 141.417 74.5 141.134V139.134H72.5V151.134ZM76.5 137.134H80.5C80.5 136.584 80.304 136.113 79.912 135.721C79.52 135.329 79.0493 135.133 78.5 135.134C77.95 135.134 77.479 135.33 77.087 135.722C76.695 136.114 76.4993 136.585 76.5 137.134Z" fill="#191919"/>
<path d="M125.21 129.498V141.134H123.335L117.852 133.208H117.756V141.134H115.648V129.498H117.534L123.011 137.43H123.114V129.498H125.21ZM131.223 141.305C130.371 141.305 129.632 141.117 129.007 140.742C128.382 140.367 127.897 139.842 127.553 139.168C127.212 138.494 127.041 137.706 127.041 136.805C127.041 135.903 127.212 135.113 127.553 134.435C127.897 133.757 128.382 133.231 129.007 132.856C129.632 132.481 130.371 132.293 131.223 132.293C132.075 132.293 132.814 132.481 133.439 132.856C134.064 133.231 134.547 133.757 134.888 134.435C135.232 135.113 135.405 135.903 135.405 136.805C135.405 137.706 135.232 138.494 134.888 139.168C134.547 139.842 134.064 140.367 133.439 140.742C132.814 141.117 132.075 141.305 131.223 141.305ZM131.234 139.657C131.696 139.657 132.083 139.53 132.393 139.276C132.704 139.019 132.935 138.674 133.087 138.242C133.242 137.81 133.32 137.329 133.32 136.799C133.32 136.265 133.242 135.782 133.087 135.35C132.935 134.914 132.704 134.568 132.393 134.31C132.083 134.053 131.696 133.924 131.234 133.924C130.761 133.924 130.367 134.053 130.053 134.31C129.742 134.568 129.509 134.914 129.354 135.35C129.202 135.782 129.126 136.265 129.126 136.799C129.126 137.329 129.202 137.81 129.354 138.242C129.509 138.674 129.742 139.019 130.053 139.276C130.367 139.53 130.761 139.657 131.234 139.657ZM137.151 141.134V132.407H139.116V133.89H139.219C139.401 133.39 139.702 133 140.122 132.719C140.543 132.435 141.045 132.293 141.628 132.293C142.219 132.293 142.717 132.437 143.122 132.725C143.531 133.009 143.819 133.397 143.986 133.89H144.077C144.27 133.405 144.596 133.019 145.054 132.731C145.516 132.439 146.063 132.293 146.696 132.293C147.499 132.293 148.154 132.547 148.662 133.055C149.17 133.562 149.423 134.303 149.423 135.276V141.134H147.361V135.594C147.361 135.053 147.217 134.657 146.929 134.407C146.641 134.153 146.289 134.026 145.872 134.026C145.376 134.026 144.988 134.181 144.707 134.492C144.431 134.799 144.293 135.198 144.293 135.691V141.134H142.276V135.509C142.276 135.058 142.139 134.698 141.866 134.43C141.598 134.161 141.245 134.026 140.81 134.026C140.514 134.026 140.245 134.102 140.003 134.253C139.76 134.401 139.567 134.611 139.423 134.884C139.279 135.153 139.207 135.467 139.207 135.827V141.134H137.151ZM155.374 141.305C154.499 141.305 153.743 141.123 153.107 140.759C152.474 140.392 151.987 139.873 151.646 139.202C151.305 138.528 151.135 137.734 151.135 136.822C151.135 135.924 151.305 135.136 151.646 134.458C151.991 133.776 152.472 133.246 153.089 132.867C153.707 132.484 154.432 132.293 155.266 132.293C155.804 132.293 156.311 132.38 156.788 132.555C157.269 132.725 157.694 132.99 158.061 133.35C158.432 133.71 158.724 134.168 158.936 134.725C159.148 135.278 159.254 135.937 159.254 136.702V137.333H152.101V135.947H157.283C157.279 135.553 157.194 135.202 157.027 134.895C156.86 134.585 156.627 134.341 156.328 134.163C156.033 133.984 155.688 133.895 155.294 133.895C154.874 133.895 154.504 133.998 154.186 134.202C153.868 134.403 153.62 134.668 153.442 134.998C153.268 135.323 153.179 135.681 153.175 136.072V137.282C153.175 137.789 153.268 138.225 153.453 138.589C153.639 138.948 153.898 139.225 154.232 139.418C154.565 139.608 154.955 139.702 155.402 139.702C155.701 139.702 155.972 139.661 156.214 139.577C156.457 139.49 156.667 139.363 156.845 139.197C157.023 139.03 157.158 138.823 157.249 138.577L159.169 138.793C159.048 139.301 158.817 139.744 158.476 140.123C158.139 140.498 157.707 140.789 157.18 140.998C156.654 141.202 156.052 141.305 155.374 141.305ZM168.202 141.288C167.516 141.288 166.902 141.111 166.361 140.759C165.819 140.407 165.391 139.895 165.077 139.225C164.762 138.555 164.605 137.74 164.605 136.782C164.605 135.812 164.764 134.994 165.082 134.327C165.404 133.657 165.838 133.151 166.384 132.81C166.929 132.466 167.537 132.293 168.207 132.293C168.719 132.293 169.139 132.38 169.469 132.555C169.798 132.725 170.06 132.931 170.253 133.174C170.446 133.413 170.596 133.638 170.702 133.85H170.787V129.498H172.849V141.134H170.827V139.759H170.702C170.596 139.971 170.442 140.197 170.241 140.435C170.041 140.67 169.776 140.871 169.446 141.038C169.116 141.204 168.702 141.288 168.202 141.288ZM168.776 139.6C169.211 139.6 169.582 139.483 169.889 139.248C170.196 139.009 170.429 138.678 170.588 138.253C170.747 137.829 170.827 137.335 170.827 136.77C170.827 136.206 170.747 135.716 170.588 135.299C170.433 134.882 170.202 134.558 169.895 134.327C169.592 134.096 169.219 133.981 168.776 133.981C168.317 133.981 167.935 134.1 167.628 134.339C167.321 134.577 167.09 134.907 166.935 135.327C166.779 135.748 166.702 136.229 166.702 136.77C166.702 137.316 166.779 137.803 166.935 138.231C167.094 138.655 167.327 138.99 167.634 139.236C167.944 139.479 168.325 139.6 168.776 139.6ZM178.848 141.305C177.996 141.305 177.257 141.117 176.632 140.742C176.007 140.367 175.522 139.842 175.178 139.168C174.837 138.494 174.666 137.706 174.666 136.805C174.666 135.903 174.837 135.113 175.178 134.435C175.522 133.757 176.007 133.231 176.632 132.856C177.257 132.481 177.996 132.293 178.848 132.293C179.7 132.293 180.439 132.481 181.064 132.856C181.689 133.231 182.172 133.757 182.513 134.435C182.857 135.113 183.03 135.903 183.03 136.805C183.03 137.706 182.857 138.494 182.513 139.168C182.172 139.842 181.689 140.367 181.064 140.742C180.439 141.117 179.7 141.305 178.848 141.305ZM178.859 139.657C179.321 139.657 179.708 139.53 180.018 139.276C180.329 139.019 180.56 138.674 180.712 138.242C180.867 137.81 180.945 137.329 180.945 136.799C180.945 136.265 180.867 135.782 180.712 135.35C180.56 134.914 180.329 134.568 180.018 134.31C179.708 134.053 179.321 133.924 178.859 133.924C178.386 133.924 177.992 134.053 177.678 134.31C177.367 134.568 177.134 134.914 176.979 135.35C176.827 135.782 176.751 136.265 176.751 136.799C176.751 137.329 176.827 137.81 176.979 138.242C177.134 138.674 177.367 139.019 177.678 139.276C177.992 139.53 178.386 139.657 178.859 139.657ZM188.744 144.407V132.407H190.767V133.85H190.886C190.992 133.638 191.142 133.413 191.335 133.174C191.528 132.931 191.79 132.725 192.119 132.555C192.449 132.38 192.869 132.293 193.381 132.293C194.055 132.293 194.663 132.466 195.205 132.81C195.75 133.151 196.182 133.657 196.5 134.327C196.822 134.994 196.983 135.812 196.983 136.782C196.983 137.74 196.826 138.555 196.511 139.225C196.197 139.895 195.769 140.407 195.227 140.759C194.686 141.111 194.072 141.288 193.386 141.288C192.886 141.288 192.472 141.204 192.142 141.038C191.813 140.871 191.547 140.67 191.347 140.435C191.15 140.197 190.996 139.971 190.886 139.759H190.801V144.407H188.744ZM190.761 136.77C190.761 137.335 190.841 137.829 191 138.253C191.163 138.678 191.396 139.009 191.699 139.248C192.006 139.483 192.377 139.6 192.812 139.6C193.267 139.6 193.648 139.479 193.955 139.236C194.261 138.99 194.492 138.655 194.648 138.231C194.807 137.803 194.886 137.316 194.886 136.77C194.886 136.229 194.809 135.748 194.653 135.327C194.498 134.907 194.267 134.577 193.96 134.339C193.653 134.1 193.271 133.981 192.812 133.981C192.373 133.981 192 134.096 191.693 134.327C191.386 134.558 191.153 134.882 190.994 135.299C190.839 135.716 190.761 136.206 190.761 136.77ZM198.744 141.134V132.407H200.739V133.861H200.83C200.989 133.358 201.261 132.969 201.648 132.697C202.038 132.42 202.483 132.282 202.983 132.282C203.097 132.282 203.223 132.288 203.364 132.299C203.508 132.306 203.627 132.32 203.722 132.339V134.231C203.634 134.2 203.496 134.174 203.307 134.151C203.121 134.125 202.941 134.111 202.767 134.111C202.392 134.111 202.055 134.193 201.756 134.356C201.46 134.515 201.227 134.736 201.057 135.02C200.886 135.305 200.801 135.632 200.801 136.003V141.134H198.744ZM208.536 141.305C207.683 141.305 206.945 141.117 206.32 140.742C205.695 140.367 205.21 139.842 204.865 139.168C204.524 138.494 204.354 137.706 204.354 136.805C204.354 135.903 204.524 135.113 204.865 134.435C205.21 133.757 205.695 133.231 206.32 132.856C206.945 132.481 207.683 132.293 208.536 132.293C209.388 132.293 210.126 132.481 210.751 132.856C211.376 133.231 211.859 133.757 212.2 134.435C212.545 135.113 212.717 135.903 212.717 136.805C212.717 137.706 212.545 138.494 212.2 139.168C211.859 139.842 211.376 140.367 210.751 140.742C210.126 141.117 209.388 141.305 208.536 141.305ZM208.547 139.657C209.009 139.657 209.395 139.53 209.706 139.276C210.017 139.019 210.248 138.674 210.399 138.242C210.554 137.81 210.632 137.329 210.632 136.799C210.632 136.265 210.554 135.782 210.399 135.35C210.248 134.914 210.017 134.568 209.706 134.31C209.395 134.053 209.009 133.924 208.547 133.924C208.073 133.924 207.679 134.053 207.365 134.31C207.054 134.568 206.821 134.914 206.666 135.35C206.515 135.782 206.439 136.265 206.439 136.799C206.439 137.329 206.515 137.81 206.666 138.242C206.821 138.674 207.054 139.019 207.365 139.276C207.679 139.53 208.073 139.657 208.547 139.657ZM217.702 141.288C217.016 141.288 216.402 141.111 215.861 140.759C215.319 140.407 214.891 139.895 214.577 139.225C214.262 138.555 214.105 137.74 214.105 136.782C214.105 135.812 214.264 134.994 214.582 134.327C214.904 133.657 215.338 133.151 215.884 132.81C216.429 132.466 217.037 132.293 217.707 132.293C218.219 132.293 218.639 132.38 218.969 132.555C219.298 132.725 219.56 132.931 219.753 133.174C219.946 133.413 220.096 133.638 220.202 133.85H220.287V129.498H222.349V141.134H220.327V139.759H220.202C220.096 139.971 219.942 140.197 219.741 140.435C219.541 140.67 219.276 140.871 218.946 141.038C218.616 141.204 218.202 141.288 217.702 141.288ZM218.276 139.6C218.711 139.6 219.082 139.483 219.389 139.248C219.696 139.009 219.929 138.678 220.088 138.253C220.247 137.829 220.327 137.335 220.327 136.77C220.327 136.206 220.247 135.716 220.088 135.299C219.933 134.882 219.702 134.558 219.395 134.327C219.092 134.096 218.719 133.981 218.276 133.981C217.817 133.981 217.435 134.1 217.128 134.339C216.821 134.577 216.59 134.907 216.435 135.327C216.279 135.748 216.202 136.229 216.202 136.77C216.202 137.316 216.279 137.803 216.435 138.231C216.594 138.655 216.827 138.99 217.134 139.236C217.444 139.479 217.825 139.6 218.276 139.6ZM230.104 137.464V132.407H232.161V141.134H230.166V139.583H230.075C229.878 140.072 229.554 140.471 229.104 140.782C228.657 141.092 228.106 141.248 227.45 141.248C226.878 141.248 226.373 141.121 225.933 140.867C225.498 140.609 225.157 140.236 224.911 139.748C224.664 139.255 224.541 138.661 224.541 137.964V132.407H226.598V137.645C226.598 138.198 226.75 138.638 227.053 138.964C227.356 139.289 227.753 139.452 228.246 139.452C228.549 139.452 228.842 139.378 229.126 139.231C229.411 139.083 229.643 138.863 229.825 138.572C230.011 138.276 230.104 137.907 230.104 137.464ZM238.634 132.407V133.998H233.616V132.407H238.634ZM234.855 130.316H236.912V138.509C236.912 138.786 236.954 138.998 237.037 139.145C237.124 139.289 237.238 139.388 237.378 139.441C237.518 139.494 237.673 139.52 237.844 139.52C237.973 139.52 238.09 139.511 238.196 139.492C238.306 139.473 238.389 139.456 238.446 139.441L238.793 141.049C238.683 141.087 238.526 141.128 238.321 141.174C238.12 141.219 237.874 141.246 237.582 141.253C237.067 141.269 236.603 141.191 236.19 141.02C235.777 140.846 235.45 140.577 235.207 140.214C234.969 139.85 234.851 139.395 234.855 138.85V130.316ZM244.067 141.305C243.214 141.305 242.476 141.117 241.851 140.742C241.226 140.367 240.741 139.842 240.396 139.168C240.055 138.494 239.885 137.706 239.885 136.805C239.885 135.903 240.055 135.113 240.396 134.435C240.741 133.757 241.226 133.231 241.851 132.856C242.476 132.481 243.214 132.293 244.067 132.293C244.919 132.293 245.658 132.481 246.283 132.856C246.908 133.231 247.391 133.757 247.732 134.435C248.076 135.113 248.249 135.903 248.249 136.805C248.249 137.706 248.076 138.494 247.732 139.168C247.391 139.842 246.908 140.367 246.283 140.742C245.658 141.117 244.919 141.305 244.067 141.305ZM244.078 139.657C244.54 139.657 244.927 139.53 245.237 139.276C245.548 139.019 245.779 138.674 245.93 138.242C246.086 137.81 246.163 137.329 246.163 136.799C246.163 136.265 246.086 135.782 245.93 135.35C245.779 134.914 245.548 134.568 245.237 134.31C244.927 134.053 244.54 133.924 244.078 133.924C243.605 133.924 243.211 134.053 242.896 134.31C242.586 134.568 242.353 134.914 242.197 135.35C242.046 135.782 241.97 136.265 241.97 136.799C241.97 137.329 242.046 137.81 242.197 138.242C242.353 138.674 242.586 139.019 242.896 139.276C243.211 139.53 243.605 139.657 244.078 139.657Z" fill="#191919"/>
<path d="M115.915 150.407L118.506 157.753H118.608L121.199 150.407H122.307L119.102 159.134H118.011L114.807 150.407H115.915ZM124.847 159.288C124.432 159.288 124.055 159.209 123.717 159.053C123.379 158.894 123.111 158.665 122.912 158.367C122.713 158.066 122.614 157.702 122.614 157.276C122.614 156.901 122.688 156.597 122.835 156.364C122.983 156.128 123.18 155.944 123.428 155.81C123.675 155.677 123.947 155.577 124.246 155.512C124.547 155.444 124.849 155.39 125.153 155.35C125.551 155.299 125.874 155.261 126.121 155.235C126.371 155.207 126.553 155.16 126.666 155.094C126.783 155.029 126.841 154.915 126.841 154.753V154.719C126.841 154.299 126.726 153.972 126.496 153.739C126.268 153.506 125.923 153.39 125.46 153.39C124.98 153.39 124.604 153.495 124.331 153.705C124.058 153.915 123.866 154.14 123.756 154.378L122.801 154.038C122.972 153.64 123.199 153.33 123.483 153.109C123.77 152.884 124.082 152.728 124.42 152.64C124.761 152.549 125.097 152.503 125.426 152.503C125.636 152.503 125.878 152.529 126.151 152.58C126.426 152.628 126.692 152.729 126.947 152.883C127.206 153.036 127.42 153.268 127.591 153.577C127.761 153.887 127.847 154.302 127.847 154.822V159.134H126.841V158.248H126.79C126.722 158.39 126.608 158.542 126.449 158.704C126.29 158.866 126.078 159.003 125.814 159.117C125.55 159.231 125.227 159.288 124.847 159.288ZM125 158.384C125.398 158.384 125.733 158.306 126.006 158.15C126.281 157.993 126.489 157.792 126.628 157.545C126.77 157.297 126.841 157.038 126.841 156.765V155.844C126.798 155.895 126.705 155.942 126.56 155.985C126.418 156.025 126.253 156.06 126.065 156.091C125.881 156.12 125.7 156.145 125.524 156.168C125.351 156.188 125.21 156.205 125.102 156.219C124.841 156.253 124.597 156.309 124.369 156.386C124.145 156.459 123.963 156.572 123.824 156.722C123.688 156.87 123.619 157.072 123.619 157.327C123.619 157.677 123.749 157.941 124.007 158.12C124.268 158.296 124.599 158.384 125 158.384ZM130.688 150.407V159.134H129.682V150.407H130.688ZM135.189 159.27C134.598 159.27 134.08 159.13 133.634 158.849C133.19 158.567 132.844 158.174 132.594 157.668C132.347 157.163 132.223 156.572 132.223 155.895C132.223 155.214 132.347 154.618 132.594 154.11C132.844 153.601 133.19 153.207 133.634 152.925C134.08 152.644 134.598 152.503 135.189 152.503C135.78 152.503 136.297 152.644 136.74 152.925C137.186 153.207 137.533 153.601 137.78 154.11C138.03 154.618 138.155 155.214 138.155 155.895C138.155 156.572 138.03 157.163 137.78 157.668C137.533 158.174 137.186 158.567 136.74 158.849C136.297 159.13 135.78 159.27 135.189 159.27ZM135.189 158.367C135.638 158.367 136.007 158.252 136.297 158.022C136.587 157.792 136.801 157.489 136.94 157.114C137.08 156.739 137.149 156.333 137.149 155.895C137.149 155.458 137.08 155.05 136.94 154.672C136.801 154.295 136.587 153.989 136.297 153.756C136.007 153.523 135.638 153.407 135.189 153.407C134.74 153.407 134.371 153.523 134.081 153.756C133.791 153.989 133.577 154.295 133.438 154.672C133.298 155.05 133.229 155.458 133.229 155.895C133.229 156.333 133.298 156.739 133.438 157.114C133.577 157.489 133.791 157.792 134.081 158.022C134.371 158.252 134.74 158.367 135.189 158.367ZM139.69 159.134V152.589H140.662V153.577H140.73C140.849 153.253 141.065 152.991 141.377 152.789C141.69 152.587 142.042 152.486 142.434 152.486C142.508 152.486 142.6 152.488 142.711 152.491C142.822 152.493 142.906 152.498 142.963 152.503V153.526C142.929 153.518 142.85 153.505 142.728 153.488C142.609 153.468 142.483 153.458 142.349 153.458C142.031 153.458 141.747 153.525 141.497 153.658C141.25 153.789 141.054 153.971 140.909 154.204C140.767 154.434 140.696 154.697 140.696 154.992V159.134H139.69Z" fill="#9F9F9F"/>
<rect x="276.5" y="127.134" width="79" height="31" rx="5" fill="#F3F3F3"/>
<path d="M312.561 148.134V146.14L317.221 141.825C317.617 141.442 317.95 141.096 318.218 140.79C318.491 140.483 318.697 140.182 318.838 139.888C318.979 139.59 319.049 139.268 319.049 138.923C319.049 138.54 318.962 138.209 318.787 137.932C318.612 137.651 318.374 137.436 318.071 137.287C317.768 137.133 317.425 137.057 317.042 137.057C316.641 137.057 316.292 137.138 315.994 137.3C315.695 137.462 315.465 137.694 315.303 137.996C315.141 138.299 315.06 138.659 315.06 139.077H312.433C312.433 138.22 312.627 137.476 313.015 136.846C313.403 136.215 313.946 135.727 314.645 135.382C315.344 135.037 316.149 134.864 317.061 134.864C317.999 134.864 318.815 135.03 319.509 135.363C320.208 135.691 320.751 136.147 321.139 136.731C321.527 137.314 321.721 137.984 321.721 138.738C321.721 139.232 321.623 139.72 321.427 140.202C321.235 140.683 320.892 141.218 320.398 141.806C319.903 142.39 319.207 143.091 318.308 143.909L316.396 145.782V145.871H321.893V148.134H312.561Z" fill="#525256"/>
<path d="M348.505 141.352H341.215V133.657C341.215 132.949 340.671 132.374 340 132.374C339.329 132.374 338.785 132.949 338.785 133.657V141.352H331.495C330.824 141.352 330.28 141.926 330.28 142.634C330.28 143.342 330.824 143.917 331.495 143.917H338.785V151.612C338.785 152.32 339.329 152.894 340 152.894C340.671 152.894 341.215 152.32 341.215 151.612V143.917H348.505C349.176 143.917 349.72 143.342 349.72 142.634C349.72 141.926 349.176 141.352 348.505 141.352Z" fill="#525256"/>
<path d="M289.375 147.259V143.509M295.625 147.259V143.509M289.375 133.509C289.375 133.509 290 132.259 292.5 132.259C295 132.259 295.625 133.509 295.625 133.509M281.25 137.259H303.75C301.995 137.259 301.116 137.259 300.486 137.68C300.213 137.863 299.979 138.097 299.796 138.37C299.375 139 299.375 139.879 299.375 141.634V148.509C299.375 150.867 299.375 152.044 298.642 152.777C297.91 153.509 296.733 153.509 294.375 153.509H290.625C288.267 153.509 287.09 153.509 286.357 152.777C285.625 152.044 285.625 150.867 285.625 148.509V141.634C285.625 139.879 285.625 139 285.204 138.37C285.021 138.097 284.787 137.863 284.514 137.68C283.884 137.259 283.005 137.259 281.25 137.259Z" stroke="#525256" stroke-width="2" stroke-linecap="round"/>
<mask id="path-12-inside-2_16_159" fill="white">
<path d="M58.5 187.134H356.5V275.134H58.5V187.134Z"/>
</mask>
<path d="M356.5 274.134H58.5V276.134H356.5V274.134Z" fill="#F3F3F3" mask="url(#path-12-inside-2_16_159)"/>
<rect x="58.5" y="211.134" width="40" height="40" rx="8" fill="#D2D2D2" fill-opacity="0.25"/>
<path d="M72.5 241.134C71.95 241.134 71.479 240.938 71.087 240.546C70.695 240.154 70.4993 239.683 70.5 239.134V227.134C70.5 226.584 70.696 226.113 71.088 225.721C71.48 225.329 71.9507 225.133 72.5 225.134H74.5C74.5 224.034 74.8917 223.092 75.675 222.309C76.4583 221.526 77.4 221.134 78.5 221.134C79.6 221.134 80.5417 221.526 81.325 222.309C82.1083 223.092 82.5 224.034 82.5 225.134H84.5C85.05 225.134 85.521 225.33 85.913 225.722C86.305 226.114 86.5007 226.585 86.5 227.134V239.134C86.5 239.684 86.304 240.155 85.912 240.547C85.52 240.939 85.0493 241.135 84.5 241.134H72.5ZM72.5 239.134H84.5V227.134H82.5V229.134C82.5 229.417 82.404 229.655 82.212 229.847C82.02 230.039 81.7827 230.135 81.5 230.134C81.2167 230.134 80.979 230.038 80.787 229.846C80.595 229.654 80.4993 229.417 80.5 229.134V227.134H76.5V229.134C76.5 229.417 76.404 229.655 76.212 229.847C76.02 230.039 75.7827 230.135 75.5 230.134C75.2167 230.134 74.979 230.038 74.787 229.846C74.595 229.654 74.4993 229.417 74.5 229.134V227.134H72.5V239.134ZM76.5 225.134H80.5C80.5 224.584 80.304 224.113 79.912 223.721C79.52 223.329 79.0493 223.133 78.5 223.134C77.95 223.134 77.479 223.33 77.087 223.722C76.695 224.114 76.4993 224.585 76.5 225.134Z" fill="#191919"/>
<path d="M125.21 217.498V229.134H123.335L117.852 221.208H117.756V229.134H115.648V217.498H117.534L123.011 225.43H123.114V217.498H125.21ZM131.223 229.305C130.371 229.305 129.632 229.117 129.007 228.742C128.382 228.367 127.897 227.842 127.553 227.168C127.212 226.494 127.041 225.706 127.041 224.805C127.041 223.903 127.212 223.113 127.553 222.435C127.897 221.757 128.382 221.231 129.007 220.856C129.632 220.481 130.371 220.293 131.223 220.293C132.075 220.293 132.814 220.481 133.439 220.856C134.064 221.231 134.547 221.757 134.888 222.435C135.232 223.113 135.405 223.903 135.405 224.805C135.405 225.706 135.232 226.494 134.888 227.168C134.547 227.842 134.064 228.367 133.439 228.742C132.814 229.117 132.075 229.305 131.223 229.305ZM131.234 227.657C131.696 227.657 132.083 227.53 132.393 227.276C132.704 227.019 132.935 226.674 133.087 226.242C133.242 225.81 133.32 225.329 133.32 224.799C133.32 224.265 133.242 223.782 133.087 223.35C132.935 222.914 132.704 222.568 132.393 222.31C132.083 222.053 131.696 221.924 131.234 221.924C130.761 221.924 130.367 222.053 130.053 222.31C129.742 222.568 129.509 222.914 129.354 223.35C129.202 223.782 129.126 224.265 129.126 224.799C129.126 225.329 129.202 225.81 129.354 226.242C129.509 226.674 129.742 227.019 130.053 227.276C130.367 227.53 130.761 227.657 131.234 227.657ZM137.151 229.134V220.407H139.116V221.89H139.219C139.401 221.39 139.702 221 140.122 220.719C140.543 220.435 141.045 220.293 141.628 220.293C142.219 220.293 142.717 220.437 143.122 220.725C143.531 221.009 143.819 221.397 143.986 221.89H144.077C144.27 221.405 144.596 221.019 145.054 220.731C145.516 220.439 146.063 220.293 146.696 220.293C147.499 220.293 148.154 220.547 148.662 221.055C149.17 221.562 149.423 222.303 149.423 223.276V229.134H147.361V223.594C147.361 223.053 147.217 222.657 146.929 222.407C146.641 222.153 146.289 222.026 145.872 222.026C145.376 222.026 144.988 222.181 144.707 222.492C144.431 222.799 144.293 223.198 144.293 223.691V229.134H142.276V223.509C142.276 223.058 142.139 222.698 141.866 222.43C141.598 222.161 141.245 222.026 140.81 222.026C140.514 222.026 140.245 222.102 140.003 222.253C139.76 222.401 139.567 222.611 139.423 222.884C139.279 223.153 139.207 223.467 139.207 223.827V229.134H137.151ZM155.374 229.305C154.499 229.305 153.743 229.123 153.107 228.759C152.474 228.392 151.987 227.873 151.646 227.202C151.305 226.528 151.135 225.734 151.135 224.822C151.135 223.924 151.305 223.136 151.646 222.458C151.991 221.776 152.472 221.246 153.089 220.867C153.707 220.484 154.432 220.293 155.266 220.293C155.804 220.293 156.311 220.38 156.788 220.555C157.269 220.725 157.694 220.99 158.061 221.35C158.432 221.71 158.724 222.168 158.936 222.725C159.148 223.278 159.254 223.937 159.254 224.702V225.333H152.101V223.947H157.283C157.279 223.553 157.194 223.202 157.027 222.895C156.86 222.585 156.627 222.341 156.328 222.163C156.033 221.984 155.688 221.895 155.294 221.895C154.874 221.895 154.504 221.998 154.186 222.202C153.868 222.403 153.62 222.668 153.442 222.998C153.268 223.323 153.179 223.681 153.175 224.072V225.282C153.175 225.789 153.268 226.225 153.453 226.589C153.639 226.948 153.898 227.225 154.232 227.418C154.565 227.608 154.955 227.702 155.402 227.702C155.701 227.702 155.972 227.661 156.214 227.577C156.457 227.49 156.667 227.363 156.845 227.197C157.023 227.03 157.158 226.823 157.249 226.577L159.169 226.793C159.048 227.301 158.817 227.744 158.476 228.123C158.139 228.498 157.707 228.789 157.18 228.998C156.654 229.202 156.052 229.305 155.374 229.305ZM168.202 229.288C167.516 229.288 166.902 229.111 166.361 228.759C165.819 228.407 165.391 227.895 165.077 227.225C164.762 226.555 164.605 225.74 164.605 224.782C164.605 223.812 164.764 222.994 165.082 222.327C165.404 221.657 165.838 221.151 166.384 220.81C166.929 220.466 167.537 220.293 168.207 220.293C168.719 220.293 169.139 220.38 169.469 220.555C169.798 220.725 170.06 220.931 170.253 221.174C170.446 221.413 170.596 221.638 170.702 221.85H170.787V217.498H172.849V229.134H170.827V227.759H170.702C170.596 227.971 170.442 228.197 170.241 228.435C170.041 228.67 169.776 228.871 169.446 229.038C169.116 229.204 168.702 229.288 168.202 229.288ZM168.776 227.6C169.211 227.6 169.582 227.483 169.889 227.248C170.196 227.009 170.429 226.678 170.588 226.253C170.747 225.829 170.827 225.335 170.827 224.77C170.827 224.206 170.747 223.716 170.588 223.299C170.433 222.882 170.202 222.558 169.895 222.327C169.592 222.096 169.219 221.981 168.776 221.981C168.317 221.981 167.935 222.1 167.628 222.339C167.321 222.577 167.09 222.907 166.935 223.327C166.779 223.748 166.702 224.229 166.702 224.77C166.702 225.316 166.779 225.803 166.935 226.231C167.094 226.655 167.327 226.99 167.634 227.236C167.944 227.479 168.325 227.6 168.776 227.6ZM178.848 229.305C177.996 229.305 177.257 229.117 176.632 228.742C176.007 228.367 175.522 227.842 175.178 227.168C174.837 226.494 174.666 225.706 174.666 224.805C174.666 223.903 174.837 223.113 175.178 222.435C175.522 221.757 176.007 221.231 176.632 220.856C177.257 220.481 177.996 220.293 178.848 220.293C179.7 220.293 180.439 220.481 181.064 220.856C181.689 221.231 182.172 221.757 182.513 222.435C182.857 223.113 183.03 223.903 183.03 224.805C183.03 225.706 182.857 226.494 182.513 227.168C182.172 227.842 181.689 228.367 181.064 228.742C180.439 229.117 179.7 229.305 178.848 229.305ZM178.859 227.657C179.321 227.657 179.708 227.53 180.018 227.276C180.329 227.019 180.56 226.674 180.712 226.242C180.867 225.81 180.945 225.329 180.945 224.799C180.945 224.265 180.867 223.782 180.712 223.35C180.56 222.914 180.329 222.568 180.018 222.31C179.708 222.053 179.321 221.924 178.859 221.924C178.386 221.924 177.992 222.053 177.678 222.31C177.367 222.568 177.134 222.914 176.979 223.35C176.827 223.782 176.751 224.265 176.751 224.799C176.751 225.329 176.827 225.81 176.979 226.242C177.134 226.674 177.367 227.019 177.678 227.276C177.992 227.53 178.386 227.657 178.859 227.657ZM188.744 232.407V220.407H190.767V221.85H190.886C190.992 221.638 191.142 221.413 191.335 221.174C191.528 220.931 191.79 220.725 192.119 220.555C192.449 220.38 192.869 220.293 193.381 220.293C194.055 220.293 194.663 220.466 195.205 220.81C195.75 221.151 196.182 221.657 196.5 222.327C196.822 222.994 196.983 223.812 196.983 224.782C196.983 225.74 196.826 226.555 196.511 227.225C196.197 227.895 195.769 228.407 195.227 228.759C194.686 229.111 194.072 229.288 193.386 229.288C192.886 229.288 192.472 229.204 192.142 229.038C191.813 228.871 191.547 228.67 191.347 228.435C191.15 228.197 190.996 227.971 190.886 227.759H190.801V232.407H188.744ZM190.761 224.77C190.761 225.335 190.841 225.829 191 226.253C191.163 226.678 191.396 227.009 191.699 227.248C192.006 227.483 192.377 227.6 192.812 227.6C193.267 227.6 193.648 227.479 193.955 227.236C194.261 226.99 194.492 226.655 194.648 226.231C194.807 225.803 194.886 225.316 194.886 224.77C194.886 224.229 194.809 223.748 194.653 223.327C194.498 222.907 194.267 222.577 193.96 222.339C193.653 222.1 193.271 221.981 192.812 221.981C192.373 221.981 192 222.096 191.693 222.327C191.386 222.558 191.153 222.882 190.994 223.299C190.839 223.716 190.761 224.206 190.761 224.77ZM198.744 229.134V220.407H200.739V221.861H200.83C200.989 221.358 201.261 220.969 201.648 220.697C202.038 220.42 202.483 220.282 202.983 220.282C203.097 220.282 203.223 220.288 203.364 220.299C203.508 220.306 203.627 220.32 203.722 220.339V222.231C203.634 222.2 203.496 222.174 203.307 222.151C203.121 222.125 202.941 222.111 202.767 222.111C202.392 222.111 202.055 222.193 201.756 222.356C201.46 222.515 201.227 222.736 201.057 223.02C200.886 223.305 200.801 223.632 200.801 224.003V229.134H198.744ZM208.536 229.305C207.683 229.305 206.945 229.117 206.32 228.742C205.695 228.367 205.21 227.842 204.865 227.168C204.524 226.494 204.354 225.706 204.354 224.805C204.354 223.903 204.524 223.113 204.865 222.435C205.21 221.757 205.695 221.231 206.32 220.856C206.945 220.481 207.683 220.293 208.536 220.293C209.388 220.293 210.126 220.481 210.751 220.856C211.376 221.231 211.859 221.757 212.2 222.435C212.545 223.113 212.717 223.903 212.717 224.805C212.717 225.706 212.545 226.494 212.2 227.168C211.859 227.842 211.376 228.367 210.751 228.742C210.126 229.117 209.388 229.305 208.536 229.305ZM208.547 227.657C209.009 227.657 209.395 227.53 209.706 227.276C210.017 227.019 210.248 226.674 210.399 226.242C210.554 225.81 210.632 225.329 210.632 224.799C210.632 224.265 210.554 223.782 210.399 223.35C210.248 222.914 210.017 222.568 209.706 222.31C209.395 222.053 209.009 221.924 208.547 221.924C208.073 221.924 207.679 222.053 207.365 222.31C207.054 222.568 206.821 222.914 206.666 223.35C206.515 223.782 206.439 224.265 206.439 224.799C206.439 225.329 206.515 225.81 206.666 226.242C206.821 226.674 207.054 227.019 207.365 227.276C207.679 227.53 208.073 227.657 208.547 227.657ZM217.702 229.288C217.016 229.288 216.402 229.111 215.861 228.759C215.319 228.407 214.891 227.895 214.577 227.225C214.262 226.555 214.105 225.74 214.105 224.782C214.105 223.812 214.264 222.994 214.582 222.327C214.904 221.657 215.338 221.151 215.884 220.81C216.429 220.466 217.037 220.293 217.707 220.293C218.219 220.293 218.639 220.38 218.969 220.555C219.298 220.725 219.56 220.931 219.753 221.174C219.946 221.413 220.096 221.638 220.202 221.85H220.287V217.498H222.349V229.134H220.327V227.759H220.202C220.096 227.971 219.942 228.197 219.741 228.435C219.541 228.67 219.276 228.871 218.946 229.038C218.616 229.204 218.202 229.288 217.702 229.288ZM218.276 227.6C218.711 227.6 219.082 227.483 219.389 227.248C219.696 227.009 219.929 226.678 220.088 226.253C220.247 225.829 220.327 225.335 220.327 224.77C220.327 224.206 220.247 223.716 220.088 223.299C219.933 222.882 219.702 222.558 219.395 222.327C219.092 222.096 218.719 221.981 218.276 221.981C217.817 221.981 217.435 222.1 217.128 222.339C216.821 222.577 216.59 222.907 216.435 223.327C216.279 223.748 216.202 224.229 216.202 224.77C216.202 225.316 216.279 225.803 216.435 226.231C216.594 226.655 216.827 226.99 217.134 227.236C217.444 227.479 217.825 227.6 218.276 227.6ZM230.104 225.464V220.407H232.161V229.134H230.166V227.583H230.075C229.878 228.072 229.554 228.471 229.104 228.782C228.657 229.092 228.106 229.248 227.45 229.248C226.878 229.248 226.373 229.121 225.933 228.867C225.498 228.609 225.157 228.236 224.911 227.748C224.664 227.255 224.541 226.661 224.541 225.964V220.407H226.598V225.645C226.598 226.198 226.75 226.638 227.053 226.964C227.356 227.289 227.753 227.452 228.246 227.452C228.549 227.452 228.842 227.378 229.126 227.231C229.411 227.083 229.643 226.863 229.825 226.572C230.011 226.276 230.104 225.907 230.104 225.464ZM238.634 220.407V221.998H233.616V220.407H238.634ZM234.855 218.316H236.912V226.509C236.912 226.786 236.954 226.998 237.037 227.145C237.124 227.289 237.238 227.388 237.378 227.441C237.518 227.494 237.673 227.52 237.844 227.52C237.973 227.52 238.09 227.511 238.196 227.492C238.306 227.473 238.389 227.456 238.446 227.441L238.793 229.049C238.683 229.087 238.526 229.128 238.321 229.174C238.12 229.219 237.874 229.246 237.582 229.253C237.067 229.269 236.603 229.191 236.19 229.02C235.777 228.846 235.45 228.577 235.207 228.214C234.969 227.85 234.851 227.395 234.855 226.85V218.316ZM244.067 229.305C243.214 229.305 242.476 229.117 241.851 228.742C241.226 228.367 240.741 227.842 240.396 227.168C240.055 226.494 239.885 225.706 239.885 224.805C239.885 223.903 240.055 223.113 240.396 222.435C240.741 221.757 241.226 221.231 241.851 220.856C242.476 220.481 243.214 220.293 244.067 220.293C244.919 220.293 245.658 220.481 246.283 220.856C246.908 221.231 247.391 221.757 247.732 222.435C248.076 223.113 248.249 223.903 248.249 224.805C248.249 225.706 248.076 226.494 247.732 227.168C247.391 227.842 246.908 228.367 246.283 228.742C245.658 229.117 244.919 229.305 244.067 229.305ZM244.078 227.657C244.54 227.657 244.927 227.53 245.237 227.276C245.548 227.019 245.779 226.674 245.93 226.242C246.086 225.81 246.163 225.329 246.163 224.799C246.163 224.265 246.086 223.782 245.93 223.35C245.779 222.914 245.548 222.568 245.237 222.31C244.927 222.053 244.54 221.924 244.078 221.924C243.605 221.924 243.211 222.053 242.896 222.31C242.586 222.568 242.353 222.914 242.197 223.35C242.046 223.782 241.97 224.265 241.97 224.799C241.97 225.329 242.046 225.81 242.197 226.242C242.353 226.674 242.586 227.019 242.896 227.276C243.211 227.53 243.605 227.657 244.078 227.657Z" fill="#191919"/>
<path d="M115.915 238.407L118.506 245.753H118.608L121.199 238.407H122.307L119.102 247.134H118.011L114.807 238.407H115.915ZM124.847 247.288C124.432 247.288 124.055 247.209 123.717 247.053C123.379 246.894 123.111 246.665 122.912 246.367C122.713 246.066 122.614 245.702 122.614 245.276C122.614 244.901 122.688 244.597 122.835 244.364C122.983 244.128 123.18 243.944 123.428 243.81C123.675 243.677 123.947 243.577 124.246 243.512C124.547 243.444 124.849 243.39 125.153 243.35C125.551 243.299 125.874 243.261 126.121 243.235C126.371 243.207 126.553 243.16 126.666 243.094C126.783 243.029 126.841 242.915 126.841 242.753V242.719C126.841 242.299 126.726 241.972 126.496 241.739C126.268 241.506 125.923 241.39 125.46 241.39C124.98 241.39 124.604 241.495 124.331 241.705C124.058 241.915 123.866 242.14 123.756 242.378L122.801 242.038C122.972 241.64 123.199 241.33 123.483 241.109C123.77 240.884 124.082 240.728 124.42 240.64C124.761 240.549 125.097 240.503 125.426 240.503C125.636 240.503 125.878 240.529 126.151 240.58C126.426 240.628 126.692 240.729 126.947 240.883C127.206 241.036 127.42 241.268 127.591 241.577C127.761 241.887 127.847 242.302 127.847 242.822V247.134H126.841V246.248H126.79C126.722 246.39 126.608 246.542 126.449 246.704C126.29 246.866 126.078 247.003 125.814 247.117C125.55 247.231 125.227 247.288 124.847 247.288ZM125 246.384C125.398 246.384 125.733 246.306 126.006 246.15C126.281 245.993 126.489 245.792 126.628 245.545C126.77 245.297 126.841 245.038 126.841 244.765V243.844C126.798 243.895 126.705 243.942 126.56 243.985C126.418 244.025 126.253 244.06 126.065 244.091C125.881 244.12 125.7 244.145 125.524 244.168C125.351 244.188 125.21 244.205 125.102 244.219C124.841 244.253 124.597 244.309 124.369 244.386C124.145 244.459 123.963 244.572 123.824 244.722C123.688 244.87 123.619 245.072 123.619 245.327C123.619 245.677 123.749 245.941 124.007 246.12C124.268 246.296 124.599 246.384 125 246.384ZM130.688 238.407V247.134H129.682V238.407H130.688ZM135.189 247.27C134.598 247.27 134.08 247.13 133.634 246.849C133.19 246.567 132.844 246.174 132.594 245.668C132.347 245.163 132.223 244.572 132.223 243.895C132.223 243.214 132.347 242.618 132.594 242.11C132.844 241.601 133.19 241.207 133.634 240.925C134.08 240.644 134.598 240.503 135.189 240.503C135.78 240.503 136.297 240.644 136.74 240.925C137.186 241.207 137.533 241.601 137.78 242.11C138.03 242.618 138.155 243.214 138.155 243.895C138.155 244.572 138.03 245.163 137.78 245.668C137.533 246.174 137.186 246.567 136.74 246.849C136.297 247.13 135.78 247.27 135.189 247.27ZM135.189 246.367C135.638 246.367 136.007 246.252 136.297 246.022C136.587 245.792 136.801 245.489 136.94 245.114C137.08 244.739 137.149 244.333 137.149 243.895C137.149 243.458 137.08 243.05 136.94 242.672C136.801 242.295 136.587 241.989 136.297 241.756C136.007 241.523 135.638 241.407 135.189 241.407C134.74 241.407 134.371 241.523 134.081 241.756C133.791 241.989 133.577 242.295 133.438 242.672C133.298 243.05 133.229 243.458 133.229 243.895C133.229 244.333 133.298 244.739 133.438 245.114C133.577 245.489 133.791 245.792 134.081 246.022C134.371 246.252 134.74 246.367 135.189 246.367ZM139.69 247.134V240.589H140.662V241.577H140.73C140.849 241.253 141.065 240.991 141.377 240.789C141.69 240.587 142.042 240.486 142.434 240.486C142.508 240.486 142.6 240.488 142.711 240.491C142.822 240.493 142.906 240.498 142.963 240.503V241.526C142.929 241.518 142.85 241.505 142.728 241.488C142.609 241.468 142.483 241.458 142.349 241.458C142.031 241.458 141.747 241.525 141.497 241.658C141.25 241.789 141.054 241.971 140.909 242.204C140.767 242.434 140.696 242.697 140.696 242.992V247.134H139.69Z" fill="#9F9F9F"/>
<rect x="276.5" y="215.134" width="79" height="31" rx="5" fill="#F3F3F3"/>
<path d="M312.363 233.833V231.653L317.828 223.043H319.707V226.06H318.595L315.15 231.513V231.615H322.916V233.833H312.363ZM318.646 236.134V233.168L318.697 232.203V223.043H321.293V236.134H318.646Z" fill="#525256"/>
<path d="M348.505 229.352H341.215V221.657C341.215 220.949 340.671 220.374 340 220.374C339.329 220.374 338.785 220.949 338.785 221.657V229.352H331.495C330.824 229.352 330.28 229.926 330.28 230.634C330.28 231.342 330.824 231.917 331.495 231.917H338.785V239.612C338.785 240.32 339.329 240.894 340 240.894C340.671 240.894 341.215 240.32 341.215 239.612V231.917H348.505C349.176 231.917 349.72 231.342 349.72 230.634C349.72 229.926 349.176 229.352 348.505 229.352Z" fill="#525256"/>
<path d="M289.375 235.259V231.509M295.625 235.259V231.509M289.375 221.509C289.375 221.509 290 220.259 292.5 220.259C295 220.259 295.625 221.509 295.625 221.509M281.25 225.259H303.75C301.995 225.259 301.116 225.259 300.486 225.68C300.213 225.863 299.979 226.097 299.796 226.37C299.375 227 299.375 227.879 299.375 229.634V236.509C299.375 238.867 299.375 240.044 298.642 240.777C297.91 241.509 296.733 241.509 294.375 241.509H290.625C288.267 241.509 287.09 241.509 286.357 240.777C285.625 240.044 285.625 238.867 285.625 236.509V229.634C285.625 227.879 285.625 227 285.204 226.37C285.021 226.097 284.787 225.863 284.514 225.68C283.884 225.259 283.005 225.259 281.25 225.259Z" stroke="#525256" stroke-width="2" stroke-linecap="round"/>
<mask id="path-22-inside-3_16_159" fill="white">
<path d="M58.5 275.134H356.5V363.134H58.5V275.134Z"/>
</mask>
<path d="M356.5 362.134H58.5V364.134H356.5V362.134Z" fill="#F3F3F3" mask="url(#path-22-inside-3_16_159)"/>
<rect x="58.5" y="299.134" width="40" height="40" rx="8" fill="#D2D2D2" fill-opacity="0.25"/>
<path d="M72.5 329.134C71.95 329.134 71.479 328.938 71.087 328.546C70.695 328.154 70.4993 327.683 70.5 327.134V315.134C70.5 314.584 70.696 314.113 71.088 313.721C71.48 313.329 71.9507 313.133 72.5 313.134H74.5C74.5 312.034 74.8917 311.092 75.675 310.309C76.4583 309.526 77.4 309.134 78.5 309.134C79.6 309.134 80.5417 309.526 81.325 310.309C82.1083 311.092 82.5 312.034 82.5 313.134H84.5C85.05 313.134 85.521 313.33 85.913 313.722C86.305 314.114 86.5007 314.585 86.5 315.134V327.134C86.5 327.684 86.304 328.155 85.912 328.547C85.52 328.939 85.0493 329.135 84.5 329.134H72.5ZM72.5 327.134H84.5V315.134H82.5V317.134C82.5 317.417 82.404 317.655 82.212 317.847C82.02 318.039 81.7827 318.135 81.5 318.134C81.2167 318.134 80.979 318.038 80.787 317.846C80.595 317.654 80.4993 317.417 80.5 317.134V315.134H76.5V317.134C76.5 317.417 76.404 317.655 76.212 317.847C76.02 318.039 75.7827 318.135 75.5 318.134C75.2167 318.134 74.979 318.038 74.787 317.846C74.595 317.654 74.4993 317.417 74.5 317.134V315.134H72.5V327.134ZM76.5 313.134H80.5C80.5 312.584 80.304 312.113 79.912 311.721C79.52 311.329 79.0493 311.133 78.5 311.134C77.95 311.134 77.479 311.33 77.087 311.722C76.695 312.114 76.4993 312.585 76.5 313.134Z" fill="#191919"/>
<path d="M125.21 305.498V317.134H123.335L117.852 309.208H117.756V317.134H115.648V305.498H117.534L123.011 313.43H123.114V305.498H125.21ZM131.223 317.305C130.371 317.305 129.632 317.117 129.007 316.742C128.382 316.367 127.897 315.842 127.553 315.168C127.212 314.494 127.041 313.706 127.041 312.805C127.041 311.903 127.212 311.113 127.553 310.435C127.897 309.757 128.382 309.231 129.007 308.856C129.632 308.481 130.371 308.293 131.223 308.293C132.075 308.293 132.814 308.481 133.439 308.856C134.064 309.231 134.547 309.757 134.888 310.435C135.232 311.113 135.405 311.903 135.405 312.805C135.405 313.706 135.232 314.494 134.888 315.168C134.547 315.842 134.064 316.367 133.439 316.742C132.814 317.117 132.075 317.305 131.223 317.305ZM131.234 315.657C131.696 315.657 132.083 315.53 132.393 315.276C132.704 315.019 132.935 314.674 133.087 314.242C133.242 313.81 133.32 313.329 133.32 312.799C133.32 312.265 133.242 311.782 133.087 311.35C132.935 310.914 132.704 310.568 132.393 310.31C132.083 310.053 131.696 309.924 131.234 309.924C130.761 309.924 130.367 310.053 130.053 310.31C129.742 310.568 129.509 310.914 129.354 311.35C129.202 311.782 129.126 312.265 129.126 312.799C129.126 313.329 129.202 313.81 129.354 314.242C129.509 314.674 129.742 315.019 130.053 315.276C130.367 315.53 130.761 315.657 131.234 315.657ZM137.151 317.134V308.407H139.116V309.89H139.219C139.401 309.39 139.702 309 140.122 308.719C140.543 308.435 141.045 308.293 141.628 308.293C142.219 308.293 142.717 308.437 143.122 308.725C143.531 309.009 143.819 309.397 143.986 309.89H144.077C144.27 309.405 144.596 309.019 145.054 308.731C145.516 308.439 146.063 308.293 146.696 308.293C147.499 308.293 148.154 308.547 148.662 309.055C149.17 309.562 149.423 310.303 149.423 311.276V317.134H147.361V311.594C147.361 311.053 147.217 310.657 146.929 310.407C146.641 310.153 146.289 310.026 145.872 310.026C145.376 310.026 144.988 310.181 144.707 310.492C144.431 310.799 144.293 311.198 144.293 311.691V317.134H142.276V311.509C142.276 311.058 142.139 310.698 141.866 310.43C141.598 310.161 141.245 310.026 140.81 310.026C140.514 310.026 140.245 310.102 140.003 310.253C139.76 310.401 139.567 310.611 139.423 310.884C139.279 311.153 139.207 311.467 139.207 311.827V317.134H137.151ZM155.374 317.305C154.499 317.305 153.743 317.123 153.107 316.759C152.474 316.392 151.987 315.873 151.646 315.202C151.305 314.528 151.135 313.734 151.135 312.822C151.135 311.924 151.305 311.136 151.646 310.458C151.991 309.776 152.472 309.246 153.089 308.867C153.707 308.484 154.432 308.293 155.266 308.293C155.804 308.293 156.311 308.38 156.788 308.555C157.269 308.725 157.694 308.99 158.061 309.35C158.432 309.71 158.724 310.168 158.936 310.725C159.148 311.278 159.254 311.937 159.254 312.702V313.333H152.101V311.947H157.283C157.279 311.553 157.194 311.202 157.027 310.895C156.86 310.585 156.627 310.341 156.328 310.163C156.033 309.984 155.688 309.895 155.294 309.895C154.874 309.895 154.504 309.998 154.186 310.202C153.868 310.403 153.62 310.668 153.442 310.998C153.268 311.323 153.179 311.681 153.175 312.072V313.282C153.175 313.789 153.268 314.225 153.453 314.589C153.639 314.948 153.898 315.225 154.232 315.418C154.565 315.608 154.955 315.702 155.402 315.702C155.701 315.702 155.972 315.661 156.214 315.577C156.457 315.49 156.667 315.363 156.845 315.197C157.023 315.03 157.158 314.823 157.249 314.577L159.169 314.793C159.048 315.301 158.817 315.744 158.476 316.123C158.139 316.498 157.707 316.789 157.18 316.998C156.654 317.202 156.052 317.305 155.374 317.305ZM168.202 317.288C167.516 317.288 166.902 317.111 166.361 316.759C165.819 316.407 165.391 315.895 165.077 315.225C164.762 314.555 164.605 313.74 164.605 312.782C164.605 311.812 164.764 310.994 165.082 310.327C165.404 309.657 165.838 309.151 166.384 308.81C166.929 308.466 167.537 308.293 168.207 308.293C168.719 308.293 169.139 308.38 169.469 308.555C169.798 308.725 170.06 308.931 170.253 309.174C170.446 309.413 170.596 309.638 170.702 309.85H170.787V305.498H172.849V317.134H170.827V315.759H170.702C170.596 315.971 170.442 316.197 170.241 316.435C170.041 316.67 169.776 316.871 169.446 317.038C169.116 317.204 168.702 317.288 168.202 317.288ZM168.776 315.6C169.211 315.6 169.582 315.483 169.889 315.248C170.196 315.009 170.429 314.678 170.588 314.253C170.747 313.829 170.827 313.335 170.827 312.77C170.827 312.206 170.747 311.716 170.588 311.299C170.433 310.882 170.202 310.558 169.895 310.327C169.592 310.096 169.219 309.981 168.776 309.981C168.317 309.981 167.935 310.1 167.628 310.339C167.321 310.577 167.09 310.907 166.935 311.327C166.779 311.748 166.702 312.229 166.702 312.77C166.702 313.316 166.779 313.803 166.935 314.231C167.094 314.655 167.327 314.99 167.634 315.236C167.944 315.479 168.325 315.6 168.776 315.6ZM178.848 317.305C177.996 317.305 177.257 317.117 176.632 316.742C176.007 316.367 175.522 315.842 175.178 315.168C174.837 314.494 174.666 313.706 174.666 312.805C174.666 311.903 174.837 311.113 175.178 310.435C175.522 309.757 176.007 309.231 176.632 308.856C177.257 308.481 177.996 308.293 178.848 308.293C179.7 308.293 180.439 308.481 181.064 308.856C181.689 309.231 182.172 309.757 182.513 310.435C182.857 311.113 183.03 311.903 183.03 312.805C183.03 313.706 182.857 314.494 182.513 315.168C182.172 315.842 181.689 316.367 181.064 316.742C180.439 317.117 179.7 317.305 178.848 317.305ZM178.859 315.657C179.321 315.657 179.708 315.53 180.018 315.276C180.329 315.019 180.56 314.674 180.712 314.242C180.867 313.81 180.945 313.329 180.945 312.799C180.945 312.265 180.867 311.782 180.712 311.35C180.56 310.914 180.329 310.568 180.018 310.31C179.708 310.053 179.321 309.924 178.859 309.924C178.386 309.924 177.992 310.053 177.678 310.31C177.367 310.568 177.134 310.914 176.979 311.35C176.827 311.782 176.751 312.265 176.751 312.799C176.751 313.329 176.827 313.81 176.979 314.242C177.134 314.674 177.367 315.019 177.678 315.276C177.992 315.53 178.386 315.657 178.859 315.657ZM188.835 317.134V305.498H193.199C194.093 305.498 194.843 305.664 195.449 305.998C196.059 306.331 196.519 306.789 196.83 307.373C197.144 307.952 197.301 308.611 197.301 309.35C197.301 310.096 197.144 310.759 196.83 311.339C196.515 311.918 196.051 312.375 195.438 312.708C194.824 313.038 194.068 313.202 193.17 313.202H190.278V311.469H192.886C193.409 311.469 193.837 311.378 194.17 311.197C194.504 311.015 194.75 310.765 194.909 310.447C195.072 310.128 195.153 309.763 195.153 309.35C195.153 308.937 195.072 308.573 194.909 308.259C194.75 307.945 194.502 307.7 194.165 307.526C193.831 307.348 193.402 307.259 192.875 307.259H190.943V317.134H188.835ZM199.041 317.134V308.407H201.036V309.861H201.126C201.286 309.358 201.558 308.969 201.945 308.697C202.335 308.42 202.78 308.282 203.28 308.282C203.393 308.282 203.52 308.288 203.661 308.299C203.804 308.306 203.924 308.32 204.018 308.339V310.231C203.931 310.2 203.793 310.174 203.604 310.151C203.418 310.125 203.238 310.111 203.064 310.111C202.689 310.111 202.352 310.193 202.053 310.356C201.757 310.515 201.524 310.736 201.354 311.02C201.183 311.305 201.098 311.632 201.098 312.003V317.134H199.041ZM208.832 317.305C207.98 317.305 207.241 317.117 206.616 316.742C205.991 316.367 205.507 315.842 205.162 315.168C204.821 314.494 204.651 313.706 204.651 312.805C204.651 311.903 204.821 311.113 205.162 310.435C205.507 309.757 205.991 309.231 206.616 308.856C207.241 308.481 207.98 308.293 208.832 308.293C209.685 308.293 210.423 308.481 211.048 308.856C211.673 309.231 212.156 309.757 212.497 310.435C212.842 311.113 213.014 311.903 213.014 312.805C213.014 313.706 212.842 314.494 212.497 315.168C212.156 315.842 211.673 316.367 211.048 316.742C210.423 317.117 209.685 317.305 208.832 317.305ZM208.844 315.657C209.306 315.657 209.692 315.53 210.003 315.276C210.313 315.019 210.545 314.674 210.696 314.242C210.851 313.81 210.929 313.329 210.929 312.799C210.929 312.265 210.851 311.782 210.696 311.35C210.545 310.914 210.313 310.568 210.003 310.31C209.692 310.053 209.306 309.924 208.844 309.924C208.37 309.924 207.976 310.053 207.662 310.31C207.351 310.568 207.118 310.914 206.963 311.35C206.812 311.782 206.736 312.265 206.736 312.799C206.736 313.329 206.812 313.81 206.963 314.242C207.118 314.674 207.351 315.019 207.662 315.276C207.976 315.53 208.37 315.657 208.844 315.657ZM217.999 317.288C217.313 317.288 216.699 317.111 216.158 316.759C215.616 316.407 215.188 315.895 214.874 315.225C214.559 314.555 214.402 313.74 214.402 312.782C214.402 311.812 214.561 310.994 214.879 310.327C215.201 309.657 215.635 309.151 216.18 308.81C216.726 308.466 217.334 308.293 218.004 308.293C218.516 308.293 218.936 308.38 219.266 308.555C219.595 308.725 219.857 308.931 220.05 309.174C220.243 309.413 220.393 309.638 220.499 309.85H220.584V305.498H222.646V317.134H220.624V315.759H220.499C220.393 315.971 220.239 316.197 220.038 316.435C219.838 316.67 219.572 316.871 219.243 317.038C218.913 317.204 218.499 317.288 217.999 317.288ZM218.572 315.6C219.008 315.6 219.379 315.483 219.686 315.248C219.993 315.009 220.226 314.678 220.385 314.253C220.544 313.829 220.624 313.335 220.624 312.77C220.624 312.206 220.544 311.716 220.385 311.299C220.23 310.882 219.999 310.558 219.692 310.327C219.389 310.096 219.016 309.981 218.572 309.981C218.114 309.981 217.732 310.1 217.425 310.339C217.118 310.577 216.887 310.907 216.732 311.327C216.576 311.748 216.499 312.229 216.499 312.77C216.499 313.316 216.576 313.803 216.732 314.231C216.891 314.655 217.124 314.99 217.43 315.236C217.741 315.479 218.122 315.6 218.572 315.6ZM230.401 313.464V308.407H232.457V317.134H230.463V315.583H230.372C230.175 316.072 229.851 316.471 229.401 316.782C228.954 317.092 228.402 317.248 227.747 317.248C227.175 317.248 226.67 317.121 226.23 316.867C225.795 316.609 225.454 316.236 225.207 315.748C224.961 315.255 224.838 314.661 224.838 313.964V308.407H226.895V313.645C226.895 314.198 227.046 314.638 227.349 314.964C227.652 315.289 228.05 315.452 228.543 315.452C228.846 315.452 229.139 315.378 229.423 315.231C229.707 315.083 229.94 314.863 230.122 314.572C230.308 314.276 230.401 313.907 230.401 313.464ZM238.93 308.407V309.998H233.913V308.407H238.93ZM235.152 306.316H237.209V314.509C237.209 314.786 237.25 314.998 237.334 315.145C237.421 315.289 237.535 315.388 237.675 315.441C237.815 315.494 237.97 315.52 238.141 315.52C238.269 315.52 238.387 315.511 238.493 315.492C238.603 315.473 238.686 315.456 238.743 315.441L239.089 317.049C238.98 317.087 238.822 317.128 238.618 317.174C238.417 317.219 238.171 317.246 237.879 317.253C237.364 317.269 236.9 317.191 236.487 317.02C236.074 316.846 235.747 316.577 235.504 316.214C235.266 315.85 235.148 315.395 235.152 314.85V306.316ZM244.364 317.305C243.511 317.305 242.773 317.117 242.148 316.742C241.523 316.367 241.038 315.842 240.693 315.168C240.352 314.494 240.182 313.706 240.182 312.805C240.182 311.903 240.352 311.113 240.693 310.435C241.038 309.757 241.523 309.231 242.148 308.856C242.773 308.481 243.511 308.293 244.364 308.293C245.216 308.293 245.955 308.481 246.58 308.856C247.205 309.231 247.688 309.757 248.028 310.435C248.373 311.113 248.545 311.903 248.545 312.805C248.545 313.706 248.373 314.494 248.028 315.168C247.688 315.842 247.205 316.367 246.58 316.742C245.955 317.117 245.216 317.305 244.364 317.305ZM244.375 315.657C244.837 315.657 245.223 315.53 245.534 315.276C245.845 315.019 246.076 314.674 246.227 314.242C246.383 313.81 246.46 313.329 246.46 312.799C246.46 312.265 246.383 311.782 246.227 311.35C246.076 310.914 245.845 310.568 245.534 310.31C245.223 310.053 244.837 309.924 244.375 309.924C243.902 309.924 243.508 310.053 243.193 310.31C242.883 310.568 242.65 310.914 242.494 311.35C242.343 311.782 242.267 312.265 242.267 312.799C242.267 313.329 242.343 313.81 242.494 314.242C242.65 314.674 242.883 315.019 243.193 315.276C243.508 315.53 243.902 315.657 244.375 315.657Z" fill="#191919"/>
<path d="M115.915 326.407L118.506 333.753H118.608L121.199 326.407H122.307L119.102 335.134H118.011L114.807 326.407H115.915ZM124.847 335.288C124.432 335.288 124.055 335.209 123.717 335.053C123.379 334.894 123.111 334.665 122.912 334.367C122.713 334.066 122.614 333.702 122.614 333.276C122.614 332.901 122.688 332.597 122.835 332.364C122.983 332.128 123.18 331.944 123.428 331.81C123.675 331.677 123.947 331.577 124.246 331.512C124.547 331.444 124.849 331.39 125.153 331.35C125.551 331.299 125.874 331.261 126.121 331.235C126.371 331.207 126.553 331.16 126.666 331.094C126.783 331.029 126.841 330.915 126.841 330.753V330.719C126.841 330.299 126.726 329.972 126.496 329.739C126.268 329.506 125.923 329.39 125.46 329.39C124.98 329.39 124.604 329.495 124.331 329.705C124.058 329.915 123.866 330.14 123.756 330.378L122.801 330.038C122.972 329.64 123.199 329.33 123.483 329.109C123.77 328.884 124.082 328.728 124.42 328.64C124.761 328.549 125.097 328.503 125.426 328.503C125.636 328.503 125.878 328.529 126.151 328.58C126.426 328.628 126.692 328.729 126.947 328.883C127.206 329.036 127.42 329.268 127.591 329.577C127.761 329.887 127.847 330.302 127.847 330.822V335.134H126.841V334.248H126.79C126.722 334.39 126.608 334.542 126.449 334.704C126.29 334.866 126.078 335.003 125.814 335.117C125.55 335.231 125.227 335.288 124.847 335.288ZM125 334.384C125.398 334.384 125.733 334.306 126.006 334.15C126.281 333.993 126.489 333.792 126.628 333.545C126.77 333.297 126.841 333.038 126.841 332.765V331.844C126.798 331.895 126.705 331.942 126.56 331.985C126.418 332.025 126.253 332.06 126.065 332.091C125.881 332.12 125.7 332.145 125.524 332.168C125.351 332.188 125.21 332.205 125.102 332.219C124.841 332.253 124.597 332.309 124.369 332.386C124.145 332.459 123.963 332.572 123.824 332.722C123.688 332.87 123.619 333.072 123.619 333.327C123.619 333.677 123.749 333.941 124.007 334.12C124.268 334.296 124.599 334.384 125 334.384ZM130.688 326.407V335.134H129.682V326.407H130.688ZM135.189 335.27C134.598 335.27 134.08 335.13 133.634 334.849C133.19 334.567 132.844 334.174 132.594 333.668C132.347 333.163 132.223 332.572 132.223 331.895C132.223 331.214 132.347 330.618 132.594 330.11C132.844 329.601 133.19 329.207 133.634 328.925C134.08 328.644 134.598 328.503 135.189 328.503C135.78 328.503 136.297 328.644 136.74 328.925C137.186 329.207 137.533 329.601 137.78 330.11C138.03 330.618 138.155 331.214 138.155 331.895C138.155 332.572 138.03 333.163 137.78 333.668C137.533 334.174 137.186 334.567 136.74 334.849C136.297 335.13 135.78 335.27 135.189 335.27ZM135.189 334.367C135.638 334.367 136.007 334.252 136.297 334.022C136.587 333.792 136.801 333.489 136.94 333.114C137.08 332.739 137.149 332.333 137.149 331.895C137.149 331.458 137.08 331.05 136.94 330.672C136.801 330.295 136.587 329.989 136.297 329.756C136.007 329.523 135.638 329.407 135.189 329.407C134.74 329.407 134.371 329.523 134.081 329.756C133.791 329.989 133.577 330.295 133.438 330.672C133.298 331.05 133.229 331.458 133.229 331.895C133.229 332.333 133.298 332.739 133.438 333.114C133.577 333.489 133.791 333.792 134.081 334.022C134.371 334.252 134.74 334.367 135.189 334.367ZM139.69 335.134V328.589H140.662V329.577H140.73C140.849 329.253 141.065 328.991 141.377 328.789C141.69 328.587 142.042 328.486 142.434 328.486C142.508 328.486 142.6 328.488 142.711 328.491C142.822 328.493 142.906 328.498 142.963 328.503V329.526C142.929 329.518 142.85 329.505 142.728 329.488C142.609 329.468 142.483 329.458 142.349 329.458C142.031 329.458 141.747 329.525 141.497 329.658C141.25 329.789 141.054 329.971 140.909 330.204C140.767 330.434 140.696 330.697 140.696 330.992V335.134H139.69Z" fill="#9F9F9F"/>
<rect x="276.5" y="303.134" width="79" height="31" rx="5" fill="#F3F3F3"/>
<path d="M312.363 321.833V319.653L317.828 311.043H319.707V314.06H318.595L315.15 319.513V319.615H322.916V321.833H312.363ZM318.646 324.134V321.168L318.697 320.203V311.043H321.293V324.134H318.646Z" fill="#525256"/>
<path d="M348.505 317.352H341.215V309.657C341.215 308.949 340.671 308.374 340 308.374C339.329 308.374 338.785 308.949 338.785 309.657V317.352H331.495C330.824 317.352 330.28 317.926 330.28 318.634C330.28 319.342 330.824 319.917 331.495 319.917H338.785V327.612C338.785 328.32 339.329 328.894 340 328.894C340.671 328.894 341.215 328.32 341.215 327.612V319.917H348.505C349.176 319.917 349.72 319.342 349.72 318.634C349.72 317.926 349.176 317.352 348.505 317.352Z" fill="#525256"/>
<path d="M289.375 323.259V319.509M295.625 323.259V319.509M289.375 309.509C289.375 309.509 290 308.259 292.5 308.259C295 308.259 295.625 309.509 295.625 309.509M281.25 313.259H303.75C301.995 313.259 301.116 313.259 300.486 313.68C300.213 313.863 299.979 314.097 299.796 314.37C299.375 315 299.375 315.879 299.375 317.634V324.509C299.375 326.867 299.375 328.044 298.642 328.777C297.91 329.509 296.733 329.509 294.375 329.509H290.625C288.267 329.509 287.09 329.509 286.357 328.777C285.625 328.044 285.625 326.867 285.625 324.509V317.634C285.625 315.879 285.625 315 285.204 314.37C285.021 314.097 284.787 313.863 284.514 313.68C283.884 313.259 283.005 313.259 281.25 313.259Z" stroke="#525256" stroke-width="2" stroke-linecap="round"/>
<mask id="path-32-inside-4_16_159" fill="white">
<path d="M58.5 363.134H356.5V437.866H58.5V363.134Z"/>
</mask>
<path d="M356.5 436.866H58.5V438.866H356.5V436.866Z" fill="#F3F3F3" mask="url(#path-32-inside-4_16_159)"/>
<rect x="194.5" y="387.134" width="162" height="26" rx="5" fill="#F3F3F3"/>
<path d="M227.14 406.773H224.833L228.348 396.591H231.122L234.632 406.773H232.325L229.775 398.918H229.695L227.14 406.773ZM226.996 402.771H232.445V404.452H226.996V402.771ZM239.467 406.773H235.858V396.591H239.497C240.521 396.591 241.403 396.795 242.142 397.203C242.881 397.607 243.449 398.189 243.847 398.948C244.248 399.707 244.449 400.615 244.449 401.672C244.449 402.733 244.248 403.644 243.847 404.407C243.449 405.169 242.877 405.754 242.132 406.162C241.389 406.569 240.501 406.773 239.467 406.773ZM238.01 404.929H239.377C240.014 404.929 240.549 404.816 240.983 404.591C241.421 404.362 241.749 404.009 241.968 403.532C242.19 403.051 242.301 402.431 242.301 401.672C242.301 400.92 242.19 400.305 241.968 399.828C241.749 399.351 241.422 398.999 240.988 398.774C240.554 398.549 240.019 398.436 239.382 398.436H238.01V404.929ZM248.196 396.591V406.773H246.043V396.591H248.196ZM258.951 400.156H256.773C256.733 399.874 256.652 399.624 256.529 399.405C256.407 399.183 256.249 398.994 256.057 398.839C255.865 398.683 255.643 398.564 255.391 398.481C255.142 398.398 254.872 398.356 254.581 398.356C254.054 398.356 253.595 398.487 253.203 398.749C252.812 399.008 252.509 399.385 252.294 399.883C252.078 400.376 251.971 400.976 251.971 401.682C251.971 402.408 252.078 403.018 252.294 403.512C252.512 404.006 252.817 404.379 253.208 404.63C253.6 404.882 254.052 405.008 254.566 405.008C254.854 405.008 255.121 404.97 255.366 404.894C255.615 404.818 255.835 404.707 256.027 404.561C256.22 404.412 256.379 404.231 256.505 404.019C256.634 403.807 256.723 403.565 256.773 403.293L258.951 403.303C258.894 403.77 258.753 404.221 258.528 404.655C258.306 405.086 258.006 405.472 257.628 405.814C257.254 406.152 256.806 406.42 256.286 406.619C255.769 406.815 255.184 406.912 254.531 406.912C253.623 406.912 252.811 406.707 252.095 406.296C251.382 405.885 250.819 405.29 250.404 404.511C249.993 403.732 249.788 402.789 249.788 401.682C249.788 400.572 249.997 399.627 250.414 398.849C250.832 398.07 251.399 397.476 252.115 397.069C252.831 396.658 253.636 396.452 254.531 396.452C255.121 396.452 255.668 396.535 256.172 396.701C256.679 396.867 257.128 397.108 257.519 397.427C257.91 397.742 258.228 398.128 258.473 398.585C258.722 399.042 258.881 399.566 258.951 400.156ZM262.647 396.591V406.773H260.494V396.591H262.647ZM273.775 401.682C273.775 402.793 273.564 403.737 273.143 404.516C272.726 405.295 272.156 405.89 271.433 406.301C270.714 406.709 269.905 406.912 269.007 406.912C268.102 406.912 267.29 406.707 266.571 406.296C265.852 405.885 265.283 405.29 264.866 404.511C264.448 403.732 264.239 402.789 264.239 401.682C264.239 400.572 264.448 399.627 264.866 398.849C265.283 398.07 265.852 397.476 266.571 397.069C267.29 396.658 268.102 396.452 269.007 396.452C269.905 396.452 270.714 396.658 271.433 397.069C272.156 397.476 272.726 398.07 273.143 398.849C273.564 399.627 273.775 400.572 273.775 401.682ZM271.592 401.682C271.592 400.963 271.484 400.357 271.269 399.863C271.057 399.369 270.757 398.994 270.369 398.739C269.981 398.484 269.527 398.356 269.007 398.356C268.487 398.356 268.032 398.484 267.645 398.739C267.257 398.994 266.955 399.369 266.74 399.863C266.528 400.357 266.422 400.963 266.422 401.682C266.422 402.402 266.528 403.008 266.74 403.502C266.955 403.996 267.257 404.37 267.645 404.626C268.032 404.881 268.487 405.008 269.007 405.008C269.527 405.008 269.981 404.881 270.369 404.626C270.757 404.37 271.057 403.996 271.269 403.502C271.484 403.008 271.592 402.402 271.592 401.682ZM283.886 396.591V406.773H282.026L277.597 400.365H277.522V406.773H275.369V396.591H277.259L281.653 402.995H281.743V396.591H283.886ZM287.419 406.773H285.112L288.627 396.591H291.401L294.911 406.773H292.605L290.054 398.918H289.975L287.419 406.773ZM287.275 402.771H292.724V404.452H287.275V402.771ZM296.137 406.773V396.591H300.154C300.923 396.591 301.579 396.729 302.123 397.004C302.67 397.276 303.086 397.662 303.371 398.162C303.659 398.66 303.803 399.245 303.803 399.917C303.803 400.594 303.657 401.175 303.366 401.662C303.074 402.146 302.651 402.518 302.098 402.776C301.548 403.035 300.881 403.164 300.099 403.164H297.41V401.434H299.751C300.162 401.434 300.504 401.377 300.775 401.265C301.047 401.152 301.249 400.983 301.382 400.758C301.518 400.532 301.586 400.252 301.586 399.917C301.586 399.579 301.518 399.294 301.382 399.062C301.249 398.83 301.046 398.655 300.77 398.535C300.499 398.413 300.156 398.351 299.741 398.351H298.29V406.773H296.137ZM301.635 402.14L304.166 406.773H301.79L299.314 402.14H301.635ZM310.717 396.591V406.773H308.565V396.591H310.717ZM312.101 398.366V396.591H320.463V398.366H317.346V406.773H315.218V398.366H312.101ZM321.84 406.773V396.591H328.701V398.366H323.993V400.792H328.348V402.567H323.993V404.998H328.721V406.773H321.84ZM330.412 396.591H333.067L335.871 403.432H335.99L338.794 396.591H341.449V406.773H339.361V400.146H339.277L336.642 406.724H335.22L332.585 400.121H332.5V406.773H330.412V396.591ZM348.746 399.52C348.706 399.119 348.536 398.807 348.234 398.585C347.933 398.363 347.523 398.252 347.006 398.252C346.655 398.252 346.358 398.302 346.116 398.401C345.874 398.497 345.689 398.631 345.559 398.804C345.434 398.976 345.371 399.172 345.371 399.39C345.364 399.573 345.402 399.732 345.485 399.868C345.571 400.004 345.689 400.121 345.838 400.221C345.987 400.317 346.159 400.401 346.355 400.474C346.55 400.544 346.759 400.604 346.981 400.653L347.896 400.872C348.34 400.971 348.748 401.104 349.119 401.27C349.49 401.435 349.812 401.639 350.084 401.881C350.355 402.123 350.566 402.408 350.715 402.736C350.867 403.064 350.945 403.441 350.949 403.865C350.945 404.488 350.786 405.028 350.471 405.486C350.16 405.94 349.709 406.293 349.119 406.545C348.532 406.793 347.825 406.917 346.996 406.917C346.174 406.917 345.458 406.791 344.849 406.54C344.242 406.288 343.768 405.915 343.427 405.421C343.089 404.924 342.911 404.309 342.895 403.577H344.978C345.001 403.918 345.099 404.203 345.271 404.432C345.447 404.657 345.68 404.828 345.972 404.944C346.267 405.056 346.6 405.113 346.971 405.113C347.336 405.113 347.653 405.06 347.921 404.954C348.193 404.848 348.403 404.7 348.552 404.511C348.702 404.322 348.776 404.105 348.776 403.86C348.776 403.631 348.708 403.439 348.572 403.283C348.44 403.127 348.244 402.995 347.986 402.885C347.73 402.776 347.417 402.677 347.046 402.587L345.937 402.309C345.079 402.1 344.401 401.773 343.904 401.329C343.407 400.885 343.16 400.287 343.163 399.535C343.16 398.918 343.324 398.38 343.655 397.919C343.99 397.458 344.449 397.099 345.032 396.84C345.616 396.581 346.279 396.452 347.021 396.452C347.777 396.452 348.436 396.581 349 396.84C349.567 397.099 350.007 397.458 350.322 397.919C350.637 398.38 350.8 398.913 350.809 399.52H348.746Z" fill="#525256"/>
<path d="M215.741 399.968H209.533V393.414C209.533 392.811 209.069 392.322 208.498 392.322C207.927 392.322 207.463 392.811 207.463 393.414V399.968H201.254C200.683 399.968 200.219 400.457 200.219 401.06C200.219 401.663 200.683 402.153 201.254 402.153H207.463V408.706C207.463 409.309 207.927 409.799 208.498 409.799C209.069 409.799 209.533 409.309 209.533 408.706V402.153H215.741C216.313 402.153 216.776 401.663 216.776 401.06C216.776 400.457 216.313 399.968 215.741 399.968Z" fill="#525256"/>
<rect x="52.5" y="651.5" width="310" height="64" rx="15" fill="#525256"/>
<path d="M169.608 681.79H167.483C167.422 681.441 167.311 681.133 167.148 680.864C166.985 680.591 166.782 680.36 166.54 680.17C166.297 679.981 166.021 679.839 165.71 679.744C165.403 679.646 165.072 679.597 164.716 679.597C164.083 679.597 163.523 679.756 163.034 680.074C162.545 680.388 162.163 680.85 161.886 681.46C161.61 682.066 161.472 682.807 161.472 683.682C161.472 684.572 161.61 685.322 161.886 685.932C162.167 686.538 162.549 686.996 163.034 687.307C163.523 687.614 164.081 687.767 164.71 687.767C165.059 687.767 165.384 687.722 165.688 687.631C165.994 687.536 166.269 687.398 166.511 687.216C166.758 687.034 166.964 686.811 167.131 686.545C167.301 686.28 167.419 685.977 167.483 685.636L169.608 685.648C169.528 686.201 169.356 686.72 169.091 687.205C168.83 687.689 168.487 688.117 168.062 688.489C167.638 688.856 167.142 689.144 166.574 689.352C166.006 689.557 165.375 689.659 164.682 689.659C163.659 689.659 162.746 689.422 161.943 688.949C161.14 688.475 160.508 687.792 160.045 686.898C159.583 686.004 159.352 684.932 159.352 683.682C159.352 682.428 159.585 681.356 160.051 680.466C160.517 679.572 161.152 678.888 161.955 678.415C162.758 677.941 163.667 677.705 164.682 677.705C165.33 677.705 165.932 677.795 166.489 677.977C167.045 678.159 167.542 678.426 167.977 678.778C168.413 679.127 168.771 679.555 169.051 680.062C169.335 680.566 169.521 681.142 169.608 681.79ZM175.254 689.67C174.402 689.67 173.663 689.483 173.038 689.108C172.413 688.733 171.929 688.208 171.584 687.534C171.243 686.86 171.072 686.072 171.072 685.17C171.072 684.269 171.243 683.479 171.584 682.801C171.929 682.123 172.413 681.597 173.038 681.222C173.663 680.847 174.402 680.659 175.254 680.659C176.107 680.659 176.845 680.847 177.47 681.222C178.095 681.597 178.578 682.123 178.919 682.801C179.264 683.479 179.436 684.269 179.436 685.17C179.436 686.072 179.264 686.86 178.919 687.534C178.578 688.208 178.095 688.733 177.47 689.108C176.845 689.483 176.107 689.67 175.254 689.67ZM175.266 688.023C175.728 688.023 176.114 687.896 176.425 687.642C176.735 687.384 176.966 687.04 177.118 686.608C177.273 686.176 177.351 685.695 177.351 685.165C177.351 684.631 177.273 684.148 177.118 683.716C176.966 683.28 176.735 682.934 176.425 682.676C176.114 682.419 175.728 682.29 175.266 682.29C174.792 682.29 174.398 682.419 174.084 682.676C173.773 682.934 173.54 683.28 173.385 683.716C173.233 684.148 173.158 684.631 173.158 685.165C173.158 685.695 173.233 686.176 173.385 686.608C173.54 687.04 173.773 687.384 174.084 687.642C174.398 687.896 174.792 688.023 175.266 688.023ZM183.239 684.386V689.5H181.182V680.773H183.148V682.256H183.25C183.451 681.767 183.771 681.379 184.21 681.091C184.653 680.803 185.201 680.659 185.852 680.659C186.455 680.659 186.979 680.788 187.426 681.045C187.877 681.303 188.225 681.676 188.472 682.165C188.722 682.653 188.845 683.246 188.841 683.943V689.5H186.784V684.261C186.784 683.678 186.633 683.222 186.33 682.892C186.03 682.562 185.616 682.398 185.085 682.398C184.725 682.398 184.405 682.477 184.125 682.636C183.848 682.792 183.631 683.017 183.472 683.312C183.316 683.608 183.239 683.966 183.239 684.386ZM195.352 680.773V682.364H190.193V680.773H195.352ZM191.483 689.5V679.949C191.483 679.362 191.604 678.873 191.847 678.483C192.093 678.093 192.422 677.801 192.835 677.608C193.248 677.415 193.706 677.318 194.21 677.318C194.566 677.318 194.883 677.347 195.159 677.403C195.436 677.46 195.64 677.511 195.773 677.557L195.364 679.148C195.277 679.121 195.167 679.095 195.034 679.068C194.902 679.038 194.754 679.023 194.591 679.023C194.208 679.023 193.938 679.116 193.778 679.301C193.623 679.483 193.545 679.744 193.545 680.085V689.5H191.483ZM196.963 689.5V680.773H199.02V689.5H196.963ZM197.997 679.534C197.671 679.534 197.391 679.426 197.156 679.21C196.921 678.991 196.804 678.727 196.804 678.42C196.804 678.11 196.921 677.847 197.156 677.631C197.391 677.411 197.671 677.301 197.997 677.301C198.327 677.301 198.607 677.411 198.838 677.631C199.073 677.847 199.19 678.11 199.19 678.42C199.19 678.727 199.073 678.991 198.838 679.21C198.607 679.426 198.327 679.534 197.997 679.534ZM201.135 689.5V680.773H203.129V682.227H203.22C203.379 681.723 203.652 681.335 204.038 681.062C204.429 680.786 204.874 680.648 205.374 680.648C205.487 680.648 205.614 680.653 205.754 680.665C205.898 680.672 206.018 680.686 206.112 680.705V682.597C206.025 682.566 205.887 682.54 205.697 682.517C205.512 682.491 205.332 682.477 205.158 682.477C204.783 682.477 204.446 682.559 204.146 682.722C203.851 682.881 203.618 683.102 203.447 683.386C203.277 683.67 203.192 683.998 203.192 684.369V689.5H201.135ZM207.479 689.5V680.773H209.445V682.256H209.547C209.729 681.756 210.03 681.366 210.45 681.085C210.871 680.801 211.373 680.659 211.956 680.659C212.547 680.659 213.045 680.803 213.45 681.091C213.859 681.375 214.147 681.763 214.314 682.256H214.405C214.598 681.771 214.924 681.384 215.382 681.097C215.844 680.805 216.392 680.659 217.024 680.659C217.827 680.659 218.482 680.913 218.99 681.42C219.498 681.928 219.751 682.669 219.751 683.642V689.5H217.689V683.96C217.689 683.419 217.545 683.023 217.257 682.773C216.969 682.519 216.617 682.392 216.2 682.392C215.704 682.392 215.316 682.547 215.036 682.858C214.759 683.165 214.621 683.564 214.621 684.057V689.5H212.604V683.875C212.604 683.424 212.467 683.064 212.195 682.795C211.926 682.527 211.573 682.392 211.138 682.392C210.842 682.392 210.573 682.468 210.331 682.619C210.089 682.767 209.895 682.977 209.751 683.25C209.607 683.519 209.536 683.833 209.536 684.193V689.5H207.479ZM224.349 689.676C223.796 689.676 223.298 689.578 222.855 689.381C222.416 689.18 222.067 688.884 221.81 688.494C221.556 688.104 221.429 687.623 221.429 687.051C221.429 686.559 221.52 686.152 221.702 685.83C221.884 685.508 222.132 685.25 222.446 685.057C222.76 684.864 223.115 684.718 223.509 684.619C223.906 684.517 224.317 684.443 224.741 684.398C225.253 684.345 225.668 684.297 225.986 684.256C226.304 684.21 226.535 684.142 226.679 684.051C226.827 683.956 226.901 683.811 226.901 683.614V683.58C226.901 683.152 226.774 682.82 226.52 682.585C226.266 682.35 225.901 682.233 225.423 682.233C224.92 682.233 224.52 682.343 224.224 682.562C223.933 682.782 223.736 683.042 223.634 683.341L221.713 683.068C221.865 682.538 222.115 682.095 222.463 681.739C222.812 681.379 223.238 681.11 223.741 680.932C224.245 680.75 224.802 680.659 225.412 680.659C225.832 680.659 226.251 680.708 226.668 680.807C227.084 680.905 227.465 681.068 227.81 681.295C228.154 681.519 228.431 681.824 228.639 682.21C228.851 682.597 228.957 683.08 228.957 683.659V689.5H226.98V688.301H226.912C226.787 688.544 226.611 688.771 226.384 688.983C226.16 689.191 225.878 689.36 225.537 689.489C225.2 689.614 224.804 689.676 224.349 689.676ZM224.884 688.165C225.296 688.165 225.654 688.083 225.957 687.92C226.26 687.754 226.493 687.534 226.656 687.261C226.823 686.989 226.906 686.691 226.906 686.369V685.341C226.842 685.394 226.732 685.443 226.577 685.489C226.425 685.534 226.255 685.574 226.065 685.608C225.876 685.642 225.688 685.672 225.503 685.699C225.317 685.725 225.156 685.748 225.02 685.767C224.713 685.809 224.438 685.877 224.196 685.972C223.954 686.066 223.762 686.199 223.622 686.369C223.482 686.536 223.412 686.752 223.412 687.017C223.412 687.396 223.55 687.682 223.827 687.875C224.103 688.068 224.455 688.165 224.884 688.165ZM231.026 689.5V680.773H233.02V682.227H233.111C233.27 681.723 233.543 681.335 233.929 681.062C234.319 680.786 234.764 680.648 235.264 680.648C235.378 680.648 235.505 680.653 235.645 680.665C235.789 680.672 235.908 680.686 236.003 680.705V682.597C235.916 682.566 235.777 682.54 235.588 682.517C235.402 682.491 235.223 682.477 235.048 682.477C234.673 682.477 234.336 682.559 234.037 682.722C233.741 682.881 233.509 683.102 233.338 683.386C233.168 683.67 233.082 683.998 233.082 684.369V689.5H231.026Z" fill="white"/>
<mask id="path-39-inside-5_16_159" fill="white">
<path d="M88 41H328V81H88V41Z"/>
</mask>
<path d="M328 79H88V83H328V79Z" fill="#00D09E" mask="url(#path-39-inside-5_16_159)"/>
<path d="M103.324 58.7102C103.278 58.2519 103.083 57.8958 102.739 57.642C102.394 57.3883 101.926 57.2614 101.335 57.2614C100.934 57.2614 100.595 57.3182 100.318 57.4318C100.042 57.5417 99.8295 57.6951 99.6818 57.892C99.5379 58.089 99.4659 58.3125 99.4659 58.5625C99.4583 58.7708 99.5019 58.9527 99.5966 59.108C99.6951 59.2633 99.8295 59.3977 100 59.5114C100.17 59.6212 100.367 59.7178 100.591 59.8011C100.814 59.8807 101.053 59.9489 101.307 60.0057L102.352 60.2557C102.86 60.3693 103.326 60.5208 103.75 60.7102C104.174 60.8996 104.542 61.1326 104.852 61.4091C105.163 61.6856 105.403 62.0114 105.574 62.3864C105.748 62.7614 105.837 63.1913 105.841 63.6761C105.837 64.3883 105.655 65.0057 105.295 65.5284C104.939 66.0473 104.424 66.4508 103.75 66.7386C103.08 67.0227 102.271 67.1648 101.324 67.1648C100.384 67.1648 99.5663 67.0208 98.8693 66.733C98.1761 66.4451 97.6345 66.0189 97.2443 65.4545C96.858 64.8864 96.6553 64.1837 96.6364 63.3466H99.017C99.0436 63.7367 99.1553 64.0625 99.3523 64.3239C99.553 64.5814 99.8201 64.7765 100.153 64.9091C100.491 65.0379 100.871 65.1023 101.295 65.1023C101.712 65.1023 102.074 65.0417 102.381 64.9205C102.691 64.7992 102.932 64.6307 103.102 64.4148C103.273 64.1989 103.358 63.9508 103.358 63.6705C103.358 63.4091 103.28 63.1894 103.125 63.0114C102.973 62.8333 102.75 62.6818 102.455 62.5568C102.163 62.4318 101.805 62.3182 101.381 62.2159L100.114 61.8977C99.1326 61.6591 98.358 61.286 97.7898 60.7784C97.2216 60.2708 96.9394 59.5871 96.9432 58.7273C96.9394 58.0227 97.1269 57.4072 97.5057 56.8807C97.8883 56.3542 98.4129 55.9432 99.0795 55.6477C99.7462 55.3523 100.504 55.2045 101.352 55.2045C102.216 55.2045 102.97 55.3523 103.614 55.6477C104.261 55.9432 104.765 56.3542 105.125 56.8807C105.485 57.4072 105.67 58.017 105.682 58.7102H103.324ZM111.428 67.1705C110.53 67.1705 109.757 66.9886 109.109 66.625C108.465 66.2576 107.969 65.7386 107.621 65.0682C107.272 64.3939 107.098 63.5966 107.098 62.6761C107.098 61.7784 107.272 60.9905 107.621 60.3125C107.969 59.6345 108.46 59.1061 109.092 58.7273C109.729 58.3485 110.475 58.1591 111.331 58.1591C111.907 58.1591 112.443 58.2519 112.939 58.4375C113.439 58.6193 113.875 58.8939 114.246 59.2614C114.621 59.6288 114.912 60.0909 115.121 60.6477C115.329 61.2008 115.433 61.8485 115.433 62.5909V63.2557H108.064V61.7557H113.155C113.155 61.4072 113.079 61.0985 112.928 60.8295C112.776 60.5606 112.566 60.3504 112.297 60.1989C112.032 60.0436 111.723 59.9659 111.371 59.9659C111.003 59.9659 110.678 60.0511 110.393 60.2216C110.113 60.3883 109.893 60.6136 109.734 60.8977C109.575 61.178 109.494 61.4905 109.49 61.8352V63.2614C109.49 63.6932 109.57 64.0663 109.729 64.3807C109.892 64.6951 110.121 64.9375 110.416 65.108C110.712 65.2784 111.062 65.3636 111.467 65.3636C111.736 65.3636 111.982 65.3258 112.206 65.25C112.429 65.1742 112.621 65.0606 112.78 64.9091C112.939 64.7576 113.06 64.572 113.143 64.3523L115.382 64.5C115.268 65.0379 115.036 65.5076 114.683 65.9091C114.335 66.3068 113.884 66.6174 113.331 66.8409C112.782 67.0606 112.147 67.1705 111.428 67.1705ZM122.609 63.2841V58.2727H125.03V67H122.706V65.4148H122.615C122.418 65.9261 122.09 66.3371 121.632 66.6477C121.178 66.9583 120.623 67.1136 119.967 67.1136C119.384 67.1136 118.871 66.9811 118.428 66.7159C117.984 66.4508 117.638 66.0739 117.388 65.5852C117.142 65.0966 117.017 64.5114 117.013 63.8295V58.2727H119.433V63.3977C119.437 63.9129 119.575 64.3201 119.848 64.6193C120.121 64.9186 120.486 65.0682 120.945 65.0682C121.236 65.0682 121.509 65.0019 121.763 64.8693C122.017 64.733 122.221 64.5322 122.376 64.267C122.536 64.0019 122.613 63.6742 122.609 63.2841ZM134.227 60.7614L132.011 60.8977C131.973 60.7083 131.892 60.5379 131.767 60.3864C131.642 60.2311 131.477 60.108 131.273 60.017C131.072 59.9223 130.831 59.875 130.551 59.875C130.176 59.875 129.86 59.9545 129.602 60.1136C129.345 60.2689 129.216 60.4773 129.216 60.7386C129.216 60.947 129.299 61.1231 129.466 61.267C129.633 61.411 129.919 61.5265 130.324 61.6136L131.903 61.9318C132.752 62.1061 133.384 62.3864 133.801 62.7727C134.218 63.1591 134.426 63.6667 134.426 64.2955C134.426 64.8674 134.258 65.3693 133.92 65.8011C133.587 66.233 133.129 66.5701 132.545 66.8125C131.966 67.0511 131.297 67.1705 130.54 67.1705C129.384 67.1705 128.464 66.9299 127.778 66.4489C127.097 65.964 126.697 65.3049 126.58 64.4716L128.96 64.3466C129.032 64.6989 129.206 64.9678 129.483 65.1534C129.759 65.3352 130.114 65.4261 130.545 65.4261C130.97 65.4261 131.311 65.3447 131.568 65.1818C131.83 65.0152 131.962 64.8011 131.966 64.5398C131.962 64.3201 131.869 64.1402 131.688 64C131.506 63.8561 131.225 63.7462 130.847 63.6705L129.335 63.3693C128.483 63.1989 127.848 62.9034 127.432 62.483C127.019 62.0625 126.812 61.5265 126.812 60.875C126.812 60.3144 126.964 59.8314 127.267 59.4261C127.574 59.0208 128.004 58.7083 128.557 58.4886C129.114 58.2689 129.765 58.1591 130.511 58.1591C131.614 58.1591 132.481 58.392 133.114 58.858C133.75 59.3239 134.121 59.9583 134.227 60.7614ZM139.699 67V55.3636H144.29C145.172 55.3636 145.924 55.5322 146.545 55.8693C147.167 56.2027 147.64 56.6667 147.966 57.2614C148.295 57.8523 148.46 58.5341 148.46 59.3068C148.46 60.0795 148.294 60.7614 147.96 61.3523C147.627 61.9432 147.144 62.4034 146.511 62.733C145.883 63.0625 145.121 63.2273 144.227 63.2273H141.301V61.2557H143.83C144.303 61.2557 144.693 61.1742 145 61.0114C145.311 60.8447 145.542 60.6155 145.693 60.3239C145.848 60.0284 145.926 59.6894 145.926 59.3068C145.926 58.9205 145.848 58.5833 145.693 58.2955C145.542 58.0038 145.311 57.7784 145 57.6193C144.689 57.4564 144.295 57.375 143.818 57.375H142.159V67H139.699ZM150.013 67V58.2727H152.359V59.7955H152.45C152.609 59.2538 152.876 58.8447 153.251 58.5682C153.626 58.2879 154.058 58.1477 154.547 58.1477C154.668 58.1477 154.799 58.1553 154.939 58.1705C155.079 58.1856 155.202 58.2064 155.308 58.233V60.3807C155.195 60.3466 155.037 60.3163 154.837 60.2898C154.636 60.2633 154.452 60.25 154.286 60.25C153.929 60.25 153.611 60.3277 153.331 60.483C153.054 60.6345 152.835 60.8466 152.672 61.1193C152.513 61.392 152.433 61.7064 152.433 62.0625V67H150.013ZM160.097 67.1705C159.214 67.1705 158.451 66.983 157.807 66.608C157.167 66.2292 156.672 65.7027 156.324 65.0284C155.975 64.3504 155.801 63.5644 155.801 62.6705C155.801 61.7689 155.975 60.9811 156.324 60.3068C156.672 59.6288 157.167 59.1023 157.807 58.7273C158.451 58.3485 159.214 58.1591 160.097 58.1591C160.979 58.1591 161.741 58.3485 162.381 58.7273C163.025 59.1023 163.521 59.6288 163.869 60.3068C164.218 60.9811 164.392 61.7689 164.392 62.6705C164.392 63.5644 164.218 64.3504 163.869 65.0284C163.521 65.7027 163.025 66.2292 162.381 66.608C161.741 66.983 160.979 67.1705 160.097 67.1705ZM160.108 65.2955C160.509 65.2955 160.845 65.1818 161.114 64.9545C161.383 64.7235 161.585 64.4091 161.722 64.0114C161.862 63.6136 161.932 63.161 161.932 62.6534C161.932 62.1458 161.862 61.6932 161.722 61.2955C161.585 60.8977 161.383 60.5833 161.114 60.3523C160.845 60.1212 160.509 60.0057 160.108 60.0057C159.703 60.0057 159.362 60.1212 159.085 60.3523C158.813 60.5833 158.606 60.8977 158.466 61.2955C158.33 61.6932 158.261 62.1458 158.261 62.6534C158.261 63.161 158.33 63.6136 158.466 64.0114C158.606 64.4091 158.813 64.7235 159.085 64.9545C159.362 65.1818 159.703 65.2955 160.108 65.2955ZM169.182 67.142C168.519 67.142 167.919 66.9716 167.381 66.6307C166.847 66.286 166.422 65.7803 166.108 65.1136C165.797 64.4432 165.642 63.6212 165.642 62.6477C165.642 61.6477 165.803 60.8163 166.125 60.1534C166.447 59.4867 166.875 58.9886 167.409 58.6591C167.947 58.3258 168.536 58.1591 169.176 58.1591C169.665 58.1591 170.072 58.2424 170.398 58.4091C170.727 58.572 170.992 58.7765 171.193 59.0227C171.398 59.2652 171.553 59.5038 171.659 59.7386H171.733V55.3636H174.148V67H171.761V65.6023H171.659C171.545 65.8447 171.384 66.0852 171.176 66.3239C170.972 66.5587 170.705 66.7538 170.375 66.9091C170.049 67.0644 169.652 67.142 169.182 67.142ZM169.949 65.2159C170.339 65.2159 170.669 65.1098 170.938 64.8977C171.21 64.6818 171.419 64.3807 171.562 63.9943C171.71 63.608 171.784 63.1553 171.784 62.6364C171.784 62.1174 171.712 61.6667 171.568 61.2841C171.424 60.9015 171.216 60.6061 170.943 60.3977C170.67 60.1894 170.339 60.0852 169.949 60.0852C169.551 60.0852 169.216 60.1932 168.943 60.4091C168.67 60.625 168.464 60.9242 168.324 61.3068C168.184 61.6894 168.114 62.1326 168.114 62.6364C168.114 63.1439 168.184 63.5928 168.324 63.983C168.468 64.3693 168.674 64.6723 168.943 64.892C169.216 65.108 169.551 65.2159 169.949 65.2159ZM181.734 63.2841V58.2727H184.155V67H181.831V65.4148H181.74C181.543 65.9261 181.215 66.3371 180.757 66.6477C180.303 66.9583 179.748 67.1136 179.092 67.1136C178.509 67.1136 177.996 66.9811 177.553 66.7159C177.109 66.4508 176.763 66.0739 176.513 65.5852C176.267 65.0966 176.142 64.5114 176.138 63.8295V58.2727H178.558V63.3977C178.562 63.9129 178.7 64.3201 178.973 64.6193C179.246 64.9186 179.611 65.0682 180.07 65.0682C180.361 65.0682 180.634 65.0019 180.888 64.8693C181.142 64.733 181.346 64.5322 181.501 64.267C181.661 64.0019 181.738 63.6742 181.734 63.2841ZM190.733 58.2727V60.0909H185.477V58.2727H190.733ZM186.67 56.1818H189.091V64.3182C189.091 64.5417 189.125 64.7159 189.193 64.8409C189.261 64.9621 189.356 65.0473 189.477 65.0966C189.602 65.1458 189.746 65.1705 189.909 65.1705C190.023 65.1705 190.136 65.161 190.25 65.142C190.364 65.1193 190.451 65.1023 190.511 65.0909L190.892 66.892C190.771 66.9299 190.6 66.9735 190.381 67.0227C190.161 67.0758 189.894 67.108 189.58 67.1193C188.996 67.142 188.485 67.0644 188.045 66.8864C187.61 66.7083 187.271 66.4318 187.028 66.0568C186.786 65.6818 186.667 65.2083 186.67 64.6364V56.1818ZM196.159 67.1705C195.277 67.1705 194.513 66.983 193.869 66.608C193.229 66.2292 192.735 65.7027 192.386 65.0284C192.038 64.3504 191.864 63.5644 191.864 62.6705C191.864 61.7689 192.038 60.9811 192.386 60.3068C192.735 59.6288 193.229 59.1023 193.869 58.7273C194.513 58.3485 195.277 58.1591 196.159 58.1591C197.042 58.1591 197.803 58.3485 198.443 58.7273C199.087 59.1023 199.583 59.6288 199.932 60.3068C200.28 60.9811 200.455 61.7689 200.455 62.6705C200.455 63.5644 200.28 64.3504 199.932 65.0284C199.583 65.7027 199.087 66.2292 198.443 66.608C197.803 66.983 197.042 67.1705 196.159 67.1705ZM196.17 65.2955C196.572 65.2955 196.907 65.1818 197.176 64.9545C197.445 64.7235 197.648 64.4091 197.784 64.0114C197.924 63.6136 197.994 63.161 197.994 62.6534C197.994 62.1458 197.924 61.6932 197.784 61.2955C197.648 60.8977 197.445 60.5833 197.176 60.3523C196.907 60.1212 196.572 60.0057 196.17 60.0057C195.765 60.0057 195.424 60.1212 195.148 60.3523C194.875 60.5833 194.669 60.8977 194.528 61.2955C194.392 61.6932 194.324 62.1458 194.324 62.6534C194.324 63.161 194.392 63.6136 194.528 64.0114C194.669 64.4091 194.875 64.7235 195.148 64.9545C195.424 65.1818 195.765 65.2955 196.17 65.2955ZM209.29 60.7614L207.074 60.8977C207.036 60.7083 206.955 60.5379 206.83 60.3864C206.705 60.2311 206.54 60.108 206.335 60.017C206.134 59.9223 205.894 59.875 205.614 59.875C205.239 59.875 204.922 59.9545 204.665 60.1136C204.407 60.2689 204.278 60.4773 204.278 60.7386C204.278 60.947 204.362 61.1231 204.528 61.267C204.695 61.411 204.981 61.5265 205.386 61.6136L206.966 61.9318C207.814 62.1061 208.447 62.3864 208.864 62.7727C209.28 63.1591 209.489 63.6667 209.489 64.2955C209.489 64.8674 209.32 65.3693 208.983 65.8011C208.65 66.233 208.191 66.5701 207.608 66.8125C207.028 67.0511 206.36 67.1705 205.602 67.1705C204.447 67.1705 203.527 66.9299 202.841 66.4489C202.159 65.964 201.759 65.3049 201.642 64.4716L204.023 64.3466C204.095 64.6989 204.269 64.9678 204.545 65.1534C204.822 65.3352 205.176 65.4261 205.608 65.4261C206.032 65.4261 206.373 65.3447 206.631 65.1818C206.892 65.0152 207.025 64.8011 207.028 64.5398C207.025 64.3201 206.932 64.1402 206.75 64C206.568 63.8561 206.288 63.7462 205.909 63.6705L204.398 63.3693C203.545 63.1989 202.911 62.9034 202.494 62.483C202.081 62.0625 201.875 61.5265 201.875 60.875C201.875 60.3144 202.027 59.8314 202.33 59.4261C202.636 59.0208 203.066 58.7083 203.619 58.4886C204.176 58.2689 204.828 58.1591 205.574 58.1591C206.676 58.1591 207.544 58.392 208.176 58.858C208.813 59.3239 209.184 59.9583 209.29 60.7614ZM221.074 58.7102C221.028 58.2519 220.833 57.8958 220.489 57.642C220.144 57.3883 219.676 57.2614 219.085 57.2614C218.684 57.2614 218.345 57.3182 218.068 57.4318C217.792 57.5417 217.58 57.6951 217.432 57.892C217.288 58.089 217.216 58.3125 217.216 58.5625C217.208 58.7708 217.252 58.9527 217.347 59.108C217.445 59.2633 217.58 59.3977 217.75 59.5114C217.92 59.6212 218.117 59.7178 218.341 59.8011C218.564 59.8807 218.803 59.9489 219.057 60.0057L220.102 60.2557C220.61 60.3693 221.076 60.5208 221.5 60.7102C221.924 60.8996 222.292 61.1326 222.602 61.4091C222.913 61.6856 223.153 62.0114 223.324 62.3864C223.498 62.7614 223.587 63.1913 223.591 63.6761C223.587 64.3883 223.405 65.0057 223.045 65.5284C222.689 66.0473 222.174 66.4508 221.5 66.7386C220.83 67.0227 220.021 67.1648 219.074 67.1648C218.134 67.1648 217.316 67.0208 216.619 66.733C215.926 66.4451 215.384 66.0189 214.994 65.4545C214.608 64.8864 214.405 64.1837 214.386 63.3466H216.767C216.794 63.7367 216.905 64.0625 217.102 64.3239C217.303 64.5814 217.57 64.7765 217.903 64.9091C218.241 65.0379 218.621 65.1023 219.045 65.1023C219.462 65.1023 219.824 65.0417 220.131 64.9205C220.441 64.7992 220.682 64.6307 220.852 64.4148C221.023 64.1989 221.108 63.9508 221.108 63.6705C221.108 63.4091 221.03 63.1894 220.875 63.0114C220.723 62.8333 220.5 62.6818 220.205 62.5568C219.913 62.4318 219.555 62.3182 219.131 62.2159L217.864 61.8977C216.883 61.6591 216.108 61.286 215.54 60.7784C214.972 60.2708 214.689 59.5871 214.693 58.7273C214.689 58.0227 214.877 57.4072 215.256 56.8807C215.638 56.3542 216.163 55.9432 216.83 55.6477C217.496 55.3523 218.254 55.2045 219.102 55.2045C219.966 55.2045 220.72 55.3523 221.364 55.6477C222.011 55.9432 222.515 56.3542 222.875 56.8807C223.235 57.4072 223.42 58.017 223.432 58.7102H221.074ZM229.178 67.1705C228.28 67.1705 227.507 66.9886 226.859 66.625C226.215 66.2576 225.719 65.7386 225.371 65.0682C225.022 64.3939 224.848 63.5966 224.848 62.6761C224.848 61.7784 225.022 60.9905 225.371 60.3125C225.719 59.6345 226.21 59.1061 226.842 58.7273C227.479 58.3485 228.225 58.1591 229.081 58.1591C229.657 58.1591 230.193 58.2519 230.689 58.4375C231.189 58.6193 231.625 58.8939 231.996 59.2614C232.371 59.6288 232.662 60.0909 232.871 60.6477C233.079 61.2008 233.183 61.8485 233.183 62.5909V63.2557H225.814V61.7557H230.905C230.905 61.4072 230.829 61.0985 230.678 60.8295C230.526 60.5606 230.316 60.3504 230.047 60.1989C229.782 60.0436 229.473 59.9659 229.121 59.9659C228.753 59.9659 228.428 60.0511 228.143 60.2216C227.863 60.3883 227.643 60.6136 227.484 60.8977C227.325 61.178 227.244 61.4905 227.24 61.8352V63.2614C227.24 63.6932 227.32 64.0663 227.479 64.3807C227.642 64.6951 227.871 64.9375 228.166 65.108C228.462 65.2784 228.812 65.3636 229.217 65.3636C229.486 65.3636 229.732 65.3258 229.956 65.25C230.179 65.1742 230.371 65.0606 230.53 64.9091C230.689 64.7576 230.81 64.572 230.893 64.3523L233.132 64.5C233.018 65.0379 232.786 65.5076 232.433 65.9091C232.085 66.3068 231.634 66.6174 231.081 66.8409C230.532 67.0606 229.897 67.1705 229.178 67.1705ZM237.183 55.3636V67H234.763V55.3636H237.183ZM243.099 67.1705C242.202 67.1705 241.429 66.9886 240.781 66.625C240.137 66.2576 239.641 65.7386 239.293 65.0682C238.944 64.3939 238.77 63.5966 238.77 62.6761C238.77 61.7784 238.944 60.9905 239.293 60.3125C239.641 59.6345 240.132 59.1061 240.764 58.7273C241.401 58.3485 242.147 58.1591 243.003 58.1591C243.579 58.1591 244.115 58.2519 244.611 58.4375C245.111 58.6193 245.546 58.8939 245.918 59.2614C246.293 59.6288 246.584 60.0909 246.793 60.6477C247.001 61.2008 247.105 61.8485 247.105 62.5909V63.2557H239.736V61.7557H244.827C244.827 61.4072 244.751 61.0985 244.599 60.8295C244.448 60.5606 244.238 60.3504 243.969 60.1989C243.704 60.0436 243.395 59.9659 243.043 59.9659C242.675 59.9659 242.349 60.0511 242.065 60.2216C241.785 60.3883 241.565 60.6136 241.406 60.8977C241.247 61.178 241.166 61.4905 241.162 61.8352V63.2614C241.162 63.6932 241.241 64.0663 241.401 64.3807C241.563 64.6951 241.793 64.9375 242.088 65.108C242.384 65.2784 242.734 65.3636 243.139 65.3636C243.408 65.3636 243.654 65.3258 243.878 65.25C244.101 65.1742 244.293 65.0606 244.452 64.9091C244.611 64.7576 244.732 64.572 244.815 64.3523L247.054 64.5C246.94 65.0379 246.707 65.5076 246.355 65.9091C246.007 66.3068 245.556 66.6174 245.003 66.8409C244.454 67.0606 243.819 67.1705 243.099 67.1705ZM252.628 67.1705C251.734 67.1705 250.965 66.9811 250.321 66.6023C249.681 66.2197 249.188 65.6894 248.844 65.0114C248.503 64.3333 248.332 63.553 248.332 62.6705C248.332 61.7765 248.505 60.9924 248.849 60.3182C249.198 59.6402 249.692 59.1117 250.332 58.733C250.973 58.3504 251.734 58.1591 252.616 58.1591C253.378 58.1591 254.045 58.2973 254.616 58.5739C255.188 58.8504 255.641 59.2386 255.974 59.7386C256.308 60.2386 256.491 60.8258 256.526 61.5H254.241C254.177 61.0644 254.007 60.714 253.73 60.4489C253.457 60.1799 253.099 60.0455 252.656 60.0455C252.281 60.0455 251.954 60.1477 251.673 60.3523C251.397 60.553 251.181 60.8466 251.026 61.233C250.87 61.6193 250.793 62.0871 250.793 62.6364C250.793 63.1932 250.868 63.6667 251.02 64.0568C251.175 64.447 251.393 64.7443 251.673 64.9489C251.954 65.1534 252.281 65.2557 252.656 65.2557C252.933 65.2557 253.181 65.1989 253.401 65.0852C253.624 64.9716 253.808 64.8068 253.952 64.5909C254.099 64.3712 254.196 64.108 254.241 63.8011H256.526C256.488 64.4678 256.306 65.0549 255.98 65.5625C255.658 66.0663 255.213 66.4602 254.645 66.7443C254.077 67.0284 253.404 67.1705 252.628 67.1705ZM258.075 67V58.2727H260.496V67H258.075ZM259.291 57.1477C258.931 57.1477 258.623 57.0284 258.365 56.7898C258.111 56.5473 257.984 56.2576 257.984 55.9205C257.984 55.5871 258.111 55.3011 258.365 55.0625C258.623 54.8201 258.931 54.6989 259.291 54.6989C259.651 54.6989 259.958 54.8201 260.212 55.0625C260.469 55.3011 260.598 55.5871 260.598 55.9205C260.598 56.2576 260.469 56.5473 260.212 56.7898C259.958 57.0284 259.651 57.1477 259.291 57.1477ZM266.378 67.1705C265.495 67.1705 264.732 66.983 264.088 66.608C263.448 66.2292 262.954 65.7027 262.605 65.0284C262.257 64.3504 262.082 63.5644 262.082 62.6705C262.082 61.7689 262.257 60.9811 262.605 60.3068C262.954 59.6288 263.448 59.1023 264.088 58.7273C264.732 58.3485 265.495 58.1591 266.378 58.1591C267.26 58.1591 268.022 58.3485 268.662 58.7273C269.306 59.1023 269.802 59.6288 270.151 60.3068C270.499 60.9811 270.673 61.7689 270.673 62.6705C270.673 63.5644 270.499 64.3504 270.151 65.0284C269.802 65.7027 269.306 66.2292 268.662 66.608C268.022 66.983 267.26 67.1705 266.378 67.1705ZM266.389 65.2955C266.791 65.2955 267.126 65.1818 267.395 64.9545C267.664 64.7235 267.866 64.4091 268.003 64.0114C268.143 63.6136 268.213 63.161 268.213 62.6534C268.213 62.1458 268.143 61.6932 268.003 61.2955C267.866 60.8977 267.664 60.5833 267.395 60.3523C267.126 60.1212 266.791 60.0057 266.389 60.0057C265.984 60.0057 265.643 60.1212 265.366 60.3523C265.094 60.5833 264.887 60.8977 264.747 61.2955C264.611 61.6932 264.543 62.1458 264.543 62.6534C264.543 63.161 264.611 63.6136 264.747 64.0114C264.887 64.4091 265.094 64.7235 265.366 64.9545C265.643 65.1818 265.984 65.2955 266.389 65.2955ZM274.668 61.9545V67H272.247V58.2727H274.554V59.8125H274.656C274.849 59.3049 275.173 58.9034 275.628 58.608C276.082 58.3087 276.634 58.1591 277.281 58.1591C277.887 58.1591 278.416 58.2917 278.866 58.5568C279.317 58.822 279.668 59.2008 279.918 59.6932C280.168 60.1818 280.293 60.7652 280.293 61.4432V67H277.872V61.875C277.876 61.3409 277.74 60.9242 277.463 60.625C277.187 60.322 276.806 60.1705 276.321 60.1705C275.995 60.1705 275.707 60.2405 275.457 60.3807C275.211 60.5208 275.018 60.7254 274.878 60.9943C274.741 61.2595 274.671 61.5795 274.668 61.9545ZM284.689 67.1648C284.132 67.1648 283.636 67.0682 283.2 66.875C282.765 66.678 282.42 66.3883 282.166 66.0057C281.916 65.6193 281.791 65.1383 281.791 64.5625C281.791 64.0777 281.88 63.6705 282.058 63.3409C282.236 63.0114 282.479 62.7462 282.786 62.5455C283.092 62.3447 283.441 62.1932 283.831 62.0909C284.225 61.9886 284.638 61.9167 285.07 61.875C285.577 61.822 285.986 61.7727 286.297 61.7273C286.607 61.678 286.833 61.6061 286.973 61.5114C287.113 61.4167 287.183 61.2765 287.183 61.0909V61.0568C287.183 60.697 287.07 60.4186 286.842 60.2216C286.619 60.0246 286.301 59.9261 285.888 59.9261C285.452 59.9261 285.106 60.0227 284.848 60.2159C284.59 60.4053 284.42 60.6439 284.337 60.9318L282.098 60.75C282.212 60.2197 282.435 59.7614 282.768 59.375C283.102 58.9848 283.532 58.6856 284.058 58.4773C284.589 58.2652 285.202 58.1591 285.899 58.1591C286.384 58.1591 286.848 58.2159 287.291 58.3295C287.738 58.4432 288.134 58.6193 288.479 58.858C288.827 59.0966 289.102 59.4034 289.303 59.7784C289.503 60.1496 289.604 60.5947 289.604 61.1136V67H287.308V65.7898H287.24C287.1 66.0625 286.912 66.303 286.678 66.5114C286.443 66.7159 286.161 66.8769 285.831 66.9943C285.501 67.108 285.121 67.1648 284.689 67.1648ZM285.382 65.4943C285.738 65.4943 286.053 65.4242 286.325 65.2841C286.598 65.1402 286.812 64.947 286.967 64.7045C287.123 64.4621 287.2 64.1875 287.2 63.8807V62.9545C287.125 63.0038 287.02 63.0492 286.888 63.0909C286.759 63.1288 286.613 63.1648 286.45 63.1989C286.287 63.2292 286.125 63.2576 285.962 63.2841C285.799 63.3068 285.651 63.3277 285.518 63.3466C285.234 63.3883 284.986 63.4545 284.774 63.5455C284.562 63.6364 284.397 63.7595 284.28 63.9148C284.162 64.0663 284.104 64.2557 284.104 64.483C284.104 64.8125 284.223 65.0644 284.462 65.2386C284.704 65.4091 285.011 65.4943 285.382 65.4943ZM294.697 67.142C294.035 67.142 293.434 66.9716 292.896 66.6307C292.362 66.286 291.938 65.7803 291.624 65.1136C291.313 64.4432 291.158 63.6212 291.158 62.6477C291.158 61.6477 291.319 60.8163 291.641 60.1534C291.963 59.4867 292.391 58.9886 292.925 58.6591C293.463 58.3258 294.052 58.1591 294.692 58.1591C295.18 58.1591 295.588 58.2424 295.913 58.4091C296.243 58.572 296.508 58.7765 296.709 59.0227C296.913 59.2652 297.069 59.5038 297.175 59.7386H297.249V55.3636H299.663V67H297.277V65.6023H297.175C297.061 65.8447 296.9 66.0852 296.692 66.3239C296.487 66.5587 296.22 66.7538 295.891 66.9091C295.565 67.0644 295.167 67.142 294.697 67.142ZM295.464 65.2159C295.855 65.2159 296.184 65.1098 296.453 64.8977C296.726 64.6818 296.934 64.3807 297.078 63.9943C297.226 63.608 297.3 63.1553 297.3 62.6364C297.3 62.1174 297.228 61.6667 297.084 61.2841C296.94 60.9015 296.732 60.6061 296.459 60.3977C296.186 60.1894 295.855 60.0852 295.464 60.0852C295.067 60.0852 294.732 60.1932 294.459 60.4091C294.186 60.625 293.98 60.9242 293.839 61.3068C293.699 61.6894 293.629 62.1326 293.629 62.6364C293.629 63.1439 293.699 63.5928 293.839 63.983C293.983 64.3693 294.19 64.6723 294.459 64.892C294.732 65.108 295.067 65.2159 295.464 65.2159ZM305.597 67.1705C304.714 67.1705 303.951 66.983 303.307 66.608C302.667 66.2292 302.172 65.7027 301.824 65.0284C301.475 64.3504 301.301 63.5644 301.301 62.6705C301.301 61.7689 301.475 60.9811 301.824 60.3068C302.172 59.6288 302.667 59.1023 303.307 58.7273C303.951 58.3485 304.714 58.1591 305.597 58.1591C306.479 58.1591 307.241 58.3485 307.881 58.7273C308.525 59.1023 309.021 59.6288 309.369 60.3068C309.718 60.9811 309.892 61.7689 309.892 62.6705C309.892 63.5644 309.718 64.3504 309.369 65.0284C309.021 65.7027 308.525 66.2292 307.881 66.608C307.241 66.983 306.479 67.1705 305.597 67.1705ZM305.608 65.2955C306.009 65.2955 306.345 65.1818 306.614 64.9545C306.883 64.7235 307.085 64.4091 307.222 64.0114C307.362 63.6136 307.432 63.161 307.432 62.6534C307.432 62.1458 307.362 61.6932 307.222 61.2955C307.085 60.8977 306.883 60.5833 306.614 60.3523C306.345 60.1212 306.009 60.0057 305.608 60.0057C305.203 60.0057 304.862 60.1212 304.585 60.3523C304.313 60.5833 304.106 60.8977 303.966 61.2955C303.83 61.6932 303.761 62.1458 303.761 62.6534C303.761 63.161 303.83 63.6136 303.966 64.0114C304.106 64.4091 304.313 64.7235 304.585 64.9545C304.862 65.1818 305.203 65.2955 305.608 65.2955ZM318.727 60.7614L316.511 60.8977C316.473 60.7083 316.392 60.5379 316.267 60.3864C316.142 60.2311 315.977 60.108 315.773 60.017C315.572 59.9223 315.331 59.875 315.051 59.875C314.676 59.875 314.36 59.9545 314.102 60.1136C313.845 60.2689 313.716 60.4773 313.716 60.7386C313.716 60.947 313.799 61.1231 313.966 61.267C314.133 61.411 314.419 61.5265 314.824 61.6136L316.403 61.9318C317.252 62.1061 317.884 62.3864 318.301 62.7727C318.718 63.1591 318.926 63.6667 318.926 64.2955C318.926 64.8674 318.758 65.3693 318.42 65.8011C318.087 66.233 317.629 66.5701 317.045 66.8125C316.466 67.0511 315.797 67.1705 315.04 67.1705C313.884 67.1705 312.964 66.9299 312.278 66.4489C311.597 65.964 311.197 65.3049 311.08 64.4716L313.46 64.3466C313.532 64.6989 313.706 64.9678 313.983 65.1534C314.259 65.3352 314.614 65.4261 315.045 65.4261C315.47 65.4261 315.811 65.3447 316.068 65.1818C316.33 65.0152 316.462 64.8011 316.466 64.5398C316.462 64.3201 316.369 64.1402 316.188 64C316.006 63.8561 315.725 63.7462 315.347 63.6705L313.835 63.3693C312.983 63.1989 312.348 62.9034 311.932 62.483C311.519 62.0625 311.312 61.5265 311.312 60.875C311.312 60.3144 311.464 59.8314 311.767 59.4261C312.074 59.0208 312.504 58.7083 313.057 58.4886C313.614 58.2689 314.265 58.1591 315.011 58.1591C316.114 58.1591 316.981 58.392 317.614 58.858C318.25 59.3239 318.621 59.9583 318.727 60.7614Z" fill="#00D09E"/>
</g>
<defs>
<filter id="filter0_d_16_159" x="0" y="0" width="415" height="799" filterUnits="userSpaceOnUse" color-interpolation-filters="sRGB">
<feFlood flood-opacity="0" result="BackgroundImageFix"/>
<feColorMatrix in="SourceAlpha" type="matrix" values="0 0 0 0 0 0 0 0 0 0 0 0 0 0 0 0 0 0 127 0" result="hardAlpha"/>
<feOffset dy="20"/>
<feGaussianBlur stdDeviation="12.5"/>
<feColorMatrix type="matrix" values="0 0 0 0 0.298073 0 0 0 0 0.404167 0 0 0 0 0.393191 0 0 0 0.1 0"/>
<feBlend mode="normal" in2="BackgroundImageFix" result="effect1_dropShadow_16_159"/>
<feBlend mode="normal" in="SourceGraphic" in2="effect1_dropShadow_16_159" result="shape"/>
</filter>
</defs>
</svg>
