<svg width="415" height="399" viewBox="0 0 415 399" fill="none" xmlns="http://www.w3.org/2000/svg">
<g filter="url(#filter0_d_93_169)">
<rect x="25" y="5" width="365" height="720" rx="8" fill="white"/>
<mask id="path-2-inside-1_93_169" fill="white">
<path d="M55.5 32H143.5V72H55.5V32Z"/>
</mask>
<path d="M143.5 70H55.5V74H143.5V70Z" fill="#00D09E" mask="url(#path-2-inside-1_93_169)"/>
<path d="M64.5114 58V46.3636H69.1023C69.9848 46.3636 70.7367 46.5322 71.358 46.8693C71.9792 47.2027 72.4527 47.6667 72.7784 48.2614C73.108 48.8523 73.2727 49.5341 73.2727 50.3068C73.2727 51.0795 73.1061 51.7614 72.7727 52.3523C72.4394 52.9432 71.9564 53.4034 71.3239 53.733C70.6951 54.0625 69.9337 54.2273 69.0398 54.2273H66.1136V52.2557H68.642C69.1155 52.2557 69.5057 52.1742 69.8125 52.0114C70.1231 51.8447 70.3542 51.6155 70.5057 51.3239C70.661 51.0284 70.7386 50.6894 70.7386 50.3068C70.7386 49.9205 70.661 49.5833 70.5057 49.2955C70.3542 49.0038 70.1231 48.7784 69.8125 48.6193C69.5019 48.4564 69.108 48.375 68.6307 48.375H66.9716V58H64.5114ZM74.8253 58V49.2727H77.1719V50.7955H77.2628C77.4219 50.2538 77.6889 49.8447 78.0639 49.5682C78.4389 49.2879 78.8707 49.1477 79.3594 49.1477C79.4806 49.1477 79.6113 49.1553 79.7514 49.1705C79.8916 49.1856 80.0147 49.2064 80.1207 49.233V51.3807C80.0071 51.3466 79.8499 51.3163 79.6491 51.2898C79.4484 51.2633 79.2647 51.25 79.098 51.25C78.742 51.25 78.4238 51.3277 78.1435 51.483C77.867 51.6345 77.6473 51.8466 77.4844 52.1193C77.3253 52.392 77.2457 52.7064 77.2457 53.0625V58H74.8253ZM84.9091 58.1705C84.0265 58.1705 83.2633 57.983 82.6193 57.608C81.9792 57.2292 81.4848 56.7027 81.1364 56.0284C80.7879 55.3504 80.6136 54.5644 80.6136 53.6705C80.6136 52.7689 80.7879 51.9811 81.1364 51.3068C81.4848 50.6288 81.9792 50.1023 82.6193 49.7273C83.2633 49.3485 84.0265 49.1591 84.9091 49.1591C85.7917 49.1591 86.553 49.3485 87.1932 49.7273C87.8371 50.1023 88.3333 50.6288 88.6818 51.3068C89.0303 51.9811 89.2045 52.7689 89.2045 53.6705C89.2045 54.5644 89.0303 55.3504 88.6818 56.0284C88.3333 56.7027 87.8371 57.2292 87.1932 57.608C86.553 57.983 85.7917 58.1705 84.9091 58.1705ZM84.9205 56.2955C85.322 56.2955 85.6572 56.1818 85.9261 55.9545C86.1951 55.7235 86.3977 55.4091 86.5341 55.0114C86.6742 54.6136 86.7443 54.161 86.7443 53.6534C86.7443 53.1458 86.6742 52.6932 86.5341 52.2955C86.3977 51.8977 86.1951 51.5833 85.9261 51.3523C85.6572 51.1212 85.322 51.0057 84.9205 51.0057C84.5152 51.0057 84.1742 51.1212 83.8977 51.3523C83.625 51.5833 83.4186 51.8977 83.2784 52.2955C83.142 52.6932 83.0739 53.1458 83.0739 53.6534C83.0739 54.161 83.142 54.6136 83.2784 55.0114C83.4186 55.4091 83.625 55.7235 83.8977 55.9545C84.1742 56.1818 84.5152 56.2955 84.9205 56.2955ZM93.9943 58.142C93.3314 58.142 92.7311 57.9716 92.1932 57.6307C91.6591 57.286 91.2348 56.7803 90.9205 56.1136C90.6098 55.4432 90.4545 54.6212 90.4545 53.6477C90.4545 52.6477 90.6155 51.8163 90.9375 51.1534C91.2595 50.4867 91.6875 49.9886 92.2216 49.6591C92.7595 49.3258 93.3485 49.1591 93.9886 49.1591C94.4773 49.1591 94.8845 49.2424 95.2102 49.4091C95.5398 49.572 95.8049 49.7765 96.0057 50.0227C96.2102 50.2652 96.3655 50.5038 96.4716 50.7386H96.5455V46.3636H98.9602V58H96.5739V56.6023H96.4716C96.358 56.8447 96.197 57.0852 95.9886 57.3239C95.7841 57.5587 95.517 57.7538 95.1875 57.9091C94.8617 58.0644 94.464 58.142 93.9943 58.142ZM94.7614 56.2159C95.1515 56.2159 95.4811 56.1098 95.75 55.8977C96.0227 55.6818 96.2311 55.3807 96.375 54.9943C96.5227 54.608 96.5966 54.1553 96.5966 53.6364C96.5966 53.1174 96.5246 52.6667 96.3807 52.2841C96.2367 51.9015 96.0284 51.6061 95.7557 51.3977C95.483 51.1894 95.1515 51.0852 94.7614 51.0852C94.3636 51.0852 94.0284 51.1932 93.7557 51.4091C93.483 51.625 93.2765 51.9242 93.1364 52.3068C92.9962 52.6894 92.9261 53.1326 92.9261 53.6364C92.9261 54.1439 92.9962 54.5928 93.1364 54.983C93.2803 55.3693 93.4867 55.6723 93.7557 55.892C94.0284 56.108 94.3636 56.2159 94.7614 56.2159ZM106.547 54.2841V49.2727H108.967V58H106.643V56.4148H106.553C106.356 56.9261 106.028 57.3371 105.57 57.6477C105.115 57.9583 104.56 58.1136 103.905 58.1136C103.321 58.1136 102.808 57.9811 102.365 57.7159C101.922 57.4508 101.575 57.0739 101.325 56.5852C101.079 56.0966 100.954 55.5114 100.95 54.8295V49.2727H103.371V54.3977C103.375 54.9129 103.513 55.3201 103.786 55.6193C104.058 55.9186 104.424 56.0682 104.882 56.0682C105.174 56.0682 105.446 56.0019 105.7 55.8693C105.954 55.733 106.159 55.5322 106.314 55.267C106.473 55.0019 106.551 54.6742 106.547 54.2841ZM115.545 49.2727V51.0909H110.29V49.2727H115.545ZM111.483 47.1818H113.903V55.3182C113.903 55.5417 113.938 55.7159 114.006 55.8409C114.074 55.9621 114.169 56.0473 114.29 56.0966C114.415 56.1458 114.559 56.1705 114.722 56.1705C114.835 56.1705 114.949 56.161 115.062 56.142C115.176 56.1193 115.263 56.1023 115.324 56.0909L115.705 57.892C115.583 57.9299 115.413 57.9735 115.193 58.0227C114.973 58.0758 114.706 58.108 114.392 58.1193C113.809 58.142 113.297 58.0644 112.858 57.8864C112.422 57.7083 112.083 57.4318 111.841 57.0568C111.598 56.6818 111.479 56.2083 111.483 55.6364V47.1818ZM120.972 58.1705C120.089 58.1705 119.326 57.983 118.682 57.608C118.042 57.2292 117.547 56.7027 117.199 56.0284C116.85 55.3504 116.676 54.5644 116.676 53.6705C116.676 52.7689 116.85 51.9811 117.199 51.3068C117.547 50.6288 118.042 50.1023 118.682 49.7273C119.326 49.3485 120.089 49.1591 120.972 49.1591C121.854 49.1591 122.616 49.3485 123.256 49.7273C123.9 50.1023 124.396 50.6288 124.744 51.3068C125.093 51.9811 125.267 52.7689 125.267 53.6705C125.267 54.5644 125.093 55.3504 124.744 56.0284C124.396 56.7027 123.9 57.2292 123.256 57.608C122.616 57.983 121.854 58.1705 120.972 58.1705ZM120.983 56.2955C121.384 56.2955 121.72 56.1818 121.989 55.9545C122.258 55.7235 122.46 55.4091 122.597 55.0114C122.737 54.6136 122.807 54.161 122.807 53.6534C122.807 53.1458 122.737 52.6932 122.597 52.2955C122.46 51.8977 122.258 51.5833 121.989 51.3523C121.72 51.1212 121.384 51.0057 120.983 51.0057C120.578 51.0057 120.237 51.1212 119.96 51.3523C119.688 51.5833 119.481 51.8977 119.341 52.2955C119.205 52.6932 119.136 53.1458 119.136 53.6534C119.136 54.161 119.205 54.6136 119.341 55.0114C119.481 55.4091 119.688 55.7235 119.96 55.9545C120.237 56.1818 120.578 56.2955 120.983 56.2955ZM134.102 51.7614L131.886 51.8977C131.848 51.7083 131.767 51.5379 131.642 51.3864C131.517 51.2311 131.352 51.108 131.148 51.017C130.947 50.9223 130.706 50.875 130.426 50.875C130.051 50.875 129.735 50.9545 129.477 51.1136C129.22 51.2689 129.091 51.4773 129.091 51.7386C129.091 51.947 129.174 52.1231 129.341 52.267C129.508 52.411 129.794 52.5265 130.199 52.6136L131.778 52.9318C132.627 53.1061 133.259 53.3864 133.676 53.7727C134.093 54.1591 134.301 54.6667 134.301 55.2955C134.301 55.8674 134.133 56.3693 133.795 56.8011C133.462 57.233 133.004 57.5701 132.42 57.8125C131.841 58.0511 131.172 58.1705 130.415 58.1705C129.259 58.1705 128.339 57.9299 127.653 57.4489C126.972 56.964 126.572 56.3049 126.455 55.4716L128.835 55.3466C128.907 55.6989 129.081 55.9678 129.358 56.1534C129.634 56.3352 129.989 56.4261 130.42 56.4261C130.845 56.4261 131.186 56.3447 131.443 56.1818C131.705 56.0152 131.837 55.8011 131.841 55.5398C131.837 55.3201 131.744 55.1402 131.562 55C131.381 54.8561 131.1 54.7462 130.722 54.6705L129.21 54.3693C128.358 54.1989 127.723 53.9034 127.307 53.483C126.894 53.0625 126.688 52.5265 126.688 51.875C126.688 51.3144 126.839 50.8314 127.142 50.4261C127.449 50.0208 127.879 49.7083 128.432 49.4886C128.989 49.2689 129.64 49.1591 130.386 49.1591C131.489 49.1591 132.356 49.392 132.989 49.858C133.625 50.3239 133.996 50.9583 134.102 51.7614Z" fill="#00D09E"/>
<mask id="path-5-inside-2_93_169" fill="white">
<path d="M49 84H347V188H49V84Z"/>
</mask>
<path d="M347 187H49V189H347V187Z" fill="#F3F3F3" mask="url(#path-5-inside-2_93_169)"/>
<rect x="49" y="116" width="40" height="40" rx="8" fill="#D2D2D2" fill-opacity="0.25"/>
<path d="M63 146C62.45 146 61.979 145.804 61.587 145.412C61.195 145.02 60.9993 144.549 61 144V132C61 131.45 61.196 130.979 61.588 130.587C61.98 130.195 62.4507 129.999 63 130H65C65 128.9 65.3917 127.958 66.175 127.175C66.9583 126.392 67.9 126 69 126C70.1 126 71.0417 126.392 71.825 127.175C72.6083 127.958 73 128.9 73 130H75C75.55 130 76.021 130.196 76.413 130.588C76.805 130.98 77.0007 131.451 77 132V144C77 144.55 76.804 145.021 76.412 145.413C76.02 145.805 75.5493 146.001 75 146H63ZM63 144H75V132H73V134C73 134.283 72.904 134.521 72.712 134.713C72.52 134.905 72.2827 135.001 72 135C71.7167 135 71.479 134.904 71.287 134.712C71.095 134.52 70.9993 134.283 71 134V132H67V134C67 134.283 66.904 134.521 66.712 134.713C66.52 134.905 66.2827 135.001 66 135C65.7167 135 65.479 134.904 65.287 134.712C65.095 134.52 64.9993 134.283 65 134V132H63V144ZM67 130H71C71 129.45 70.804 128.979 70.412 128.587C70.02 128.195 69.5493 127.999 69 128C68.45 128 67.979 128.196 67.587 128.588C67.195 128.98 66.9993 129.451 67 130Z" fill="#191919"/>
<path d="M115.71 114.364V126H113.835L108.352 118.074H108.256V126H106.148V114.364H108.034L113.511 122.295H113.614V114.364H115.71ZM121.723 126.17C120.871 126.17 120.132 125.983 119.507 125.608C118.882 125.233 118.397 124.708 118.053 124.034C117.712 123.36 117.541 122.572 117.541 121.67C117.541 120.769 117.712 119.979 118.053 119.301C118.397 118.623 118.882 118.097 119.507 117.722C120.132 117.347 120.871 117.159 121.723 117.159C122.575 117.159 123.314 117.347 123.939 117.722C124.564 118.097 125.047 118.623 125.388 119.301C125.732 119.979 125.905 120.769 125.905 121.67C125.905 122.572 125.732 123.36 125.388 124.034C125.047 124.708 124.564 125.233 123.939 125.608C123.314 125.983 122.575 126.17 121.723 126.17ZM121.734 124.523C122.196 124.523 122.583 124.396 122.893 124.142C123.204 123.884 123.435 123.54 123.587 123.108C123.742 122.676 123.82 122.195 123.82 121.665C123.82 121.131 123.742 120.648 123.587 120.216C123.435 119.78 123.204 119.434 122.893 119.176C122.583 118.919 122.196 118.79 121.734 118.79C121.261 118.79 120.867 118.919 120.553 119.176C120.242 119.434 120.009 119.78 119.854 120.216C119.702 120.648 119.626 121.131 119.626 121.665C119.626 122.195 119.702 122.676 119.854 123.108C120.009 123.54 120.242 123.884 120.553 124.142C120.867 124.396 121.261 124.523 121.734 124.523ZM127.651 126V117.273H129.616V118.756H129.719C129.901 118.256 130.202 117.866 130.622 117.585C131.043 117.301 131.545 117.159 132.128 117.159C132.719 117.159 133.217 117.303 133.622 117.591C134.031 117.875 134.319 118.263 134.486 118.756H134.577C134.77 118.271 135.096 117.884 135.554 117.597C136.016 117.305 136.563 117.159 137.196 117.159C137.999 117.159 138.654 117.413 139.162 117.92C139.67 118.428 139.923 119.169 139.923 120.142V126H137.861V120.46C137.861 119.919 137.717 119.523 137.429 119.273C137.141 119.019 136.789 118.892 136.372 118.892C135.876 118.892 135.488 119.047 135.207 119.358C134.931 119.665 134.793 120.064 134.793 120.557V126H132.776V120.375C132.776 119.924 132.639 119.564 132.366 119.295C132.098 119.027 131.745 118.892 131.31 118.892C131.014 118.892 130.745 118.968 130.503 119.119C130.26 119.267 130.067 119.477 129.923 119.75C129.779 120.019 129.707 120.333 129.707 120.693V126H127.651ZM145.874 126.17C144.999 126.17 144.243 125.989 143.607 125.625C142.974 125.258 142.487 124.739 142.146 124.068C141.805 123.394 141.635 122.6 141.635 121.688C141.635 120.79 141.805 120.002 142.146 119.324C142.491 118.642 142.972 118.112 143.589 117.733C144.207 117.35 144.932 117.159 145.766 117.159C146.304 117.159 146.811 117.246 147.288 117.42C147.769 117.591 148.194 117.856 148.561 118.216C148.932 118.576 149.224 119.034 149.436 119.591C149.648 120.144 149.754 120.803 149.754 121.568V122.199H142.601V120.812H147.783C147.779 120.419 147.694 120.068 147.527 119.761C147.36 119.451 147.127 119.206 146.828 119.028C146.533 118.85 146.188 118.761 145.794 118.761C145.374 118.761 145.004 118.864 144.686 119.068C144.368 119.269 144.12 119.534 143.942 119.864C143.768 120.189 143.679 120.547 143.675 120.938V122.148C143.675 122.655 143.768 123.091 143.953 123.455C144.139 123.814 144.398 124.091 144.732 124.284C145.065 124.473 145.455 124.568 145.902 124.568C146.201 124.568 146.472 124.527 146.714 124.443C146.957 124.356 147.167 124.229 147.345 124.062C147.523 123.896 147.658 123.689 147.749 123.443L149.669 123.659C149.548 124.167 149.317 124.61 148.976 124.989C148.639 125.364 148.207 125.655 147.68 125.864C147.154 126.068 146.552 126.17 145.874 126.17ZM158.702 126.153C158.016 126.153 157.402 125.977 156.861 125.625C156.319 125.273 155.891 124.761 155.577 124.091C155.262 123.42 155.105 122.606 155.105 121.648C155.105 120.678 155.264 119.86 155.582 119.193C155.904 118.523 156.338 118.017 156.884 117.676C157.429 117.331 158.037 117.159 158.707 117.159C159.219 117.159 159.639 117.246 159.969 117.42C160.298 117.591 160.56 117.797 160.753 118.04C160.946 118.278 161.096 118.504 161.202 118.716H161.287V114.364H163.349V126H161.327V124.625H161.202C161.096 124.837 160.942 125.062 160.741 125.301C160.541 125.536 160.276 125.737 159.946 125.903C159.616 126.07 159.202 126.153 158.702 126.153ZM159.276 124.466C159.711 124.466 160.082 124.348 160.389 124.114C160.696 123.875 160.929 123.544 161.088 123.119C161.247 122.695 161.327 122.201 161.327 121.636C161.327 121.072 161.247 120.581 161.088 120.165C160.933 119.748 160.702 119.424 160.395 119.193C160.092 118.962 159.719 118.847 159.276 118.847C158.817 118.847 158.435 118.966 158.128 119.205C157.821 119.443 157.59 119.773 157.435 120.193C157.279 120.614 157.202 121.095 157.202 121.636C157.202 122.182 157.279 122.669 157.435 123.097C157.594 123.521 157.827 123.856 158.134 124.102C158.444 124.345 158.825 124.466 159.276 124.466ZM169.348 126.17C168.496 126.17 167.757 125.983 167.132 125.608C166.507 125.233 166.022 124.708 165.678 124.034C165.337 123.36 165.166 122.572 165.166 121.67C165.166 120.769 165.337 119.979 165.678 119.301C166.022 118.623 166.507 118.097 167.132 117.722C167.757 117.347 168.496 117.159 169.348 117.159C170.2 117.159 170.939 117.347 171.564 117.722C172.189 118.097 172.672 118.623 173.013 119.301C173.357 119.979 173.53 120.769 173.53 121.67C173.53 122.572 173.357 123.36 173.013 124.034C172.672 124.708 172.189 125.233 171.564 125.608C170.939 125.983 170.2 126.17 169.348 126.17ZM169.359 124.523C169.821 124.523 170.208 124.396 170.518 124.142C170.829 123.884 171.06 123.54 171.212 123.108C171.367 122.676 171.445 122.195 171.445 121.665C171.445 121.131 171.367 120.648 171.212 120.216C171.06 119.78 170.829 119.434 170.518 119.176C170.208 118.919 169.821 118.79 169.359 118.79C168.886 118.79 168.492 118.919 168.178 119.176C167.867 119.434 167.634 119.78 167.479 120.216C167.327 120.648 167.251 121.131 167.251 121.665C167.251 122.195 167.327 122.676 167.479 123.108C167.634 123.54 167.867 123.884 168.178 124.142C168.492 124.396 168.886 124.523 169.359 124.523ZM179.244 129.273V117.273H181.267V118.716H181.386C181.492 118.504 181.642 118.278 181.835 118.04C182.028 117.797 182.29 117.591 182.619 117.42C182.949 117.246 183.369 117.159 183.881 117.159C184.555 117.159 185.163 117.331 185.705 117.676C186.25 118.017 186.682 118.523 187 119.193C187.322 119.86 187.483 120.678 187.483 121.648C187.483 122.606 187.326 123.42 187.011 124.091C186.697 124.761 186.269 125.273 185.727 125.625C185.186 125.977 184.572 126.153 183.886 126.153C183.386 126.153 182.972 126.07 182.642 125.903C182.313 125.737 182.047 125.536 181.847 125.301C181.65 125.062 181.496 124.837 181.386 124.625H181.301V129.273H179.244ZM181.261 121.636C181.261 122.201 181.341 122.695 181.5 123.119C181.663 123.544 181.896 123.875 182.199 124.114C182.506 124.348 182.877 124.466 183.312 124.466C183.767 124.466 184.148 124.345 184.455 124.102C184.761 123.856 184.992 123.521 185.148 123.097C185.307 122.669 185.386 122.182 185.386 121.636C185.386 121.095 185.309 120.614 185.153 120.193C184.998 119.773 184.767 119.443 184.46 119.205C184.153 118.966 183.771 118.847 183.312 118.847C182.873 118.847 182.5 118.962 182.193 119.193C181.886 119.424 181.653 119.748 181.494 120.165C181.339 120.581 181.261 121.072 181.261 121.636ZM189.244 126V117.273H191.239V118.727H191.33C191.489 118.223 191.761 117.835 192.148 117.562C192.538 117.286 192.983 117.148 193.483 117.148C193.597 117.148 193.723 117.153 193.864 117.165C194.008 117.172 194.127 117.186 194.222 117.205V119.097C194.134 119.066 193.996 119.04 193.807 119.017C193.621 118.991 193.441 118.977 193.267 118.977C192.892 118.977 192.555 119.059 192.256 119.222C191.96 119.381 191.727 119.602 191.557 119.886C191.386 120.17 191.301 120.498 191.301 120.869V126H189.244ZM199.036 126.17C198.183 126.17 197.445 125.983 196.82 125.608C196.195 125.233 195.71 124.708 195.365 124.034C195.024 123.36 194.854 122.572 194.854 121.67C194.854 120.769 195.024 119.979 195.365 119.301C195.71 118.623 196.195 118.097 196.82 117.722C197.445 117.347 198.183 117.159 199.036 117.159C199.888 117.159 200.626 117.347 201.251 117.722C201.876 118.097 202.359 118.623 202.7 119.301C203.045 119.979 203.217 120.769 203.217 121.67C203.217 122.572 203.045 123.36 202.7 124.034C202.359 124.708 201.876 125.233 201.251 125.608C200.626 125.983 199.888 126.17 199.036 126.17ZM199.047 124.523C199.509 124.523 199.895 124.396 200.206 124.142C200.517 123.884 200.748 123.54 200.899 123.108C201.054 122.676 201.132 122.195 201.132 121.665C201.132 121.131 201.054 120.648 200.899 120.216C200.748 119.78 200.517 119.434 200.206 119.176C199.895 118.919 199.509 118.79 199.047 118.79C198.573 118.79 198.179 118.919 197.865 119.176C197.554 119.434 197.321 119.78 197.166 120.216C197.015 120.648 196.939 121.131 196.939 121.665C196.939 122.195 197.015 122.676 197.166 123.108C197.321 123.54 197.554 123.884 197.865 124.142C198.179 124.396 198.573 124.523 199.047 124.523ZM208.202 126.153C207.516 126.153 206.902 125.977 206.361 125.625C205.819 125.273 205.391 124.761 205.077 124.091C204.762 123.42 204.605 122.606 204.605 121.648C204.605 120.678 204.764 119.86 205.082 119.193C205.404 118.523 205.838 118.017 206.384 117.676C206.929 117.331 207.537 117.159 208.207 117.159C208.719 117.159 209.139 117.246 209.469 117.42C209.798 117.591 210.06 117.797 210.253 118.04C210.446 118.278 210.596 118.504 210.702 118.716H210.787V114.364H212.849V126H210.827V124.625H210.702C210.596 124.837 210.442 125.062 210.241 125.301C210.041 125.536 209.776 125.737 209.446 125.903C209.116 126.07 208.702 126.153 208.202 126.153ZM208.776 124.466C209.211 124.466 209.582 124.348 209.889 124.114C210.196 123.875 210.429 123.544 210.588 123.119C210.747 122.695 210.827 122.201 210.827 121.636C210.827 121.072 210.747 120.581 210.588 120.165C210.433 119.748 210.202 119.424 209.895 119.193C209.592 118.962 209.219 118.847 208.776 118.847C208.317 118.847 207.935 118.966 207.628 119.205C207.321 119.443 207.09 119.773 206.935 120.193C206.779 120.614 206.702 121.095 206.702 121.636C206.702 122.182 206.779 122.669 206.935 123.097C207.094 123.521 207.327 123.856 207.634 124.102C207.944 124.345 208.325 124.466 208.776 124.466ZM220.604 122.33V117.273H222.661V126H220.666V124.449H220.575C220.378 124.937 220.054 125.337 219.604 125.648C219.157 125.958 218.606 126.114 217.95 126.114C217.378 126.114 216.873 125.987 216.433 125.733C215.998 125.475 215.657 125.102 215.411 124.614C215.164 124.121 215.041 123.527 215.041 122.83V117.273H217.098V122.511C217.098 123.064 217.25 123.504 217.553 123.83C217.856 124.155 218.253 124.318 218.746 124.318C219.049 124.318 219.342 124.244 219.626 124.097C219.911 123.949 220.143 123.729 220.325 123.438C220.511 123.142 220.604 122.773 220.604 122.33ZM229.134 117.273V118.864H224.116V117.273H229.134ZM225.355 115.182H227.412V123.375C227.412 123.652 227.454 123.864 227.537 124.011C227.624 124.155 227.738 124.254 227.878 124.307C228.018 124.36 228.173 124.386 228.344 124.386C228.473 124.386 228.59 124.377 228.696 124.358C228.806 124.339 228.889 124.322 228.946 124.307L229.293 125.915C229.183 125.953 229.026 125.994 228.821 126.04C228.62 126.085 228.374 126.112 228.082 126.119C227.567 126.134 227.103 126.057 226.69 125.886C226.277 125.712 225.95 125.443 225.707 125.08C225.469 124.716 225.351 124.261 225.355 123.716V115.182ZM234.567 126.17C233.714 126.17 232.976 125.983 232.351 125.608C231.726 125.233 231.241 124.708 230.896 124.034C230.555 123.36 230.385 122.572 230.385 121.67C230.385 120.769 230.555 119.979 230.896 119.301C231.241 118.623 231.726 118.097 232.351 117.722C232.976 117.347 233.714 117.159 234.567 117.159C235.419 117.159 236.158 117.347 236.783 117.722C237.408 118.097 237.891 118.623 238.232 119.301C238.576 119.979 238.749 120.769 238.749 121.67C238.749 122.572 238.576 123.36 238.232 124.034C237.891 124.708 237.408 125.233 236.783 125.608C236.158 125.983 235.419 126.17 234.567 126.17ZM234.578 124.523C235.04 124.523 235.427 124.396 235.737 124.142C236.048 123.884 236.279 123.54 236.43 123.108C236.586 122.676 236.663 122.195 236.663 121.665C236.663 121.131 236.586 120.648 236.43 120.216C236.279 119.78 236.048 119.434 235.737 119.176C235.427 118.919 235.04 118.79 234.578 118.79C234.105 118.79 233.711 118.919 233.396 119.176C233.086 119.434 232.853 119.78 232.697 120.216C232.546 120.648 232.47 121.131 232.47 121.665C232.47 122.195 232.546 122.676 232.697 123.108C232.853 123.54 233.086 123.884 233.396 124.142C233.711 124.396 234.105 124.523 234.578 124.523Z" fill="#191919"/>
<path d="M106.415 135.273L109.006 142.619H109.108L111.699 135.273H112.807L109.602 144H108.511L105.307 135.273H106.415ZM115.347 144.153C114.932 144.153 114.555 144.075 114.217 143.919C113.879 143.76 113.611 143.531 113.412 143.233C113.213 142.932 113.114 142.568 113.114 142.142C113.114 141.767 113.188 141.463 113.335 141.23C113.483 140.994 113.68 140.81 113.928 140.676C114.175 140.543 114.447 140.443 114.746 140.378C115.047 140.31 115.349 140.256 115.653 140.216C116.051 140.165 116.374 140.126 116.621 140.101C116.871 140.072 117.053 140.026 117.166 139.96C117.283 139.895 117.341 139.781 117.341 139.619V139.585C117.341 139.165 117.226 138.838 116.996 138.605C116.768 138.372 116.423 138.256 115.96 138.256C115.48 138.256 115.104 138.361 114.831 138.571C114.558 138.781 114.366 139.006 114.256 139.244L113.301 138.903C113.472 138.506 113.699 138.196 113.983 137.974C114.27 137.75 114.582 137.594 114.92 137.506C115.261 137.415 115.597 137.369 115.926 137.369C116.136 137.369 116.378 137.395 116.651 137.446C116.926 137.494 117.192 137.595 117.447 137.749C117.706 137.902 117.92 138.134 118.091 138.443C118.261 138.753 118.347 139.168 118.347 139.688V144H117.341V143.114H117.29C117.222 143.256 117.108 143.408 116.949 143.57C116.79 143.732 116.578 143.869 116.314 143.983C116.05 144.097 115.727 144.153 115.347 144.153ZM115.5 143.25C115.898 143.25 116.233 143.172 116.506 143.016C116.781 142.859 116.989 142.658 117.128 142.411C117.27 142.163 117.341 141.903 117.341 141.631V140.71C117.298 140.761 117.205 140.808 117.06 140.851C116.918 140.891 116.753 140.926 116.565 140.957C116.381 140.986 116.2 141.011 116.024 141.034C115.851 141.054 115.71 141.071 115.602 141.085C115.341 141.119 115.097 141.175 114.869 141.251C114.645 141.325 114.463 141.437 114.324 141.588C114.188 141.736 114.119 141.937 114.119 142.193C114.119 142.543 114.249 142.807 114.507 142.986C114.768 143.162 115.099 143.25 115.5 143.25ZM121.188 135.273V144H120.182V135.273H121.188ZM125.689 144.136C125.098 144.136 124.58 143.996 124.134 143.714C123.69 143.433 123.344 143.04 123.094 142.534C122.847 142.028 122.723 141.437 122.723 140.761C122.723 140.08 122.847 139.484 123.094 138.976C123.344 138.467 123.69 138.072 124.134 137.791C124.58 137.51 125.098 137.369 125.689 137.369C126.28 137.369 126.797 137.51 127.24 137.791C127.686 138.072 128.033 138.467 128.28 138.976C128.53 139.484 128.655 140.08 128.655 140.761C128.655 141.437 128.53 142.028 128.28 142.534C128.033 143.04 127.686 143.433 127.24 143.714C126.797 143.996 126.28 144.136 125.689 144.136ZM125.689 143.233C126.138 143.233 126.507 143.118 126.797 142.888C127.087 142.658 127.301 142.355 127.44 141.98C127.58 141.605 127.649 141.199 127.649 140.761C127.649 140.324 127.58 139.916 127.44 139.538C127.301 139.161 127.087 138.855 126.797 138.622C126.507 138.389 126.138 138.273 125.689 138.273C125.24 138.273 124.871 138.389 124.581 138.622C124.291 138.855 124.077 139.161 123.938 139.538C123.798 139.916 123.729 140.324 123.729 140.761C123.729 141.199 123.798 141.605 123.938 141.98C124.077 142.355 124.291 142.658 124.581 142.888C124.871 143.118 125.24 143.233 125.689 143.233ZM130.19 144V137.455H131.162V138.443H131.23C131.349 138.119 131.565 137.857 131.877 137.655C132.19 137.453 132.542 137.352 132.934 137.352C133.008 137.352 133.1 137.354 133.211 137.357C133.322 137.359 133.406 137.364 133.463 137.369V138.392C133.429 138.384 133.35 138.371 133.228 138.354C133.109 138.334 132.983 138.324 132.849 138.324C132.531 138.324 132.247 138.391 131.997 138.524C131.75 138.655 131.554 138.837 131.409 139.07C131.267 139.3 131.196 139.562 131.196 139.858V144H130.19Z" fill="#9F9F9F"/>
<path d="M109.227 157.273H110.386L111.358 158.551L111.614 158.892L113.062 160.818H111.903L110.949 159.54L110.71 159.216L109.227 157.273ZM113.42 155.636C113.42 156.557 113.254 157.352 112.922 158.023C112.589 158.693 112.134 159.21 111.554 159.574C110.974 159.938 110.313 160.119 109.568 160.119C108.824 160.119 108.162 159.938 107.582 159.574C107.003 159.21 106.547 158.693 106.214 158.023C105.882 157.352 105.716 156.557 105.716 155.636C105.716 154.716 105.882 153.92 106.214 153.25C106.547 152.58 107.003 152.062 107.582 151.699C108.162 151.335 108.824 151.153 109.568 151.153C110.313 151.153 110.974 151.335 111.554 151.699C112.134 152.062 112.589 152.58 112.922 153.25C113.254 153.92 113.42 154.716 113.42 155.636ZM112.398 155.636C112.398 154.881 112.271 154.243 112.018 153.723C111.768 153.203 111.429 152.81 111 152.543C110.574 152.276 110.097 152.142 109.568 152.142C109.04 152.142 108.561 152.276 108.132 152.543C107.706 152.81 107.366 153.203 107.114 153.723C106.864 154.243 106.739 154.881 106.739 155.636C106.739 156.392 106.864 157.03 107.114 157.55C107.366 158.07 107.706 158.463 108.132 158.73C108.561 158.997 109.04 159.131 109.568 159.131C110.097 159.131 110.574 158.997 111 158.73C111.429 158.463 111.768 158.07 112.018 157.55C112.271 157.03 112.398 156.392 112.398 155.636ZM119.186 157.324V153.455H120.192V160H119.186V158.892H119.118C118.964 159.224 118.726 159.507 118.402 159.74C118.078 159.97 117.669 160.085 117.175 160.085C116.766 160.085 116.402 159.996 116.084 159.817C115.766 159.635 115.516 159.362 115.334 158.999C115.152 158.632 115.061 158.17 115.061 157.614V153.455H116.067V157.545C116.067 158.023 116.2 158.403 116.467 158.688C116.737 158.972 117.081 159.114 117.499 159.114C117.749 159.114 118.003 159.05 118.261 158.922C118.523 158.794 118.741 158.598 118.918 158.334C119.097 158.07 119.186 157.733 119.186 157.324ZM123.96 160.153C123.545 160.153 123.169 160.075 122.831 159.919C122.493 159.76 122.224 159.531 122.025 159.233C121.826 158.932 121.727 158.568 121.727 158.142C121.727 157.767 121.801 157.463 121.949 157.23C122.096 156.994 122.294 156.81 122.541 156.676C122.788 156.543 123.061 156.443 123.359 156.378C123.66 156.31 123.963 156.256 124.267 156.216C124.664 156.165 124.987 156.126 125.234 156.101C125.484 156.072 125.666 156.026 125.779 155.96C125.896 155.895 125.954 155.781 125.954 155.619V155.585C125.954 155.165 125.839 154.838 125.609 154.605C125.382 154.372 125.037 154.256 124.574 154.256C124.093 154.256 123.717 154.361 123.444 154.571C123.172 154.781 122.98 155.006 122.869 155.244L121.914 154.903C122.085 154.506 122.312 154.196 122.596 153.974C122.883 153.75 123.196 153.594 123.534 153.506C123.875 153.415 124.21 153.369 124.539 153.369C124.75 153.369 124.991 153.395 125.264 153.446C125.539 153.494 125.805 153.595 126.061 153.749C126.319 153.902 126.534 154.134 126.704 154.443C126.875 154.753 126.96 155.168 126.96 155.688V160H125.954V159.114H125.903C125.835 159.256 125.721 159.408 125.562 159.57C125.403 159.732 125.191 159.869 124.927 159.983C124.663 160.097 124.341 160.153 123.96 160.153ZM124.113 159.25C124.511 159.25 124.846 159.172 125.119 159.016C125.395 158.859 125.602 158.658 125.741 158.411C125.883 158.163 125.954 157.903 125.954 157.631V156.71C125.912 156.761 125.818 156.808 125.673 156.851C125.531 156.891 125.366 156.926 125.179 156.957C124.994 156.986 124.814 157.011 124.637 157.034C124.464 157.054 124.324 157.071 124.216 157.085C123.954 157.119 123.71 157.175 123.483 157.251C123.258 157.325 123.076 157.437 122.937 157.588C122.801 157.736 122.733 157.937 122.733 158.193C122.733 158.543 122.862 158.807 123.12 158.986C123.382 159.162 123.713 159.25 124.113 159.25ZM129.801 156.062V160H128.795V153.455H129.767V154.477H129.852C130.006 154.145 130.239 153.878 130.551 153.676C130.864 153.472 131.267 153.369 131.761 153.369C132.205 153.369 132.592 153.46 132.925 153.642C133.257 153.821 133.516 154.094 133.7 154.46C133.885 154.824 133.977 155.284 133.977 155.841V160H132.972V155.909C132.972 155.395 132.838 154.994 132.571 154.707C132.304 154.418 131.938 154.273 131.472 154.273C131.151 154.273 130.864 154.342 130.611 154.482C130.361 154.621 130.163 154.824 130.018 155.091C129.874 155.358 129.801 155.682 129.801 156.062ZM138.662 153.455V154.307H135.27V153.455H138.662ZM136.258 151.886H137.264V158.125C137.264 158.409 137.305 158.622 137.387 158.764C137.473 158.903 137.581 158.997 137.711 159.045C137.845 159.091 137.985 159.114 138.133 159.114C138.244 159.114 138.335 159.108 138.406 159.097C138.477 159.082 138.534 159.071 138.576 159.062L138.781 159.966C138.713 159.991 138.618 160.017 138.495 160.043C138.373 160.071 138.218 160.085 138.031 160.085C137.747 160.085 137.468 160.024 137.196 159.902C136.926 159.78 136.701 159.594 136.522 159.344C136.346 159.094 136.258 158.778 136.258 158.398V151.886ZM140.174 160V153.455H141.18V160H140.174ZM140.686 152.364C140.49 152.364 140.321 152.297 140.179 152.163C140.039 152.03 139.97 151.869 139.97 151.682C139.97 151.494 140.039 151.334 140.179 151.2C140.321 151.067 140.49 151 140.686 151C140.882 151 141.049 151.067 141.189 151.2C141.331 151.334 141.402 151.494 141.402 151.682C141.402 151.869 141.331 152.03 141.189 152.163C141.049 152.297 140.882 152.364 140.686 152.364ZM144.948 160.153C144.533 160.153 144.157 160.075 143.819 159.919C143.481 159.76 143.212 159.531 143.013 159.233C142.815 158.932 142.715 158.568 142.715 158.142C142.715 157.767 142.789 157.463 142.937 157.23C143.085 156.994 143.282 156.81 143.529 156.676C143.776 156.543 144.049 156.443 144.347 156.378C144.648 156.31 144.951 156.256 145.255 156.216C145.653 156.165 145.975 156.126 146.222 156.101C146.472 156.072 146.654 156.026 146.768 155.96C146.884 155.895 146.942 155.781 146.942 155.619V155.585C146.942 155.165 146.827 154.838 146.597 154.605C146.37 154.372 146.025 154.256 145.562 154.256C145.082 154.256 144.705 154.361 144.433 154.571C144.16 154.781 143.968 155.006 143.857 155.244L142.903 154.903C143.073 154.506 143.3 154.196 143.585 153.974C143.871 153.75 144.184 153.594 144.522 153.506C144.863 153.415 145.198 153.369 145.528 153.369C145.738 153.369 145.979 153.395 146.252 153.446C146.528 153.494 146.793 153.595 147.049 153.749C147.308 153.902 147.522 154.134 147.692 154.443C147.863 154.753 147.948 155.168 147.948 155.688V160H146.942V159.114H146.891C146.823 159.256 146.71 159.408 146.55 159.57C146.391 159.732 146.18 159.869 145.915 159.983C145.651 160.097 145.329 160.153 144.948 160.153ZM145.102 159.25C145.499 159.25 145.835 159.172 146.107 159.016C146.383 158.859 146.59 158.658 146.729 158.411C146.871 158.163 146.942 157.903 146.942 157.631V156.71C146.9 156.761 146.806 156.808 146.661 156.851C146.519 156.891 146.354 156.926 146.167 156.957C145.982 156.986 145.802 157.011 145.626 157.034C145.452 157.054 145.312 157.071 145.204 157.085C144.942 157.119 144.698 157.175 144.471 157.251C144.246 157.325 144.065 157.437 143.925 157.588C143.789 157.736 143.721 157.937 143.721 158.193C143.721 158.543 143.85 158.807 144.109 158.986C144.37 159.162 144.701 159.25 145.102 159.25ZM153.653 160H152.545L155.75 151.273H156.841L160.045 160H158.937L156.329 152.653H156.261L153.653 160ZM154.062 156.591H158.528V157.528H154.062V156.591ZM163.705 153.455V154.307H160.312V153.455H163.705ZM161.301 151.886H162.307V158.125C162.307 158.409 162.348 158.622 162.43 158.764C162.516 158.903 162.624 158.997 162.754 159.045C162.888 159.091 163.028 159.114 163.176 159.114C163.287 159.114 163.378 159.108 163.449 159.097C163.52 159.082 163.577 159.071 163.619 159.062L163.824 159.966C163.756 159.991 163.661 160.017 163.538 160.043C163.416 160.071 163.261 160.085 163.074 160.085C162.79 160.085 162.511 160.024 162.239 159.902C161.969 159.78 161.744 159.594 161.565 159.344C161.389 159.094 161.301 158.778 161.301 158.398V151.886ZM169.342 157.324V153.455H170.348V160H169.342V158.892H169.274C169.121 159.224 168.882 159.507 168.558 159.74C168.234 159.97 167.825 160.085 167.331 160.085C166.922 160.085 166.558 159.996 166.24 159.817C165.922 159.635 165.672 159.362 165.49 158.999C165.308 158.632 165.217 158.17 165.217 157.614V153.455H166.223V157.545C166.223 158.023 166.357 158.403 166.624 158.688C166.893 158.972 167.237 159.114 167.655 159.114C167.905 159.114 168.159 159.05 168.418 158.922C168.679 158.794 168.898 158.598 169.074 158.334C169.253 158.07 169.342 157.733 169.342 157.324ZM174.116 160.153C173.701 160.153 173.325 160.075 172.987 159.919C172.649 159.76 172.38 159.531 172.181 159.233C171.983 158.932 171.883 158.568 171.883 158.142C171.883 157.767 171.957 157.463 172.105 157.23C172.252 156.994 172.45 156.81 172.697 156.676C172.944 156.543 173.217 156.443 173.515 156.378C173.816 156.31 174.119 156.256 174.423 156.216C174.821 156.165 175.143 156.126 175.39 156.101C175.64 156.072 175.822 156.026 175.936 155.96C176.052 155.895 176.11 155.781 176.11 155.619V155.585C176.11 155.165 175.995 154.838 175.765 154.605C175.538 154.372 175.193 154.256 174.73 154.256C174.25 154.256 173.873 154.361 173.6 154.571C173.328 154.781 173.136 155.006 173.025 155.244L172.071 154.903C172.241 154.506 172.468 154.196 172.752 153.974C173.039 153.75 173.352 153.594 173.69 153.506C174.031 153.415 174.366 153.369 174.696 153.369C174.906 153.369 175.147 153.395 175.42 153.446C175.696 153.494 175.961 153.595 176.217 153.749C176.475 153.902 176.69 154.134 176.86 154.443C177.031 154.753 177.116 155.168 177.116 155.688V160H176.11V159.114H176.059C175.991 159.256 175.877 159.408 175.718 159.57C175.559 159.732 175.348 159.869 175.083 159.983C174.819 160.097 174.497 160.153 174.116 160.153ZM174.27 159.25C174.667 159.25 175.002 159.172 175.275 159.016C175.551 158.859 175.758 158.658 175.897 158.411C176.039 158.163 176.11 157.903 176.11 157.631V156.71C176.068 156.761 175.974 156.808 175.829 156.851C175.687 156.891 175.522 156.926 175.335 156.957C175.15 156.986 174.97 157.011 174.794 157.034C174.62 157.054 174.48 157.071 174.372 157.085C174.11 157.119 173.866 157.175 173.639 157.251C173.414 157.325 173.233 157.437 173.093 157.588C172.957 157.736 172.889 157.937 172.889 158.193C172.889 158.543 173.018 158.807 173.277 158.986C173.538 159.162 173.869 159.25 174.27 159.25ZM179.957 151.273V160H178.952V151.273H179.957Z" fill="#9F9F9F"/>
<g clip-path="url(#clip0_93_169)">
<path d="M296 119C286.611 119 279 126.611 279 136C279 145.389 286.611 153 296 153C305.389 153 313 145.389 313 136C313 126.611 305.389 119 296 119ZM296 150.908C287.798 150.908 281.125 144.202 281.125 136C281.125 127.798 287.798 121.125 296 121.125C304.202 121.125 310.875 127.798 310.875 136C310.875 144.202 304.202 150.908 296 150.908ZM303.438 134.938H297.062V128.562C297.062 127.976 296.586 127.5 296 127.5C295.414 127.5 294.938 127.976 294.938 128.562V134.938H288.562C287.976 134.938 287.5 135.414 287.5 136C287.5 136.586 287.976 137.062 288.562 137.062H294.938V143.438C294.938 144.024 295.414 144.5 296 144.5C296.586 144.5 297.062 144.024 297.062 143.438V137.062H303.438C304.024 137.062 304.5 136.586 304.5 136C304.5 135.414 304.024 134.938 303.438 134.938Z" fill="#525256"/>
</g>
<mask id="path-13-inside-3_93_169" fill="white">
<path d="M49 188H347V292H49V188Z"/>
</mask>
<path d="M347 291H49V293H347V291Z" fill="#F3F3F3" mask="url(#path-13-inside-3_93_169)"/>
<rect x="49" y="220" width="40" height="40" rx="8" fill="#D2D2D2" fill-opacity="0.25"/>
<path d="M63 250C62.45 250 61.979 249.804 61.587 249.412C61.195 249.02 60.9993 248.549 61 248V236C61 235.45 61.196 234.979 61.588 234.587C61.98 234.195 62.4507 233.999 63 234H65C65 232.9 65.3917 231.958 66.175 231.175C66.9583 230.392 67.9 230 69 230C70.1 230 71.0417 230.392 71.825 231.175C72.6083 231.958 73 232.9 73 234H75C75.55 234 76.021 234.196 76.413 234.588C76.805 234.98 77.0007 235.451 77 236V248C77 248.55 76.804 249.021 76.412 249.413C76.02 249.805 75.5493 250.001 75 250H63ZM63 248H75V236H73V238C73 238.283 72.904 238.521 72.712 238.713C72.52 238.905 72.2827 239.001 72 239C71.7167 239 71.479 238.904 71.287 238.712C71.095 238.52 70.9993 238.283 71 238V236H67V238C67 238.283 66.904 238.521 66.712 238.713C66.52 238.905 66.2827 239.001 66 239C65.7167 239 65.479 238.904 65.287 238.712C65.095 238.52 64.9993 238.283 65 238V236H63V248ZM67 234H71C71 233.45 70.804 232.979 70.412 232.587C70.02 232.195 69.5493 231.999 69 232C68.45 232 67.979 232.196 67.587 232.588C67.195 232.98 66.9993 233.451 67 234Z" fill="#191919"/>
<path d="M115.71 218.364V230H113.835L108.352 222.074H108.256V230H106.148V218.364H108.034L113.511 226.295H113.614V218.364H115.71ZM121.723 230.17C120.871 230.17 120.132 229.983 119.507 229.608C118.882 229.233 118.397 228.708 118.053 228.034C117.712 227.36 117.541 226.572 117.541 225.67C117.541 224.769 117.712 223.979 118.053 223.301C118.397 222.623 118.882 222.097 119.507 221.722C120.132 221.347 120.871 221.159 121.723 221.159C122.575 221.159 123.314 221.347 123.939 221.722C124.564 222.097 125.047 222.623 125.388 223.301C125.732 223.979 125.905 224.769 125.905 225.67C125.905 226.572 125.732 227.36 125.388 228.034C125.047 228.708 124.564 229.233 123.939 229.608C123.314 229.983 122.575 230.17 121.723 230.17ZM121.734 228.523C122.196 228.523 122.583 228.396 122.893 228.142C123.204 227.884 123.435 227.54 123.587 227.108C123.742 226.676 123.82 226.195 123.82 225.665C123.82 225.131 123.742 224.648 123.587 224.216C123.435 223.78 123.204 223.434 122.893 223.176C122.583 222.919 122.196 222.79 121.734 222.79C121.261 222.79 120.867 222.919 120.553 223.176C120.242 223.434 120.009 223.78 119.854 224.216C119.702 224.648 119.626 225.131 119.626 225.665C119.626 226.195 119.702 226.676 119.854 227.108C120.009 227.54 120.242 227.884 120.553 228.142C120.867 228.396 121.261 228.523 121.734 228.523ZM127.651 230V221.273H129.616V222.756H129.719C129.901 222.256 130.202 221.866 130.622 221.585C131.043 221.301 131.545 221.159 132.128 221.159C132.719 221.159 133.217 221.303 133.622 221.591C134.031 221.875 134.319 222.263 134.486 222.756H134.577C134.77 222.271 135.096 221.884 135.554 221.597C136.016 221.305 136.563 221.159 137.196 221.159C137.999 221.159 138.654 221.413 139.162 221.92C139.67 222.428 139.923 223.169 139.923 224.142V230H137.861V224.46C137.861 223.919 137.717 223.523 137.429 223.273C137.141 223.019 136.789 222.892 136.372 222.892C135.876 222.892 135.488 223.047 135.207 223.358C134.931 223.665 134.793 224.064 134.793 224.557V230H132.776V224.375C132.776 223.924 132.639 223.564 132.366 223.295C132.098 223.027 131.745 222.892 131.31 222.892C131.014 222.892 130.745 222.968 130.503 223.119C130.26 223.267 130.067 223.477 129.923 223.75C129.779 224.019 129.707 224.333 129.707 224.693V230H127.651ZM145.874 230.17C144.999 230.17 144.243 229.989 143.607 229.625C142.974 229.258 142.487 228.739 142.146 228.068C141.805 227.394 141.635 226.6 141.635 225.688C141.635 224.79 141.805 224.002 142.146 223.324C142.491 222.642 142.972 222.112 143.589 221.733C144.207 221.35 144.932 221.159 145.766 221.159C146.304 221.159 146.811 221.246 147.288 221.42C147.769 221.591 148.194 221.856 148.561 222.216C148.932 222.576 149.224 223.034 149.436 223.591C149.648 224.144 149.754 224.803 149.754 225.568V226.199H142.601V224.812H147.783C147.779 224.419 147.694 224.068 147.527 223.761C147.36 223.451 147.127 223.206 146.828 223.028C146.533 222.85 146.188 222.761 145.794 222.761C145.374 222.761 145.004 222.864 144.686 223.068C144.368 223.269 144.12 223.534 143.942 223.864C143.768 224.189 143.679 224.547 143.675 224.938V226.148C143.675 226.655 143.768 227.091 143.953 227.455C144.139 227.814 144.398 228.091 144.732 228.284C145.065 228.473 145.455 228.568 145.902 228.568C146.201 228.568 146.472 228.527 146.714 228.443C146.957 228.356 147.167 228.229 147.345 228.062C147.523 227.896 147.658 227.689 147.749 227.443L149.669 227.659C149.548 228.167 149.317 228.61 148.976 228.989C148.639 229.364 148.207 229.655 147.68 229.864C147.154 230.068 146.552 230.17 145.874 230.17ZM158.702 230.153C158.016 230.153 157.402 229.977 156.861 229.625C156.319 229.273 155.891 228.761 155.577 228.091C155.262 227.42 155.105 226.606 155.105 225.648C155.105 224.678 155.264 223.86 155.582 223.193C155.904 222.523 156.338 222.017 156.884 221.676C157.429 221.331 158.037 221.159 158.707 221.159C159.219 221.159 159.639 221.246 159.969 221.42C160.298 221.591 160.56 221.797 160.753 222.04C160.946 222.278 161.096 222.504 161.202 222.716H161.287V218.364H163.349V230H161.327V228.625H161.202C161.096 228.837 160.942 229.062 160.741 229.301C160.541 229.536 160.276 229.737 159.946 229.903C159.616 230.07 159.202 230.153 158.702 230.153ZM159.276 228.466C159.711 228.466 160.082 228.348 160.389 228.114C160.696 227.875 160.929 227.544 161.088 227.119C161.247 226.695 161.327 226.201 161.327 225.636C161.327 225.072 161.247 224.581 161.088 224.165C160.933 223.748 160.702 223.424 160.395 223.193C160.092 222.962 159.719 222.847 159.276 222.847C158.817 222.847 158.435 222.966 158.128 223.205C157.821 223.443 157.59 223.773 157.435 224.193C157.279 224.614 157.202 225.095 157.202 225.636C157.202 226.182 157.279 226.669 157.435 227.097C157.594 227.521 157.827 227.856 158.134 228.102C158.444 228.345 158.825 228.466 159.276 228.466ZM169.348 230.17C168.496 230.17 167.757 229.983 167.132 229.608C166.507 229.233 166.022 228.708 165.678 228.034C165.337 227.36 165.166 226.572 165.166 225.67C165.166 224.769 165.337 223.979 165.678 223.301C166.022 222.623 166.507 222.097 167.132 221.722C167.757 221.347 168.496 221.159 169.348 221.159C170.2 221.159 170.939 221.347 171.564 221.722C172.189 222.097 172.672 222.623 173.013 223.301C173.357 223.979 173.53 224.769 173.53 225.67C173.53 226.572 173.357 227.36 173.013 228.034C172.672 228.708 172.189 229.233 171.564 229.608C170.939 229.983 170.2 230.17 169.348 230.17ZM169.359 228.523C169.821 228.523 170.208 228.396 170.518 228.142C170.829 227.884 171.06 227.54 171.212 227.108C171.367 226.676 171.445 226.195 171.445 225.665C171.445 225.131 171.367 224.648 171.212 224.216C171.06 223.78 170.829 223.434 170.518 223.176C170.208 222.919 169.821 222.79 169.359 222.79C168.886 222.79 168.492 222.919 168.178 223.176C167.867 223.434 167.634 223.78 167.479 224.216C167.327 224.648 167.251 225.131 167.251 225.665C167.251 226.195 167.327 226.676 167.479 227.108C167.634 227.54 167.867 227.884 168.178 228.142C168.492 228.396 168.886 228.523 169.359 228.523ZM179.244 233.273V221.273H181.267V222.716H181.386C181.492 222.504 181.642 222.278 181.835 222.04C182.028 221.797 182.29 221.591 182.619 221.42C182.949 221.246 183.369 221.159 183.881 221.159C184.555 221.159 185.163 221.331 185.705 221.676C186.25 222.017 186.682 222.523 187 223.193C187.322 223.86 187.483 224.678 187.483 225.648C187.483 226.606 187.326 227.42 187.011 228.091C186.697 228.761 186.269 229.273 185.727 229.625C185.186 229.977 184.572 230.153 183.886 230.153C183.386 230.153 182.972 230.07 182.642 229.903C182.313 229.737 182.047 229.536 181.847 229.301C181.65 229.062 181.496 228.837 181.386 228.625H181.301V233.273H179.244ZM181.261 225.636C181.261 226.201 181.341 226.695 181.5 227.119C181.663 227.544 181.896 227.875 182.199 228.114C182.506 228.348 182.877 228.466 183.312 228.466C183.767 228.466 184.148 228.345 184.455 228.102C184.761 227.856 184.992 227.521 185.148 227.097C185.307 226.669 185.386 226.182 185.386 225.636C185.386 225.095 185.309 224.614 185.153 224.193C184.998 223.773 184.767 223.443 184.46 223.205C184.153 222.966 183.771 222.847 183.312 222.847C182.873 222.847 182.5 222.962 182.193 223.193C181.886 223.424 181.653 223.748 181.494 224.165C181.339 224.581 181.261 225.072 181.261 225.636ZM189.244 230V221.273H191.239V222.727H191.33C191.489 222.223 191.761 221.835 192.148 221.562C192.538 221.286 192.983 221.148 193.483 221.148C193.597 221.148 193.723 221.153 193.864 221.165C194.008 221.172 194.127 221.186 194.222 221.205V223.097C194.134 223.066 193.996 223.04 193.807 223.017C193.621 222.991 193.441 222.977 193.267 222.977C192.892 222.977 192.555 223.059 192.256 223.222C191.96 223.381 191.727 223.602 191.557 223.886C191.386 224.17 191.301 224.498 191.301 224.869V230H189.244ZM199.036 230.17C198.183 230.17 197.445 229.983 196.82 229.608C196.195 229.233 195.71 228.708 195.365 228.034C195.024 227.36 194.854 226.572 194.854 225.67C194.854 224.769 195.024 223.979 195.365 223.301C195.71 222.623 196.195 222.097 196.82 221.722C197.445 221.347 198.183 221.159 199.036 221.159C199.888 221.159 200.626 221.347 201.251 221.722C201.876 222.097 202.359 222.623 202.7 223.301C203.045 223.979 203.217 224.769 203.217 225.67C203.217 226.572 203.045 227.36 202.7 228.034C202.359 228.708 201.876 229.233 201.251 229.608C200.626 229.983 199.888 230.17 199.036 230.17ZM199.047 228.523C199.509 228.523 199.895 228.396 200.206 228.142C200.517 227.884 200.748 227.54 200.899 227.108C201.054 226.676 201.132 226.195 201.132 225.665C201.132 225.131 201.054 224.648 200.899 224.216C200.748 223.78 200.517 223.434 200.206 223.176C199.895 222.919 199.509 222.79 199.047 222.79C198.573 222.79 198.179 222.919 197.865 223.176C197.554 223.434 197.321 223.78 197.166 224.216C197.015 224.648 196.939 225.131 196.939 225.665C196.939 226.195 197.015 226.676 197.166 227.108C197.321 227.54 197.554 227.884 197.865 228.142C198.179 228.396 198.573 228.523 199.047 228.523ZM208.202 230.153C207.516 230.153 206.902 229.977 206.361 229.625C205.819 229.273 205.391 228.761 205.077 228.091C204.762 227.42 204.605 226.606 204.605 225.648C204.605 224.678 204.764 223.86 205.082 223.193C205.404 222.523 205.838 222.017 206.384 221.676C206.929 221.331 207.537 221.159 208.207 221.159C208.719 221.159 209.139 221.246 209.469 221.42C209.798 221.591 210.06 221.797 210.253 222.04C210.446 222.278 210.596 222.504 210.702 222.716H210.787V218.364H212.849V230H210.827V228.625H210.702C210.596 228.837 210.442 229.062 210.241 229.301C210.041 229.536 209.776 229.737 209.446 229.903C209.116 230.07 208.702 230.153 208.202 230.153ZM208.776 228.466C209.211 228.466 209.582 228.348 209.889 228.114C210.196 227.875 210.429 227.544 210.588 227.119C210.747 226.695 210.827 226.201 210.827 225.636C210.827 225.072 210.747 224.581 210.588 224.165C210.433 223.748 210.202 223.424 209.895 223.193C209.592 222.962 209.219 222.847 208.776 222.847C208.317 222.847 207.935 222.966 207.628 223.205C207.321 223.443 207.09 223.773 206.935 224.193C206.779 224.614 206.702 225.095 206.702 225.636C206.702 226.182 206.779 226.669 206.935 227.097C207.094 227.521 207.327 227.856 207.634 228.102C207.944 228.345 208.325 228.466 208.776 228.466ZM220.604 226.33V221.273H222.661V230H220.666V228.449H220.575C220.378 228.937 220.054 229.337 219.604 229.648C219.157 229.958 218.606 230.114 217.95 230.114C217.378 230.114 216.873 229.987 216.433 229.733C215.998 229.475 215.657 229.102 215.411 228.614C215.164 228.121 215.041 227.527 215.041 226.83V221.273H217.098V226.511C217.098 227.064 217.25 227.504 217.553 227.83C217.856 228.155 218.253 228.318 218.746 228.318C219.049 228.318 219.342 228.244 219.626 228.097C219.911 227.949 220.143 227.729 220.325 227.438C220.511 227.142 220.604 226.773 220.604 226.33ZM229.134 221.273V222.864H224.116V221.273H229.134ZM225.355 219.182H227.412V227.375C227.412 227.652 227.454 227.864 227.537 228.011C227.624 228.155 227.738 228.254 227.878 228.307C228.018 228.36 228.173 228.386 228.344 228.386C228.473 228.386 228.59 228.377 228.696 228.358C228.806 228.339 228.889 228.322 228.946 228.307L229.293 229.915C229.183 229.953 229.026 229.994 228.821 230.04C228.62 230.085 228.374 230.112 228.082 230.119C227.567 230.134 227.103 230.057 226.69 229.886C226.277 229.712 225.95 229.443 225.707 229.08C225.469 228.716 225.351 228.261 225.355 227.716V219.182ZM234.567 230.17C233.714 230.17 232.976 229.983 232.351 229.608C231.726 229.233 231.241 228.708 230.896 228.034C230.555 227.36 230.385 226.572 230.385 225.67C230.385 224.769 230.555 223.979 230.896 223.301C231.241 222.623 231.726 222.097 232.351 221.722C232.976 221.347 233.714 221.159 234.567 221.159C235.419 221.159 236.158 221.347 236.783 221.722C237.408 222.097 237.891 222.623 238.232 223.301C238.576 223.979 238.749 224.769 238.749 225.67C238.749 226.572 238.576 227.36 238.232 228.034C237.891 228.708 237.408 229.233 236.783 229.608C236.158 229.983 235.419 230.17 234.567 230.17ZM234.578 228.523C235.04 228.523 235.427 228.396 235.737 228.142C236.048 227.884 236.279 227.54 236.43 227.108C236.586 226.676 236.663 226.195 236.663 225.665C236.663 225.131 236.586 224.648 236.43 224.216C236.279 223.78 236.048 223.434 235.737 223.176C235.427 222.919 235.04 222.79 234.578 222.79C234.105 222.79 233.711 222.919 233.396 223.176C233.086 223.434 232.853 223.78 232.697 224.216C232.546 224.648 232.47 225.131 232.47 225.665C232.47 226.195 232.546 226.676 232.697 227.108C232.853 227.54 233.086 227.884 233.396 228.142C233.711 228.396 234.105 228.523 234.578 228.523Z" fill="#191919"/>
<path d="M106.415 239.273L109.006 246.619H109.108L111.699 239.273H112.807L109.602 248H108.511L105.307 239.273H106.415ZM115.347 248.153C114.932 248.153 114.555 248.075 114.217 247.919C113.879 247.76 113.611 247.531 113.412 247.233C113.213 246.932 113.114 246.568 113.114 246.142C113.114 245.767 113.188 245.463 113.335 245.23C113.483 244.994 113.68 244.81 113.928 244.676C114.175 244.543 114.447 244.443 114.746 244.378C115.047 244.31 115.349 244.256 115.653 244.216C116.051 244.165 116.374 244.126 116.621 244.101C116.871 244.072 117.053 244.026 117.166 243.96C117.283 243.895 117.341 243.781 117.341 243.619V243.585C117.341 243.165 117.226 242.838 116.996 242.605C116.768 242.372 116.423 242.256 115.96 242.256C115.48 242.256 115.104 242.361 114.831 242.571C114.558 242.781 114.366 243.006 114.256 243.244L113.301 242.903C113.472 242.506 113.699 242.196 113.983 241.974C114.27 241.75 114.582 241.594 114.92 241.506C115.261 241.415 115.597 241.369 115.926 241.369C116.136 241.369 116.378 241.395 116.651 241.446C116.926 241.494 117.192 241.595 117.447 241.749C117.706 241.902 117.92 242.134 118.091 242.443C118.261 242.753 118.347 243.168 118.347 243.688V248H117.341V247.114H117.29C117.222 247.256 117.108 247.408 116.949 247.57C116.79 247.732 116.578 247.869 116.314 247.983C116.05 248.097 115.727 248.153 115.347 248.153ZM115.5 247.25C115.898 247.25 116.233 247.172 116.506 247.016C116.781 246.859 116.989 246.658 117.128 246.411C117.27 246.163 117.341 245.903 117.341 245.631V244.71C117.298 244.761 117.205 244.808 117.06 244.851C116.918 244.891 116.753 244.926 116.565 244.957C116.381 244.986 116.2 245.011 116.024 245.034C115.851 245.054 115.71 245.071 115.602 245.085C115.341 245.119 115.097 245.175 114.869 245.251C114.645 245.325 114.463 245.437 114.324 245.588C114.188 245.736 114.119 245.937 114.119 246.193C114.119 246.543 114.249 246.807 114.507 246.986C114.768 247.162 115.099 247.25 115.5 247.25ZM121.188 239.273V248H120.182V239.273H121.188ZM125.689 248.136C125.098 248.136 124.58 247.996 124.134 247.714C123.69 247.433 123.344 247.04 123.094 246.534C122.847 246.028 122.723 245.437 122.723 244.761C122.723 244.08 122.847 243.484 123.094 242.976C123.344 242.467 123.69 242.072 124.134 241.791C124.58 241.51 125.098 241.369 125.689 241.369C126.28 241.369 126.797 241.51 127.24 241.791C127.686 242.072 128.033 242.467 128.28 242.976C128.53 243.484 128.655 244.08 128.655 244.761C128.655 245.437 128.53 246.028 128.28 246.534C128.033 247.04 127.686 247.433 127.24 247.714C126.797 247.996 126.28 248.136 125.689 248.136ZM125.689 247.233C126.138 247.233 126.507 247.118 126.797 246.888C127.087 246.658 127.301 246.355 127.44 245.98C127.58 245.605 127.649 245.199 127.649 244.761C127.649 244.324 127.58 243.916 127.44 243.538C127.301 243.161 127.087 242.855 126.797 242.622C126.507 242.389 126.138 242.273 125.689 242.273C125.24 242.273 124.871 242.389 124.581 242.622C124.291 242.855 124.077 243.161 123.938 243.538C123.798 243.916 123.729 244.324 123.729 244.761C123.729 245.199 123.798 245.605 123.938 245.98C124.077 246.355 124.291 246.658 124.581 246.888C124.871 247.118 125.24 247.233 125.689 247.233ZM130.19 248V241.455H131.162V242.443H131.23C131.349 242.119 131.565 241.857 131.877 241.655C132.19 241.453 132.542 241.352 132.934 241.352C133.008 241.352 133.1 241.354 133.211 241.357C133.322 241.359 133.406 241.364 133.463 241.369V242.392C133.429 242.384 133.35 242.371 133.228 242.354C133.109 242.334 132.983 242.324 132.849 242.324C132.531 242.324 132.247 242.391 131.997 242.524C131.75 242.655 131.554 242.837 131.409 243.07C131.267 243.3 131.196 243.562 131.196 243.858V248H130.19Z" fill="#9F9F9F"/>
<path d="M109.227 261.273H110.386L111.358 262.551L111.614 262.892L113.062 264.818H111.903L110.949 263.54L110.71 263.216L109.227 261.273ZM113.42 259.636C113.42 260.557 113.254 261.352 112.922 262.023C112.589 262.693 112.134 263.21 111.554 263.574C110.974 263.938 110.313 264.119 109.568 264.119C108.824 264.119 108.162 263.938 107.582 263.574C107.003 263.21 106.547 262.693 106.214 262.023C105.882 261.352 105.716 260.557 105.716 259.636C105.716 258.716 105.882 257.92 106.214 257.25C106.547 256.58 107.003 256.062 107.582 255.699C108.162 255.335 108.824 255.153 109.568 255.153C110.313 255.153 110.974 255.335 111.554 255.699C112.134 256.062 112.589 256.58 112.922 257.25C113.254 257.92 113.42 258.716 113.42 259.636ZM112.398 259.636C112.398 258.881 112.271 258.243 112.018 257.723C111.768 257.203 111.429 256.81 111 256.543C110.574 256.276 110.097 256.142 109.568 256.142C109.04 256.142 108.561 256.276 108.132 256.543C107.706 256.81 107.366 257.203 107.114 257.723C106.864 258.243 106.739 258.881 106.739 259.636C106.739 260.392 106.864 261.03 107.114 261.55C107.366 262.07 107.706 262.463 108.132 262.73C108.561 262.997 109.04 263.131 109.568 263.131C110.097 263.131 110.574 262.997 111 262.73C111.429 262.463 111.768 262.07 112.018 261.55C112.271 261.03 112.398 260.392 112.398 259.636ZM119.186 261.324V257.455H120.192V264H119.186V262.892H119.118C118.964 263.224 118.726 263.507 118.402 263.74C118.078 263.97 117.669 264.085 117.175 264.085C116.766 264.085 116.402 263.996 116.084 263.817C115.766 263.635 115.516 263.362 115.334 262.999C115.152 262.632 115.061 262.17 115.061 261.614V257.455H116.067V261.545C116.067 262.023 116.2 262.403 116.467 262.688C116.737 262.972 117.081 263.114 117.499 263.114C117.749 263.114 118.003 263.05 118.261 262.922C118.523 262.794 118.741 262.598 118.918 262.334C119.097 262.07 119.186 261.733 119.186 261.324ZM123.96 264.153C123.545 264.153 123.169 264.075 122.831 263.919C122.493 263.76 122.224 263.531 122.025 263.233C121.826 262.932 121.727 262.568 121.727 262.142C121.727 261.767 121.801 261.463 121.949 261.23C122.096 260.994 122.294 260.81 122.541 260.676C122.788 260.543 123.061 260.443 123.359 260.378C123.66 260.31 123.963 260.256 124.267 260.216C124.664 260.165 124.987 260.126 125.234 260.101C125.484 260.072 125.666 260.026 125.779 259.96C125.896 259.895 125.954 259.781 125.954 259.619V259.585C125.954 259.165 125.839 258.838 125.609 258.605C125.382 258.372 125.037 258.256 124.574 258.256C124.093 258.256 123.717 258.361 123.444 258.571C123.172 258.781 122.98 259.006 122.869 259.244L121.914 258.903C122.085 258.506 122.312 258.196 122.596 257.974C122.883 257.75 123.196 257.594 123.534 257.506C123.875 257.415 124.21 257.369 124.539 257.369C124.75 257.369 124.991 257.395 125.264 257.446C125.539 257.494 125.805 257.595 126.061 257.749C126.319 257.902 126.534 258.134 126.704 258.443C126.875 258.753 126.96 259.168 126.96 259.688V264H125.954V263.114H125.903C125.835 263.256 125.721 263.408 125.562 263.57C125.403 263.732 125.191 263.869 124.927 263.983C124.663 264.097 124.341 264.153 123.96 264.153ZM124.113 263.25C124.511 263.25 124.846 263.172 125.119 263.016C125.395 262.859 125.602 262.658 125.741 262.411C125.883 262.163 125.954 261.903 125.954 261.631V260.71C125.912 260.761 125.818 260.808 125.673 260.851C125.531 260.891 125.366 260.926 125.179 260.957C124.994 260.986 124.814 261.011 124.637 261.034C124.464 261.054 124.324 261.071 124.216 261.085C123.954 261.119 123.71 261.175 123.483 261.251C123.258 261.325 123.076 261.437 122.937 261.588C122.801 261.736 122.733 261.937 122.733 262.193C122.733 262.543 122.862 262.807 123.12 262.986C123.382 263.162 123.713 263.25 124.113 263.25ZM129.801 260.062V264H128.795V257.455H129.767V258.477H129.852C130.006 258.145 130.239 257.878 130.551 257.676C130.864 257.472 131.267 257.369 131.761 257.369C132.205 257.369 132.592 257.46 132.925 257.642C133.257 257.821 133.516 258.094 133.7 258.46C133.885 258.824 133.977 259.284 133.977 259.841V264H132.972V259.909C132.972 259.395 132.838 258.994 132.571 258.707C132.304 258.418 131.938 258.273 131.472 258.273C131.151 258.273 130.864 258.342 130.611 258.482C130.361 258.621 130.163 258.824 130.018 259.091C129.874 259.358 129.801 259.682 129.801 260.062ZM138.662 257.455V258.307H135.27V257.455H138.662ZM136.258 255.886H137.264V262.125C137.264 262.409 137.305 262.622 137.387 262.764C137.473 262.903 137.581 262.997 137.711 263.045C137.845 263.091 137.985 263.114 138.133 263.114C138.244 263.114 138.335 263.108 138.406 263.097C138.477 263.082 138.534 263.071 138.576 263.062L138.781 263.966C138.713 263.991 138.618 264.017 138.495 264.043C138.373 264.071 138.218 264.085 138.031 264.085C137.747 264.085 137.468 264.024 137.196 263.902C136.926 263.78 136.701 263.594 136.522 263.344C136.346 263.094 136.258 262.778 136.258 262.398V255.886ZM140.174 264V257.455H141.18V264H140.174ZM140.686 256.364C140.49 256.364 140.321 256.297 140.179 256.163C140.039 256.03 139.97 255.869 139.97 255.682C139.97 255.494 140.039 255.334 140.179 255.2C140.321 255.067 140.49 255 140.686 255C140.882 255 141.049 255.067 141.189 255.2C141.331 255.334 141.402 255.494 141.402 255.682C141.402 255.869 141.331 256.03 141.189 256.163C141.049 256.297 140.882 256.364 140.686 256.364ZM144.948 264.153C144.533 264.153 144.157 264.075 143.819 263.919C143.481 263.76 143.212 263.531 143.013 263.233C142.815 262.932 142.715 262.568 142.715 262.142C142.715 261.767 142.789 261.463 142.937 261.23C143.085 260.994 143.282 260.81 143.529 260.676C143.776 260.543 144.049 260.443 144.347 260.378C144.648 260.31 144.951 260.256 145.255 260.216C145.653 260.165 145.975 260.126 146.222 260.101C146.472 260.072 146.654 260.026 146.768 259.96C146.884 259.895 146.942 259.781 146.942 259.619V259.585C146.942 259.165 146.827 258.838 146.597 258.605C146.37 258.372 146.025 258.256 145.562 258.256C145.082 258.256 144.705 258.361 144.433 258.571C144.16 258.781 143.968 259.006 143.857 259.244L142.903 258.903C143.073 258.506 143.3 258.196 143.585 257.974C143.871 257.75 144.184 257.594 144.522 257.506C144.863 257.415 145.198 257.369 145.528 257.369C145.738 257.369 145.979 257.395 146.252 257.446C146.528 257.494 146.793 257.595 147.049 257.749C147.308 257.902 147.522 258.134 147.692 258.443C147.863 258.753 147.948 259.168 147.948 259.688V264H146.942V263.114H146.891C146.823 263.256 146.71 263.408 146.55 263.57C146.391 263.732 146.18 263.869 145.915 263.983C145.651 264.097 145.329 264.153 144.948 264.153ZM145.102 263.25C145.499 263.25 145.835 263.172 146.107 263.016C146.383 262.859 146.59 262.658 146.729 262.411C146.871 262.163 146.942 261.903 146.942 261.631V260.71C146.9 260.761 146.806 260.808 146.661 260.851C146.519 260.891 146.354 260.926 146.167 260.957C145.982 260.986 145.802 261.011 145.626 261.034C145.452 261.054 145.312 261.071 145.204 261.085C144.942 261.119 144.698 261.175 144.471 261.251C144.246 261.325 144.065 261.437 143.925 261.588C143.789 261.736 143.721 261.937 143.721 262.193C143.721 262.543 143.85 262.807 144.109 262.986C144.37 263.162 144.701 263.25 145.102 263.25ZM153.653 264H152.545L155.75 255.273H156.841L160.045 264H158.937L156.329 256.653H156.261L153.653 264ZM154.062 260.591H158.528V261.528H154.062V260.591ZM163.705 257.455V258.307H160.312V257.455H163.705ZM161.301 255.886H162.307V262.125C162.307 262.409 162.348 262.622 162.43 262.764C162.516 262.903 162.624 262.997 162.754 263.045C162.888 263.091 163.028 263.114 163.176 263.114C163.287 263.114 163.378 263.108 163.449 263.097C163.52 263.082 163.577 263.071 163.619 263.062L163.824 263.966C163.756 263.991 163.661 264.017 163.538 264.043C163.416 264.071 163.261 264.085 163.074 264.085C162.79 264.085 162.511 264.024 162.239 263.902C161.969 263.78 161.744 263.594 161.565 263.344C161.389 263.094 161.301 262.778 161.301 262.398V255.886ZM169.342 261.324V257.455H170.348V264H169.342V262.892H169.274C169.121 263.224 168.882 263.507 168.558 263.74C168.234 263.97 167.825 264.085 167.331 264.085C166.922 264.085 166.558 263.996 166.24 263.817C165.922 263.635 165.672 263.362 165.49 262.999C165.308 262.632 165.217 262.17 165.217 261.614V257.455H166.223V261.545C166.223 262.023 166.357 262.403 166.624 262.688C166.893 262.972 167.237 263.114 167.655 263.114C167.905 263.114 168.159 263.05 168.418 262.922C168.679 262.794 168.898 262.598 169.074 262.334C169.253 262.07 169.342 261.733 169.342 261.324ZM174.116 264.153C173.701 264.153 173.325 264.075 172.987 263.919C172.649 263.76 172.38 263.531 172.181 263.233C171.983 262.932 171.883 262.568 171.883 262.142C171.883 261.767 171.957 261.463 172.105 261.23C172.252 260.994 172.45 260.81 172.697 260.676C172.944 260.543 173.217 260.443 173.515 260.378C173.816 260.31 174.119 260.256 174.423 260.216C174.821 260.165 175.143 260.126 175.39 260.101C175.64 260.072 175.822 260.026 175.936 259.96C176.052 259.895 176.11 259.781 176.11 259.619V259.585C176.11 259.165 175.995 258.838 175.765 258.605C175.538 258.372 175.193 258.256 174.73 258.256C174.25 258.256 173.873 258.361 173.6 258.571C173.328 258.781 173.136 259.006 173.025 259.244L172.071 258.903C172.241 258.506 172.468 258.196 172.752 257.974C173.039 257.75 173.352 257.594 173.69 257.506C174.031 257.415 174.366 257.369 174.696 257.369C174.906 257.369 175.147 257.395 175.42 257.446C175.696 257.494 175.961 257.595 176.217 257.749C176.475 257.902 176.69 258.134 176.86 258.443C177.031 258.753 177.116 259.168 177.116 259.688V264H176.11V263.114H176.059C175.991 263.256 175.877 263.408 175.718 263.57C175.559 263.732 175.348 263.869 175.083 263.983C174.819 264.097 174.497 264.153 174.116 264.153ZM174.27 263.25C174.667 263.25 175.002 263.172 175.275 263.016C175.551 262.859 175.758 262.658 175.897 262.411C176.039 262.163 176.11 261.903 176.11 261.631V260.71C176.068 260.761 175.974 260.808 175.829 260.851C175.687 260.891 175.522 260.926 175.335 260.957C175.15 260.986 174.97 261.011 174.794 261.034C174.62 261.054 174.48 261.071 174.372 261.085C174.11 261.119 173.866 261.175 173.639 261.251C173.414 261.325 173.233 261.437 173.093 261.588C172.957 261.736 172.889 261.937 172.889 262.193C172.889 262.543 173.018 262.807 173.277 262.986C173.538 263.162 173.869 263.25 174.27 263.25ZM179.957 255.273V264H178.952V255.273H179.957Z" fill="#9F9F9F"/>
<g clip-path="url(#clip1_93_169)">
<path d="M296 223C286.611 223 279 230.611 279 240C279 249.389 286.611 257 296 257C305.389 257 313 249.389 313 240C313 230.611 305.389 223 296 223ZM296 254.908C287.798 254.908 281.125 248.202 281.125 240C281.125 231.798 287.798 225.125 296 225.125C304.202 225.125 310.875 231.798 310.875 240C310.875 248.202 304.202 254.908 296 254.908ZM303.438 238.938H297.062V232.562C297.062 231.976 296.586 231.5 296 231.5C295.414 231.5 294.938 231.976 294.938 232.562V238.938H288.562C287.976 238.938 287.5 239.414 287.5 240C287.5 240.586 287.976 241.062 288.562 241.062H294.938V247.438C294.938 248.024 295.414 248.5 296 248.5C296.586 248.5 297.062 248.024 297.062 247.438V241.062H303.438C304.024 241.062 304.5 240.586 304.5 240C304.5 239.414 304.024 238.938 303.438 238.938Z" fill="#525256"/>
</g>
<mask id="path-21-inside-4_93_169" fill="white">
<path d="M49 292H347V396H49V292Z"/>
</mask>
<path d="M347 395H49V397H347V395Z" fill="#F3F3F3" mask="url(#path-21-inside-4_93_169)"/>
<rect x="49" y="324" width="40" height="40" rx="8" fill="#D2D2D2" fill-opacity="0.25"/>
<path d="M63 354C62.45 354 61.979 353.804 61.587 353.412C61.195 353.02 60.9993 352.549 61 352V340C61 339.45 61.196 338.979 61.588 338.587C61.98 338.195 62.4507 337.999 63 338H65C65 336.9 65.3917 335.958 66.175 335.175C66.9583 334.392 67.9 334 69 334C70.1 334 71.0417 334.392 71.825 335.175C72.6083 335.958 73 336.9 73 338H75C75.55 338 76.021 338.196 76.413 338.588C76.805 338.98 77.0007 339.451 77 340V352C77 352.55 76.804 353.021 76.412 353.413C76.02 353.805 75.5493 354.001 75 354H63ZM63 352H75V340H73V342C73 342.283 72.904 342.521 72.712 342.713C72.52 342.905 72.2827 343.001 72 343C71.7167 343 71.479 342.904 71.287 342.712C71.095 342.52 70.9993 342.283 71 342V340H67V342C67 342.283 66.904 342.521 66.712 342.713C66.52 342.905 66.2827 343.001 66 343C65.7167 343 65.479 342.904 65.287 342.712C65.095 342.52 64.9993 342.283 65 342V340H63V352ZM67 338H71C71 337.45 70.804 336.979 70.412 336.587C70.02 336.195 69.5493 335.999 69 336C68.45 336 67.979 336.196 67.587 336.588C67.195 336.98 66.9993 337.451 67 338Z" fill="#191919"/>
<path d="M115.71 322.364V334H113.835L108.352 326.074H108.256V334H106.148V322.364H108.034L113.511 330.295H113.614V322.364H115.71ZM121.723 334.17C120.871 334.17 120.132 333.983 119.507 333.608C118.882 333.233 118.397 332.708 118.053 332.034C117.712 331.36 117.541 330.572 117.541 329.67C117.541 328.769 117.712 327.979 118.053 327.301C118.397 326.623 118.882 326.097 119.507 325.722C120.132 325.347 120.871 325.159 121.723 325.159C122.575 325.159 123.314 325.347 123.939 325.722C124.564 326.097 125.047 326.623 125.388 327.301C125.732 327.979 125.905 328.769 125.905 329.67C125.905 330.572 125.732 331.36 125.388 332.034C125.047 332.708 124.564 333.233 123.939 333.608C123.314 333.983 122.575 334.17 121.723 334.17ZM121.734 332.523C122.196 332.523 122.583 332.396 122.893 332.142C123.204 331.884 123.435 331.54 123.587 331.108C123.742 330.676 123.82 330.195 123.82 329.665C123.82 329.131 123.742 328.648 123.587 328.216C123.435 327.78 123.204 327.434 122.893 327.176C122.583 326.919 122.196 326.79 121.734 326.79C121.261 326.79 120.867 326.919 120.553 327.176C120.242 327.434 120.009 327.78 119.854 328.216C119.702 328.648 119.626 329.131 119.626 329.665C119.626 330.195 119.702 330.676 119.854 331.108C120.009 331.54 120.242 331.884 120.553 332.142C120.867 332.396 121.261 332.523 121.734 332.523ZM127.651 334V325.273H129.616V326.756H129.719C129.901 326.256 130.202 325.866 130.622 325.585C131.043 325.301 131.545 325.159 132.128 325.159C132.719 325.159 133.217 325.303 133.622 325.591C134.031 325.875 134.319 326.263 134.486 326.756H134.577C134.77 326.271 135.096 325.884 135.554 325.597C136.016 325.305 136.563 325.159 137.196 325.159C137.999 325.159 138.654 325.413 139.162 325.92C139.67 326.428 139.923 327.169 139.923 328.142V334H137.861V328.46C137.861 327.919 137.717 327.523 137.429 327.273C137.141 327.019 136.789 326.892 136.372 326.892C135.876 326.892 135.488 327.047 135.207 327.358C134.931 327.665 134.793 328.064 134.793 328.557V334H132.776V328.375C132.776 327.924 132.639 327.564 132.366 327.295C132.098 327.027 131.745 326.892 131.31 326.892C131.014 326.892 130.745 326.968 130.503 327.119C130.26 327.267 130.067 327.477 129.923 327.75C129.779 328.019 129.707 328.333 129.707 328.693V334H127.651ZM145.874 334.17C144.999 334.17 144.243 333.989 143.607 333.625C142.974 333.258 142.487 332.739 142.146 332.068C141.805 331.394 141.635 330.6 141.635 329.688C141.635 328.79 141.805 328.002 142.146 327.324C142.491 326.642 142.972 326.112 143.589 325.733C144.207 325.35 144.932 325.159 145.766 325.159C146.304 325.159 146.811 325.246 147.288 325.42C147.769 325.591 148.194 325.856 148.561 326.216C148.932 326.576 149.224 327.034 149.436 327.591C149.648 328.144 149.754 328.803 149.754 329.568V330.199H142.601V328.812H147.783C147.779 328.419 147.694 328.068 147.527 327.761C147.36 327.451 147.127 327.206 146.828 327.028C146.533 326.85 146.188 326.761 145.794 326.761C145.374 326.761 145.004 326.864 144.686 327.068C144.368 327.269 144.12 327.534 143.942 327.864C143.768 328.189 143.679 328.547 143.675 328.938V330.148C143.675 330.655 143.768 331.091 143.953 331.455C144.139 331.814 144.398 332.091 144.732 332.284C145.065 332.473 145.455 332.568 145.902 332.568C146.201 332.568 146.472 332.527 146.714 332.443C146.957 332.356 147.167 332.229 147.345 332.062C147.523 331.896 147.658 331.689 147.749 331.443L149.669 331.659C149.548 332.167 149.317 332.61 148.976 332.989C148.639 333.364 148.207 333.655 147.68 333.864C147.154 334.068 146.552 334.17 145.874 334.17ZM158.702 334.153C158.016 334.153 157.402 333.977 156.861 333.625C156.319 333.273 155.891 332.761 155.577 332.091C155.262 331.42 155.105 330.606 155.105 329.648C155.105 328.678 155.264 327.86 155.582 327.193C155.904 326.523 156.338 326.017 156.884 325.676C157.429 325.331 158.037 325.159 158.707 325.159C159.219 325.159 159.639 325.246 159.969 325.42C160.298 325.591 160.56 325.797 160.753 326.04C160.946 326.278 161.096 326.504 161.202 326.716H161.287V322.364H163.349V334H161.327V332.625H161.202C161.096 332.837 160.942 333.062 160.741 333.301C160.541 333.536 160.276 333.737 159.946 333.903C159.616 334.07 159.202 334.153 158.702 334.153ZM159.276 332.466C159.711 332.466 160.082 332.348 160.389 332.114C160.696 331.875 160.929 331.544 161.088 331.119C161.247 330.695 161.327 330.201 161.327 329.636C161.327 329.072 161.247 328.581 161.088 328.165C160.933 327.748 160.702 327.424 160.395 327.193C160.092 326.962 159.719 326.847 159.276 326.847C158.817 326.847 158.435 326.966 158.128 327.205C157.821 327.443 157.59 327.773 157.435 328.193C157.279 328.614 157.202 329.095 157.202 329.636C157.202 330.182 157.279 330.669 157.435 331.097C157.594 331.521 157.827 331.856 158.134 332.102C158.444 332.345 158.825 332.466 159.276 332.466ZM169.348 334.17C168.496 334.17 167.757 333.983 167.132 333.608C166.507 333.233 166.022 332.708 165.678 332.034C165.337 331.36 165.166 330.572 165.166 329.67C165.166 328.769 165.337 327.979 165.678 327.301C166.022 326.623 166.507 326.097 167.132 325.722C167.757 325.347 168.496 325.159 169.348 325.159C170.2 325.159 170.939 325.347 171.564 325.722C172.189 326.097 172.672 326.623 173.013 327.301C173.357 327.979 173.53 328.769 173.53 329.67C173.53 330.572 173.357 331.36 173.013 332.034C172.672 332.708 172.189 333.233 171.564 333.608C170.939 333.983 170.2 334.17 169.348 334.17ZM169.359 332.523C169.821 332.523 170.208 332.396 170.518 332.142C170.829 331.884 171.06 331.54 171.212 331.108C171.367 330.676 171.445 330.195 171.445 329.665C171.445 329.131 171.367 328.648 171.212 328.216C171.06 327.78 170.829 327.434 170.518 327.176C170.208 326.919 169.821 326.79 169.359 326.79C168.886 326.79 168.492 326.919 168.178 327.176C167.867 327.434 167.634 327.78 167.479 328.216C167.327 328.648 167.251 329.131 167.251 329.665C167.251 330.195 167.327 330.676 167.479 331.108C167.634 331.54 167.867 331.884 168.178 332.142C168.492 332.396 168.886 332.523 169.359 332.523ZM179.335 334V322.364H183.699C184.593 322.364 185.343 322.53 185.949 322.864C186.559 323.197 187.019 323.655 187.33 324.239C187.644 324.818 187.801 325.477 187.801 326.216C187.801 326.962 187.644 327.625 187.33 328.205C187.015 328.784 186.551 329.241 185.938 329.574C185.324 329.903 184.568 330.068 183.67 330.068H180.778V328.335H183.386C183.909 328.335 184.337 328.244 184.67 328.062C185.004 327.881 185.25 327.631 185.409 327.312C185.572 326.994 185.653 326.629 185.653 326.216C185.653 325.803 185.572 325.439 185.409 325.125C185.25 324.811 185.002 324.566 184.665 324.392C184.331 324.214 183.902 324.125 183.375 324.125H181.443V334H179.335ZM189.541 334V325.273H191.536V326.727H191.626C191.786 326.223 192.058 325.835 192.445 325.562C192.835 325.286 193.28 325.148 193.78 325.148C193.893 325.148 194.02 325.153 194.161 325.165C194.304 325.172 194.424 325.186 194.518 325.205V327.097C194.431 327.066 194.293 327.04 194.104 327.017C193.918 326.991 193.738 326.977 193.564 326.977C193.189 326.977 192.852 327.059 192.553 327.222C192.257 327.381 192.024 327.602 191.854 327.886C191.683 328.17 191.598 328.498 191.598 328.869V334H189.541ZM199.332 334.17C198.48 334.17 197.741 333.983 197.116 333.608C196.491 333.233 196.007 332.708 195.662 332.034C195.321 331.36 195.151 330.572 195.151 329.67C195.151 328.769 195.321 327.979 195.662 327.301C196.007 326.623 196.491 326.097 197.116 325.722C197.741 325.347 198.48 325.159 199.332 325.159C200.185 325.159 200.923 325.347 201.548 325.722C202.173 326.097 202.656 326.623 202.997 327.301C203.342 327.979 203.514 328.769 203.514 329.67C203.514 330.572 203.342 331.36 202.997 332.034C202.656 332.708 202.173 333.233 201.548 333.608C200.923 333.983 200.185 334.17 199.332 334.17ZM199.344 332.523C199.806 332.523 200.192 332.396 200.503 332.142C200.813 331.884 201.045 331.54 201.196 331.108C201.351 330.676 201.429 330.195 201.429 329.665C201.429 329.131 201.351 328.648 201.196 328.216C201.045 327.78 200.813 327.434 200.503 327.176C200.192 326.919 199.806 326.79 199.344 326.79C198.87 326.79 198.476 326.919 198.162 327.176C197.851 327.434 197.618 327.78 197.463 328.216C197.312 328.648 197.236 329.131 197.236 329.665C197.236 330.195 197.312 330.676 197.463 331.108C197.618 331.54 197.851 331.884 198.162 332.142C198.476 332.396 198.87 332.523 199.344 332.523ZM208.499 334.153C207.813 334.153 207.199 333.977 206.658 333.625C206.116 333.273 205.688 332.761 205.374 332.091C205.059 331.42 204.902 330.606 204.902 329.648C204.902 328.678 205.061 327.86 205.379 327.193C205.701 326.523 206.135 326.017 206.68 325.676C207.226 325.331 207.834 325.159 208.504 325.159C209.016 325.159 209.436 325.246 209.766 325.42C210.095 325.591 210.357 325.797 210.55 326.04C210.743 326.278 210.893 326.504 210.999 326.716H211.084V322.364H213.146V334H211.124V332.625H210.999C210.893 332.837 210.739 333.062 210.538 333.301C210.338 333.536 210.072 333.737 209.743 333.903C209.413 334.07 208.999 334.153 208.499 334.153ZM209.072 332.466C209.508 332.466 209.879 332.348 210.186 332.114C210.493 331.875 210.726 331.544 210.885 331.119C211.044 330.695 211.124 330.201 211.124 329.636C211.124 329.072 211.044 328.581 210.885 328.165C210.73 327.748 210.499 327.424 210.192 327.193C209.889 326.962 209.516 326.847 209.072 326.847C208.614 326.847 208.232 326.966 207.925 327.205C207.618 327.443 207.387 327.773 207.232 328.193C207.076 328.614 206.999 329.095 206.999 329.636C206.999 330.182 207.076 330.669 207.232 331.097C207.391 331.521 207.624 331.856 207.93 332.102C208.241 332.345 208.622 332.466 209.072 332.466ZM220.901 330.33V325.273H222.957V334H220.963V332.449H220.872C220.675 332.937 220.351 333.337 219.901 333.648C219.454 333.958 218.902 334.114 218.247 334.114C217.675 334.114 217.17 333.987 216.73 333.733C216.295 333.475 215.954 333.102 215.707 332.614C215.461 332.121 215.338 331.527 215.338 330.83V325.273H217.395V330.511C217.395 331.064 217.546 331.504 217.849 331.83C218.152 332.155 218.55 332.318 219.043 332.318C219.346 332.318 219.639 332.244 219.923 332.097C220.207 331.949 220.44 331.729 220.622 331.438C220.808 331.142 220.901 330.773 220.901 330.33ZM229.43 325.273V326.864H224.413V325.273H229.43ZM225.652 323.182H227.709V331.375C227.709 331.652 227.75 331.864 227.834 332.011C227.921 332.155 228.035 332.254 228.175 332.307C228.315 332.36 228.47 332.386 228.641 332.386C228.769 332.386 228.887 332.377 228.993 332.358C229.103 332.339 229.186 332.322 229.243 332.307L229.589 333.915C229.48 333.953 229.322 333.994 229.118 334.04C228.917 334.085 228.671 334.112 228.379 334.119C227.864 334.134 227.4 334.057 226.987 333.886C226.574 333.712 226.247 333.443 226.004 333.08C225.766 332.716 225.648 332.261 225.652 331.716V323.182ZM234.864 334.17C234.011 334.17 233.273 333.983 232.648 333.608C232.023 333.233 231.538 332.708 231.193 332.034C230.852 331.36 230.682 330.572 230.682 329.67C230.682 328.769 230.852 327.979 231.193 327.301C231.538 326.623 232.023 326.097 232.648 325.722C233.273 325.347 234.011 325.159 234.864 325.159C235.716 325.159 236.455 325.347 237.08 325.722C237.705 326.097 238.188 326.623 238.528 327.301C238.873 327.979 239.045 328.769 239.045 329.67C239.045 330.572 238.873 331.36 238.528 332.034C238.188 332.708 237.705 333.233 237.08 333.608C236.455 333.983 235.716 334.17 234.864 334.17ZM234.875 332.523C235.337 332.523 235.723 332.396 236.034 332.142C236.345 331.884 236.576 331.54 236.727 331.108C236.883 330.676 236.96 330.195 236.96 329.665C236.96 329.131 236.883 328.648 236.727 328.216C236.576 327.78 236.345 327.434 236.034 327.176C235.723 326.919 235.337 326.79 234.875 326.79C234.402 326.79 234.008 326.919 233.693 327.176C233.383 327.434 233.15 327.78 232.994 328.216C232.843 328.648 232.767 329.131 232.767 329.665C232.767 330.195 232.843 330.676 232.994 331.108C233.15 331.54 233.383 331.884 233.693 332.142C234.008 332.396 234.402 332.523 234.875 332.523Z" fill="#191919"/>
<path d="M106.415 343.273L109.006 350.619H109.108L111.699 343.273H112.807L109.602 352H108.511L105.307 343.273H106.415ZM115.347 352.153C114.932 352.153 114.555 352.075 114.217 351.919C113.879 351.76 113.611 351.531 113.412 351.233C113.213 350.932 113.114 350.568 113.114 350.142C113.114 349.767 113.188 349.463 113.335 349.23C113.483 348.994 113.68 348.81 113.928 348.676C114.175 348.543 114.447 348.443 114.746 348.378C115.047 348.31 115.349 348.256 115.653 348.216C116.051 348.165 116.374 348.126 116.621 348.101C116.871 348.072 117.053 348.026 117.166 347.96C117.283 347.895 117.341 347.781 117.341 347.619V347.585C117.341 347.165 117.226 346.838 116.996 346.605C116.768 346.372 116.423 346.256 115.96 346.256C115.48 346.256 115.104 346.361 114.831 346.571C114.558 346.781 114.366 347.006 114.256 347.244L113.301 346.903C113.472 346.506 113.699 346.196 113.983 345.974C114.27 345.75 114.582 345.594 114.92 345.506C115.261 345.415 115.597 345.369 115.926 345.369C116.136 345.369 116.378 345.395 116.651 345.446C116.926 345.494 117.192 345.595 117.447 345.749C117.706 345.902 117.92 346.134 118.091 346.443C118.261 346.753 118.347 347.168 118.347 347.688V352H117.341V351.114H117.29C117.222 351.256 117.108 351.408 116.949 351.57C116.79 351.732 116.578 351.869 116.314 351.983C116.05 352.097 115.727 352.153 115.347 352.153ZM115.5 351.25C115.898 351.25 116.233 351.172 116.506 351.016C116.781 350.859 116.989 350.658 117.128 350.411C117.27 350.163 117.341 349.903 117.341 349.631V348.71C117.298 348.761 117.205 348.808 117.06 348.851C116.918 348.891 116.753 348.926 116.565 348.957C116.381 348.986 116.2 349.011 116.024 349.034C115.851 349.054 115.71 349.071 115.602 349.085C115.341 349.119 115.097 349.175 114.869 349.251C114.645 349.325 114.463 349.437 114.324 349.588C114.188 349.736 114.119 349.937 114.119 350.193C114.119 350.543 114.249 350.807 114.507 350.986C114.768 351.162 115.099 351.25 115.5 351.25ZM121.188 343.273V352H120.182V343.273H121.188ZM125.689 352.136C125.098 352.136 124.58 351.996 124.134 351.714C123.69 351.433 123.344 351.04 123.094 350.534C122.847 350.028 122.723 349.437 122.723 348.761C122.723 348.08 122.847 347.484 123.094 346.976C123.344 346.467 123.69 346.072 124.134 345.791C124.58 345.51 125.098 345.369 125.689 345.369C126.28 345.369 126.797 345.51 127.24 345.791C127.686 346.072 128.033 346.467 128.28 346.976C128.53 347.484 128.655 348.08 128.655 348.761C128.655 349.437 128.53 350.028 128.28 350.534C128.033 351.04 127.686 351.433 127.24 351.714C126.797 351.996 126.28 352.136 125.689 352.136ZM125.689 351.233C126.138 351.233 126.507 351.118 126.797 350.888C127.087 350.658 127.301 350.355 127.44 349.98C127.58 349.605 127.649 349.199 127.649 348.761C127.649 348.324 127.58 347.916 127.44 347.538C127.301 347.161 127.087 346.855 126.797 346.622C126.507 346.389 126.138 346.273 125.689 346.273C125.24 346.273 124.871 346.389 124.581 346.622C124.291 346.855 124.077 347.161 123.938 347.538C123.798 347.916 123.729 348.324 123.729 348.761C123.729 349.199 123.798 349.605 123.938 349.98C124.077 350.355 124.291 350.658 124.581 350.888C124.871 351.118 125.24 351.233 125.689 351.233ZM130.19 352V345.455H131.162V346.443H131.23C131.349 346.119 131.565 345.857 131.877 345.655C132.19 345.453 132.542 345.352 132.934 345.352C133.008 345.352 133.1 345.354 133.211 345.357C133.322 345.359 133.406 345.364 133.463 345.369V346.392C133.429 346.384 133.35 346.371 133.228 346.354C133.109 346.334 132.983 346.324 132.849 346.324C132.531 346.324 132.247 346.391 131.997 346.524C131.75 346.655 131.554 346.837 131.409 347.07C131.267 347.3 131.196 347.562 131.196 347.858V352H130.19Z" fill="#9F9F9F"/>
<path d="M109.227 365.273H110.386L111.358 366.551L111.614 366.892L113.062 368.818H111.903L110.949 367.54L110.71 367.216L109.227 365.273ZM113.42 363.636C113.42 364.557 113.254 365.352 112.922 366.023C112.589 366.693 112.134 367.21 111.554 367.574C110.974 367.938 110.313 368.119 109.568 368.119C108.824 368.119 108.162 367.938 107.582 367.574C107.003 367.21 106.547 366.693 106.214 366.023C105.882 365.352 105.716 364.557 105.716 363.636C105.716 362.716 105.882 361.92 106.214 361.25C106.547 360.58 107.003 360.062 107.582 359.699C108.162 359.335 108.824 359.153 109.568 359.153C110.313 359.153 110.974 359.335 111.554 359.699C112.134 360.062 112.589 360.58 112.922 361.25C113.254 361.92 113.42 362.716 113.42 363.636ZM112.398 363.636C112.398 362.881 112.271 362.243 112.018 361.723C111.768 361.203 111.429 360.81 111 360.543C110.574 360.276 110.097 360.142 109.568 360.142C109.04 360.142 108.561 360.276 108.132 360.543C107.706 360.81 107.366 361.203 107.114 361.723C106.864 362.243 106.739 362.881 106.739 363.636C106.739 364.392 106.864 365.03 107.114 365.55C107.366 366.07 107.706 366.463 108.132 366.73C108.561 366.997 109.04 367.131 109.568 367.131C110.097 367.131 110.574 366.997 111 366.73C111.429 366.463 111.768 366.07 112.018 365.55C112.271 365.03 112.398 364.392 112.398 363.636ZM119.186 365.324V361.455H120.192V368H119.186V366.892H119.118C118.964 367.224 118.726 367.507 118.402 367.74C118.078 367.97 117.669 368.085 117.175 368.085C116.766 368.085 116.402 367.996 116.084 367.817C115.766 367.635 115.516 367.362 115.334 366.999C115.152 366.632 115.061 366.17 115.061 365.614V361.455H116.067V365.545C116.067 366.023 116.2 366.403 116.467 366.688C116.737 366.972 117.081 367.114 117.499 367.114C117.749 367.114 118.003 367.05 118.261 366.922C118.523 366.794 118.741 366.598 118.918 366.334C119.097 366.07 119.186 365.733 119.186 365.324ZM123.96 368.153C123.545 368.153 123.169 368.075 122.831 367.919C122.493 367.76 122.224 367.531 122.025 367.233C121.826 366.932 121.727 366.568 121.727 366.142C121.727 365.767 121.801 365.463 121.949 365.23C122.096 364.994 122.294 364.81 122.541 364.676C122.788 364.543 123.061 364.443 123.359 364.378C123.66 364.31 123.963 364.256 124.267 364.216C124.664 364.165 124.987 364.126 125.234 364.101C125.484 364.072 125.666 364.026 125.779 363.96C125.896 363.895 125.954 363.781 125.954 363.619V363.585C125.954 363.165 125.839 362.838 125.609 362.605C125.382 362.372 125.037 362.256 124.574 362.256C124.093 362.256 123.717 362.361 123.444 362.571C123.172 362.781 122.98 363.006 122.869 363.244L121.914 362.903C122.085 362.506 122.312 362.196 122.596 361.974C122.883 361.75 123.196 361.594 123.534 361.506C123.875 361.415 124.21 361.369 124.539 361.369C124.75 361.369 124.991 361.395 125.264 361.446C125.539 361.494 125.805 361.595 126.061 361.749C126.319 361.902 126.534 362.134 126.704 362.443C126.875 362.753 126.96 363.168 126.96 363.688V368H125.954V367.114H125.903C125.835 367.256 125.721 367.408 125.562 367.57C125.403 367.732 125.191 367.869 124.927 367.983C124.663 368.097 124.341 368.153 123.96 368.153ZM124.113 367.25C124.511 367.25 124.846 367.172 125.119 367.016C125.395 366.859 125.602 366.658 125.741 366.411C125.883 366.163 125.954 365.903 125.954 365.631V364.71C125.912 364.761 125.818 364.808 125.673 364.851C125.531 364.891 125.366 364.926 125.179 364.957C124.994 364.986 124.814 365.011 124.637 365.034C124.464 365.054 124.324 365.071 124.216 365.085C123.954 365.119 123.71 365.175 123.483 365.251C123.258 365.325 123.076 365.437 122.937 365.588C122.801 365.736 122.733 365.937 122.733 366.193C122.733 366.543 122.862 366.807 123.12 366.986C123.382 367.162 123.713 367.25 124.113 367.25ZM129.801 364.062V368H128.795V361.455H129.767V362.477H129.852C130.006 362.145 130.239 361.878 130.551 361.676C130.864 361.472 131.267 361.369 131.761 361.369C132.205 361.369 132.592 361.46 132.925 361.642C133.257 361.821 133.516 362.094 133.7 362.46C133.885 362.824 133.977 363.284 133.977 363.841V368H132.972V363.909C132.972 363.395 132.838 362.994 132.571 362.707C132.304 362.418 131.938 362.273 131.472 362.273C131.151 362.273 130.864 362.342 130.611 362.482C130.361 362.621 130.163 362.824 130.018 363.091C129.874 363.358 129.801 363.682 129.801 364.062ZM138.662 361.455V362.307H135.27V361.455H138.662ZM136.258 359.886H137.264V366.125C137.264 366.409 137.305 366.622 137.387 366.764C137.473 366.903 137.581 366.997 137.711 367.045C137.845 367.091 137.985 367.114 138.133 367.114C138.244 367.114 138.335 367.108 138.406 367.097C138.477 367.082 138.534 367.071 138.576 367.062L138.781 367.966C138.713 367.991 138.618 368.017 138.495 368.043C138.373 368.071 138.218 368.085 138.031 368.085C137.747 368.085 137.468 368.024 137.196 367.902C136.926 367.78 136.701 367.594 136.522 367.344C136.346 367.094 136.258 366.778 136.258 366.398V359.886ZM140.174 368V361.455H141.18V368H140.174ZM140.686 360.364C140.49 360.364 140.321 360.297 140.179 360.163C140.039 360.03 139.97 359.869 139.97 359.682C139.97 359.494 140.039 359.334 140.179 359.2C140.321 359.067 140.49 359 140.686 359C140.882 359 141.049 359.067 141.189 359.2C141.331 359.334 141.402 359.494 141.402 359.682C141.402 359.869 141.331 360.03 141.189 360.163C141.049 360.297 140.882 360.364 140.686 360.364ZM144.948 368.153C144.533 368.153 144.157 368.075 143.819 367.919C143.481 367.76 143.212 367.531 143.013 367.233C142.815 366.932 142.715 366.568 142.715 366.142C142.715 365.767 142.789 365.463 142.937 365.23C143.085 364.994 143.282 364.81 143.529 364.676C143.776 364.543 144.049 364.443 144.347 364.378C144.648 364.31 144.951 364.256 145.255 364.216C145.653 364.165 145.975 364.126 146.222 364.101C146.472 364.072 146.654 364.026 146.768 363.96C146.884 363.895 146.942 363.781 146.942 363.619V363.585C146.942 363.165 146.827 362.838 146.597 362.605C146.37 362.372 146.025 362.256 145.562 362.256C145.082 362.256 144.705 362.361 144.433 362.571C144.16 362.781 143.968 363.006 143.857 363.244L142.903 362.903C143.073 362.506 143.3 362.196 143.585 361.974C143.871 361.75 144.184 361.594 144.522 361.506C144.863 361.415 145.198 361.369 145.528 361.369C145.738 361.369 145.979 361.395 146.252 361.446C146.528 361.494 146.793 361.595 147.049 361.749C147.308 361.902 147.522 362.134 147.692 362.443C147.863 362.753 147.948 363.168 147.948 363.688V368H146.942V367.114H146.891C146.823 367.256 146.71 367.408 146.55 367.57C146.391 367.732 146.18 367.869 145.915 367.983C145.651 368.097 145.329 368.153 144.948 368.153ZM145.102 367.25C145.499 367.25 145.835 367.172 146.107 367.016C146.383 366.859 146.59 366.658 146.729 366.411C146.871 366.163 146.942 365.903 146.942 365.631V364.71C146.9 364.761 146.806 364.808 146.661 364.851C146.519 364.891 146.354 364.926 146.167 364.957C145.982 364.986 145.802 365.011 145.626 365.034C145.452 365.054 145.312 365.071 145.204 365.085C144.942 365.119 144.698 365.175 144.471 365.251C144.246 365.325 144.065 365.437 143.925 365.588C143.789 365.736 143.721 365.937 143.721 366.193C143.721 366.543 143.85 366.807 144.109 366.986C144.37 367.162 144.701 367.25 145.102 367.25ZM153.653 368H152.545L155.75 359.273H156.841L160.045 368H158.937L156.329 360.653H156.261L153.653 368ZM154.062 364.591H158.528V365.528H154.062V364.591ZM163.705 361.455V362.307H160.312V361.455H163.705ZM161.301 359.886H162.307V366.125C162.307 366.409 162.348 366.622 162.43 366.764C162.516 366.903 162.624 366.997 162.754 367.045C162.888 367.091 163.028 367.114 163.176 367.114C163.287 367.114 163.378 367.108 163.449 367.097C163.52 367.082 163.577 367.071 163.619 367.062L163.824 367.966C163.756 367.991 163.661 368.017 163.538 368.043C163.416 368.071 163.261 368.085 163.074 368.085C162.79 368.085 162.511 368.024 162.239 367.902C161.969 367.78 161.744 367.594 161.565 367.344C161.389 367.094 161.301 366.778 161.301 366.398V359.886ZM169.342 365.324V361.455H170.348V368H169.342V366.892H169.274C169.121 367.224 168.882 367.507 168.558 367.74C168.234 367.97 167.825 368.085 167.331 368.085C166.922 368.085 166.558 367.996 166.24 367.817C165.922 367.635 165.672 367.362 165.49 366.999C165.308 366.632 165.217 366.17 165.217 365.614V361.455H166.223V365.545C166.223 366.023 166.357 366.403 166.624 366.688C166.893 366.972 167.237 367.114 167.655 367.114C167.905 367.114 168.159 367.05 168.418 366.922C168.679 366.794 168.898 366.598 169.074 366.334C169.253 366.07 169.342 365.733 169.342 365.324ZM174.116 368.153C173.701 368.153 173.325 368.075 172.987 367.919C172.649 367.76 172.38 367.531 172.181 367.233C171.983 366.932 171.883 366.568 171.883 366.142C171.883 365.767 171.957 365.463 172.105 365.23C172.252 364.994 172.45 364.81 172.697 364.676C172.944 364.543 173.217 364.443 173.515 364.378C173.816 364.31 174.119 364.256 174.423 364.216C174.821 364.165 175.143 364.126 175.39 364.101C175.64 364.072 175.822 364.026 175.936 363.96C176.052 363.895 176.11 363.781 176.11 363.619V363.585C176.11 363.165 175.995 362.838 175.765 362.605C175.538 362.372 175.193 362.256 174.73 362.256C174.25 362.256 173.873 362.361 173.6 362.571C173.328 362.781 173.136 363.006 173.025 363.244L172.071 362.903C172.241 362.506 172.468 362.196 172.752 361.974C173.039 361.75 173.352 361.594 173.69 361.506C174.031 361.415 174.366 361.369 174.696 361.369C174.906 361.369 175.147 361.395 175.42 361.446C175.696 361.494 175.961 361.595 176.217 361.749C176.475 361.902 176.69 362.134 176.86 362.443C177.031 362.753 177.116 363.168 177.116 363.688V368H176.11V367.114H176.059C175.991 367.256 175.877 367.408 175.718 367.57C175.559 367.732 175.348 367.869 175.083 367.983C174.819 368.097 174.497 368.153 174.116 368.153ZM174.27 367.25C174.667 367.25 175.002 367.172 175.275 367.016C175.551 366.859 175.758 366.658 175.897 366.411C176.039 366.163 176.11 365.903 176.11 365.631V364.71C176.068 364.761 175.974 364.808 175.829 364.851C175.687 364.891 175.522 364.926 175.335 364.957C175.15 364.986 174.97 365.011 174.794 365.034C174.62 365.054 174.48 365.071 174.372 365.085C174.11 365.119 173.866 365.175 173.639 365.251C173.414 365.325 173.233 365.437 173.093 365.588C172.957 365.736 172.889 365.937 172.889 366.193C172.889 366.543 173.018 366.807 173.277 366.986C173.538 367.162 173.869 367.25 174.27 367.25ZM179.957 359.273V368H178.952V359.273H179.957Z" fill="#9F9F9F"/>
<g clip-path="url(#clip2_93_169)">
<path d="M296 327C286.611 327 279 334.611 279 344C279 353.389 286.611 361 296 361C305.389 361 313 353.389 313 344C313 334.611 305.389 327 296 327ZM296 358.908C287.798 358.908 281.125 352.202 281.125 344C281.125 335.798 287.798 329.125 296 329.125C304.202 329.125 310.875 335.798 310.875 344C310.875 352.202 304.202 358.908 296 358.908ZM303.438 342.938H297.062V336.562C297.062 335.976 296.586 335.5 296 335.5C295.414 335.5 294.938 335.976 294.938 336.562V342.938H288.562C287.976 342.938 287.5 343.414 287.5 344C287.5 344.586 287.976 345.062 288.562 345.062H294.938V351.438C294.938 352.024 295.414 352.5 296 352.5C296.586 352.5 297.062 352.024 297.062 351.438V345.062H303.438C304.024 345.062 304.5 344.586 304.5 344C304.5 343.414 304.024 342.938 303.438 342.938Z" fill="#525256"/>
</g>
</g>
<defs>
<filter id="filter0_d_93_169" x="0" y="0" width="415" height="770" filterUnits="userSpaceOnUse" color-interpolation-filters="sRGB">
<feFlood flood-opacity="0" result="BackgroundImageFix"/>
<feColorMatrix in="SourceAlpha" type="matrix" values="0 0 0 0 0 0 0 0 0 0 0 0 0 0 0 0 0 0 127 0" result="hardAlpha"/>
<feOffset dy="20"/>
<feGaussianBlur stdDeviation="12.5"/>
<feColorMatrix type="matrix" values="0 0 0 0 0.298073 0 0 0 0 0.404167 0 0 0 0 0.393191 0 0 0 0.1 0"/>
<feBlend mode="normal" in2="BackgroundImageFix" result="effect1_dropShadow_93_169"/>
<feBlend mode="normal" in="SourceGraphic" in2="effect1_dropShadow_93_169" result="shape"/>
</filter>
<clipPath id="clip0_93_169">
<rect width="34" height="34" fill="white" transform="translate(279 119)"/>
</clipPath>
<clipPath id="clip1_93_169">
<rect width="34" height="34" fill="white" transform="translate(279 223)"/>
</clipPath>
<clipPath id="clip2_93_169">
<rect width="34" height="34" fill="white" transform="translate(279 327)"/>
</clipPath>
</defs>
</svg>
