<svg width="88" height="88" viewBox="0 0 88 88" fill="none" xmlns="http://www.w3.org/2000/svg">
<path d="M36.6666 58.6667H51.3333C53.35 58.6667 55 57.0167 55 55V36.6667H60.83C64.0933 36.6667 65.7433 32.7067 63.4333 30.3967L46.6033 13.5667C46.2641 13.2268 45.8612 12.9571 45.4176 12.7731C44.974 12.5891 44.4985 12.4944 44.0183 12.4944C43.5381 12.4944 43.0626 12.5891 42.619 12.7731C42.1755 12.9571 41.7725 13.2268 41.4333 13.5667L24.6033 30.3967C22.2933 32.7067 23.9066 36.6667 27.17 36.6667H33V55C33 57.0167 34.65 58.6667 36.6666 58.6667ZM22 66H66C68.0166 66 69.6666 67.65 69.6666 69.6667C69.6666 71.6833 68.0166 73.3333 66 73.3333H22C19.9833 73.3333 18.3333 71.6833 18.3333 69.6667C18.3333 67.65 19.9833 66 22 66Z" fill="#27D3B3"/>
</svg>
